<svg width="108" height="110" viewBox="0 0 108 110" fill="none" xmlns="http://www.w3.org/2000/svg">
<ellipse cx="53.9772" cy="55" rx="53.9772" ry="55" fill="#AEC4E3"/>
<ellipse cx="53.9772" cy="55" rx="53.9772" ry="55" fill="url(#paint0_linear_78_3414)"/>
<g filter="url(#filter0_d_78_3414)">
<ellipse cx="53.8692" cy="54.89" rx="23.2102" ry="23.65" fill="#E38B4C"/>
<ellipse cx="53.8692" cy="54.89" rx="23.2102" ry="23.65" fill="url(#paint1_linear_78_3414)"/>
</g>
<path fill-rule="evenodd" clip-rule="evenodd" d="M14.25 92.3083L39.4643 57.4199H69.0207L93.6586 92.2109C83.7931 103.147 69.6371 110 53.9102 110C38.2301 110 24.1116 103.187 14.25 92.3083Z" fill="#7473A5"/>
<path fill-rule="evenodd" clip-rule="evenodd" d="M14.25 92.3083L39.4643 57.4199H69.0207L93.6586 92.2109C83.7931 103.147 69.6371 110 53.9102 110C38.2301 110 24.1116 103.187 14.25 92.3083Z" fill="url(#paint2_linear_78_3414)"/>
<path fill-rule="evenodd" clip-rule="evenodd" d="M75.1959 66.0161L69.1084 57.4199H39.552L33.9554 65.1637L37.676 64.79L39.943 70.62L47.4998 65.56L52.7896 72.6825L58.1873 65.56L66.9237 72.6825L70.265 65.56L75.1959 66.0161Z" fill="white"/>
<mask id="mask0_78_3414" style="mask-type:alpha" maskUnits="userSpaceOnUse" x="0" y="0" width="108" height="110">
<ellipse cx="53.9772" cy="55" rx="53.9772" ry="55" fill="#AEC4E3"/>
<ellipse cx="53.9772" cy="55" rx="53.9772" ry="55" fill="url(#paint3_linear_78_3414)"/>
</mask>
<g mask="url(#mask0_78_3414)">
<path d="M31.2156 71.3142C31.8014 59.388 13.729 57.2616 11.1601 68.7255C-0.152132 65.7209 -1.68446 73.4868 1.3802 76.9999H37.9308C38.5076 73.1909 35.4069 68.3095 31.2156 71.3142Z" fill="white"/>
<path d="M31.2156 71.3142C31.8014 59.388 13.729 57.2616 11.1601 68.7255C-0.152132 65.7209 -1.68446 73.4868 1.3802 76.9999H37.9308C38.5076 73.1909 35.4069 68.3095 31.2156 71.3142Z" fill="url(#paint4_linear_78_3414)"/>
<path d="M99.1787 85.7559C101.051 77.0796 88.5284 73.7796 84.4261 80.8196C78.0568 74.5496 70.1761 80.2696 71.4716 85.7559C64.8864 84.1196 64.5115 89.4263 66.4294 91.5996H106.161C106.761 87.6848 103.537 82.6678 99.1787 85.7559Z" fill="white"/>
<path d="M99.1787 85.7559C101.051 77.0796 88.5284 73.7796 84.4261 80.8196C78.0568 74.5496 70.1761 80.2696 71.4716 85.7559C64.8864 84.1196 64.5115 89.4263 66.4294 91.5996H106.161C106.761 87.6848 103.537 82.6678 99.1787 85.7559Z" fill="url(#paint5_linear_78_3414)"/>
</g>
<defs>
<filter id="filter0_d_78_3414" x="6.65906" y="7.23999" width="94.4204" height="95.3" filterUnits="userSpaceOnUse" color-interpolation-filters="sRGB">
<feFlood flood-opacity="0" result="BackgroundImageFix"/>
<feColorMatrix in="SourceAlpha" type="matrix" values="0 0 0 0 0 0 0 0 0 0 0 0 0 0 0 0 0 0 127 0" result="hardAlpha"/>
<feOffset/>
<feGaussianBlur stdDeviation="12"/>
<feColorMatrix type="matrix" values="0 0 0 0 1 0 0 0 0 1 0 0 0 0 1 0 0 0 1 0"/>
<feBlend mode="normal" in2="BackgroundImageFix" result="effect1_dropShadow_78_3414"/>
<feBlend mode="normal" in="SourceGraphic" in2="effect1_dropShadow_78_3414" result="shape"/>
</filter>
<linearGradient id="paint0_linear_78_3414" x1="53.9772" y1="0" x2="53.9772" y2="110" gradientUnits="userSpaceOnUse">
<stop stop-color="white" stop-opacity="0"/>
<stop offset="1" stop-color="#F792A4"/>
</linearGradient>
<linearGradient id="paint1_linear_78_3414" x1="53.8692" y1="31.24" x2="53.8692" y2="78.54" gradientUnits="userSpaceOnUse">
<stop stop-color="#F8A3B7"/>
<stop offset="1" stop-color="white" stop-opacity="0"/>
</linearGradient>
<linearGradient id="paint2_linear_78_3414" x1="4.70313" y1="53.6799" x2="54.9463" y2="115.681" gradientUnits="userSpaceOnUse">
<stop stop-color="#E9E9E9"/>
<stop offset="1" stop-color="white" stop-opacity="0"/>
</linearGradient>
<linearGradient id="paint3_linear_78_3414" x1="53.9772" y1="0" x2="53.9772" y2="110" gradientUnits="userSpaceOnUse">
<stop stop-color="white" stop-opacity="0"/>
<stop offset="1" stop-color="#F792A4"/>
</linearGradient>
<linearGradient id="paint4_linear_78_3414" x1="19" y1="61.1599" x2="19" y2="76.9999" gradientUnits="userSpaceOnUse">
<stop offset="0.514355" stop-color="white" stop-opacity="0"/>
<stop offset="1" stop-color="#DBDBDB"/>
</linearGradient>
<linearGradient id="paint5_linear_78_3414" x1="86.4772" y1="75.3196" x2="86.4772" y2="91.5996" gradientUnits="userSpaceOnUse">
<stop offset="0.514355" stop-color="white" stop-opacity="0"/>
<stop offset="1" stop-color="#DBDBDB"/>
</linearGradient>
</defs>
</svg>
