<svg width="52" height="52" viewBox="0 0 52 52" fill="none" xmlns="http://www.w3.org/2000/svg">
<rect width="52" height="52" rx="12" fill="#232323" fill-opacity="0.06"/>
<path d="M26 29.75C28.0711 29.75 29.75 28.0711 29.75 26C29.75 23.9289 28.0711 22.25 26 22.25C23.9289 22.25 22.25 23.9289 22.25 26C22.25 28.0711 23.9289 29.75 26 29.75Z" stroke="#232323" stroke-width="1.5" stroke-miterlimit="10" stroke-linecap="round" stroke-linejoin="round"/>
<path d="M13.5 27.1V24.9C13.5 23.6 14.5625 22.525 15.875 22.525C18.1375 22.525 19.0625 20.925 17.925 18.9625C17.275 17.8375 17.6625 16.375 18.8 15.725L20.9625 14.4875C21.95 13.9 23.225 14.25 23.8125 15.2375L23.95 15.475C25.075 17.4375 26.925 17.4375 28.0625 15.475L28.2 15.2375C28.7875 14.25 30.0625 13.9 31.05 14.4875L33.2125 15.725C34.35 16.375 34.7375 17.8375 34.0875 18.9625C32.95 20.925 33.875 22.525 36.1375 22.525C37.4375 22.525 38.5125 23.5875 38.5125 24.9V27.1C38.5125 28.4 37.45 29.475 36.1375 29.475C33.875 29.475 32.95 31.075 34.0875 33.0375C34.7375 34.175 34.35 35.625 33.2125 36.275L31.05 37.5125C30.0625 38.1 28.7875 37.75 28.2 36.7625L28.0625 36.525C26.9375 34.5625 25.0875 34.5625 23.95 36.525L23.8125 36.7625C23.225 37.75 21.95 38.1 20.9625 37.5125L18.8 36.275C17.6625 35.625 17.275 34.1625 17.925 33.0375C19.0625 31.075 18.1375 29.475 15.875 29.475C14.5625 29.475 13.5 28.4 13.5 27.1Z" stroke="#232323" stroke-width="1.5" stroke-miterlimit="10" stroke-linecap="round" stroke-linejoin="round"/>
</svg>
