<svg width="214" height="68" viewBox="0 0 214 68" fill="none" xmlns="http://www.w3.org/2000/svg">
<path d="M25.5735 7H189.118C198.547 7 203.261 7 206.19 9.92893C209.119 12.8579 209.119 17.5719 209.119 27V33C209.119 42.4281 209.119 47.1421 206.19 50.0711C203.261 53 198.547 53 189.119 53H25.5735V7Z" fill="black"/>
<g filter="url(#filter0_d_56_784)">
<rect x="8" y="4" width="50.7678" height="52" rx="4" fill="black"/>
</g>
<rect x="17.2894" y="13.4896" width="32.1905" height="33.0204" rx="3" fill="black" stroke="white" stroke-width="2"/>
<path d="M27.6859 30.5304H40.1188" stroke="white" stroke-width="2" stroke-linecap="round" stroke-linejoin="round"/>
<path d="M33.9023 36.8977V24.1631" stroke="white" stroke-width="2" stroke-linecap="round" stroke-linejoin="round"/>
<path d="M71.7684 35H69.9048L74.0923 23.3636H76.1207L80.3082 35H78.4446L75.1548 25.4773H75.0639L71.7684 35ZM72.0809 30.4432H78.1264V31.9205H72.0809V30.4432ZM84.9787 35.1705C84.2741 35.1705 83.6453 34.9905 83.0923 34.6307C82.5431 34.267 82.1112 33.75 81.7969 33.0795C81.4862 32.4053 81.3309 31.5966 81.3309 30.6534C81.3309 29.7102 81.4881 28.9034 81.8025 28.233C82.1207 27.5625 82.5563 27.0492 83.1094 26.6932C83.6624 26.3371 84.2893 26.1591 84.99 26.1591C85.5317 26.1591 85.9673 26.25 86.2969 26.4318C86.6302 26.6098 86.8878 26.8182 87.0696 27.0568C87.2552 27.2955 87.3991 27.5057 87.5014 27.6875H87.6037V23.3636H89.3025V35H87.6434V33.642H87.5014C87.3991 33.8277 87.2514 34.0398 87.0582 34.2784C86.8688 34.517 86.6075 34.7254 86.2741 34.9034C85.9408 35.0814 85.509 35.1705 84.9787 35.1705ZM85.3537 33.7216C85.8423 33.7216 86.2552 33.5928 86.5923 33.3352C86.9332 33.0739 87.1908 32.7121 87.365 32.25C87.5431 31.7879 87.6321 31.25 87.6321 30.6364C87.6321 30.0303 87.545 29.5 87.3707 29.0455C87.1965 28.5909 86.9408 28.2367 86.6037 27.983C86.2666 27.7292 85.8499 27.6023 85.3537 27.6023C84.8423 27.6023 84.4162 27.7348 84.0753 28C83.7344 28.2652 83.4768 28.6269 83.3025 29.0852C83.1321 29.5436 83.0469 30.0606 83.0469 30.6364C83.0469 31.2197 83.134 31.7443 83.3082 32.2102C83.4825 32.6761 83.74 33.0455 84.0809 33.3182C84.4256 33.5871 84.8499 33.7216 85.3537 33.7216ZM94.9943 35.1705C94.2898 35.1705 93.661 34.9905 93.1079 34.6307C92.5587 34.267 92.1269 33.75 91.8125 33.0795C91.5019 32.4053 91.3466 31.5966 91.3466 30.6534C91.3466 29.7102 91.5038 28.9034 91.8182 28.233C92.1363 27.5625 92.5719 27.0492 93.125 26.6932C93.678 26.3371 94.3049 26.1591 95.0057 26.1591C95.5473 26.1591 95.9829 26.25 96.3125 26.4318C96.6458 26.6098 96.9034 26.8182 97.0852 27.0568C97.2708 27.2955 97.4148 27.5057 97.517 27.6875H97.6193V23.3636H99.3182V35H97.6591V33.642H97.517C97.4148 33.8277 97.267 34.0398 97.0738 34.2784C96.8844 34.517 96.6231 34.7254 96.2898 34.9034C95.9564 35.0814 95.5246 35.1705 94.9943 35.1705ZM95.3693 33.7216C95.8579 33.7216 96.2708 33.5928 96.6079 33.3352C96.9488 33.0739 97.2064 32.7121 97.3807 32.25C97.5587 31.7879 97.6477 31.25 97.6477 30.6364C97.6477 30.0303 97.5606 29.5 97.3863 29.0455C97.2121 28.5909 96.9564 28.2367 96.6193 27.983C96.2822 27.7292 95.8655 27.6023 95.3693 27.6023C94.8579 27.6023 94.4318 27.7348 94.0909 28C93.75 28.2652 93.4924 28.6269 93.3182 29.0852C93.1477 29.5436 93.0625 30.0606 93.0625 30.6364C93.0625 31.2197 93.1496 31.7443 93.3238 32.2102C93.4981 32.6761 93.7557 33.0455 94.0966 33.3182C94.4413 33.5871 94.8655 33.7216 95.3693 33.7216ZM115.506 23.3636V35H113.892L107.977 26.4659H107.869V35H106.114V23.3636H107.739L113.659 31.9091H113.767V23.3636H115.506ZM121.692 35.1761C120.832 35.1761 120.091 34.9924 119.47 34.625C118.853 34.2538 118.375 33.733 118.038 33.0625C117.705 32.3883 117.538 31.5985 117.538 30.6932C117.538 29.7992 117.705 29.0114 118.038 28.3295C118.375 27.6477 118.845 27.1155 119.447 26.733C120.053 26.3504 120.762 26.1591 121.572 26.1591C122.065 26.1591 122.542 26.2405 123.004 26.4034C123.466 26.5663 123.881 26.822 124.249 27.1705C124.616 27.5189 124.906 27.9716 125.118 28.5284C125.33 29.0814 125.436 29.7538 125.436 30.5455V31.1477H118.499V29.875H123.771C123.771 29.428 123.68 29.0322 123.499 28.6875C123.317 28.339 123.061 28.0644 122.732 27.8636C122.406 27.6629 122.023 27.5625 121.584 27.5625C121.107 27.5625 120.69 27.6799 120.334 27.9148C119.982 28.1458 119.709 28.4489 119.516 28.8239C119.326 29.1951 119.232 29.5985 119.232 30.0341V31.0284C119.232 31.6117 119.334 32.108 119.538 32.517C119.747 32.9261 120.036 33.2386 120.408 33.4545C120.779 33.6667 121.213 33.7727 121.709 33.7727C122.031 33.7727 122.324 33.7273 122.589 33.6364C122.855 33.5417 123.084 33.4015 123.277 33.2159C123.47 33.0303 123.618 32.8011 123.72 32.5284L125.328 32.8182C125.199 33.2917 124.968 33.7064 124.635 34.0625C124.305 34.4148 123.891 34.6894 123.391 34.8864C122.894 35.0795 122.328 35.1761 121.692 35.1761ZM129.197 35L126.629 26.2727H128.385L130.095 32.6818H130.18L131.896 26.2727H133.652L135.357 32.6534H135.442L137.141 26.2727H138.896L136.334 35H134.601L132.828 28.6989H132.697L130.925 35H129.197ZM148.896 26.2727V27.6364H143.964V26.2727H148.896ZM145.317 35V25.2614C145.317 24.7159 145.436 24.2633 145.675 23.9034C145.913 23.5398 146.23 23.2689 146.624 23.0909C147.017 22.9091 147.446 22.8182 147.908 22.8182C148.249 22.8182 148.54 22.8466 148.783 22.9034C149.025 22.9564 149.205 23.0057 149.322 23.0511L148.925 24.4261C148.845 24.4034 148.743 24.3769 148.618 24.3466C148.493 24.3125 148.341 24.2955 148.163 24.2955C147.75 24.2955 147.455 24.3977 147.277 24.6023C147.103 24.8068 147.016 25.1023 147.016 25.4886V35H145.317ZM153.982 35.1761C153.163 35.1761 152.449 34.9886 151.839 34.6136C151.23 34.2386 150.756 33.714 150.419 33.0398C150.082 32.3655 149.913 31.5777 149.913 30.6761C149.913 29.7708 150.082 28.9792 150.419 28.3011C150.756 27.6231 151.23 27.0966 151.839 26.7216C152.449 26.3466 153.163 26.1591 153.982 26.1591C154.8 26.1591 155.514 26.3466 156.124 26.7216C156.733 27.0966 157.207 27.6231 157.544 28.3011C157.881 28.9792 158.05 29.7708 158.05 30.6761C158.05 31.5777 157.881 32.3655 157.544 33.0398C157.207 33.714 156.733 34.2386 156.124 34.6136C155.514 34.9886 154.8 35.1761 153.982 35.1761ZM153.987 33.75C154.517 33.75 154.957 33.6098 155.305 33.3295C155.654 33.0492 155.911 32.6761 156.078 32.2102C156.249 31.7443 156.334 31.2311 156.334 30.6705C156.334 30.1136 156.249 29.6023 156.078 29.1364C155.911 28.6667 155.654 28.2898 155.305 28.0057C154.957 27.7216 154.517 27.5795 153.987 27.5795C153.453 27.5795 153.01 27.7216 152.658 28.0057C152.309 28.2898 152.05 28.6667 151.879 29.1364C151.713 29.6023 151.629 30.1136 151.629 30.6705C151.629 31.2311 151.713 31.7443 151.879 32.2102C152.05 32.6761 152.309 33.0492 152.658 33.3295C153.01 33.6098 153.453 33.75 153.987 33.75ZM159.946 35V26.2727H161.588V27.6591H161.679C161.838 27.1894 162.118 26.8201 162.52 26.5511C162.925 26.2784 163.384 26.142 163.895 26.142C164.001 26.142 164.126 26.1458 164.27 26.1534C164.418 26.161 164.533 26.1705 164.616 26.1818V27.8068C164.548 27.7879 164.427 27.767 164.253 27.7443C164.079 27.7178 163.904 27.7045 163.73 27.7045C163.329 27.7045 162.971 27.7898 162.656 27.9602C162.346 28.1269 162.099 28.3598 161.918 28.6591C161.736 28.9545 161.645 29.2917 161.645 29.6705V35H159.946ZM166.087 35V26.2727H167.717V27.6932H167.825C168.007 27.2121 168.304 26.8371 168.717 26.5682C169.13 26.2955 169.625 26.1591 170.2 26.1591C170.784 26.1591 171.272 26.2955 171.666 26.5682C172.064 26.8409 172.357 27.2159 172.547 27.6932H172.638C172.846 27.2273 173.178 26.8561 173.632 26.5795C174.087 26.2992 174.628 26.1591 175.257 26.1591C176.049 26.1591 176.695 26.4072 177.195 26.9034C177.698 27.3996 177.95 28.1477 177.95 29.1477V35H176.251V29.3068C176.251 28.7159 176.09 28.2879 175.768 28.0227C175.446 27.7576 175.062 27.625 174.615 27.625C174.062 27.625 173.632 27.7955 173.325 28.1364C173.018 28.4735 172.865 28.9072 172.865 29.4375V35H171.172V29.1989C171.172 28.7254 171.024 28.3447 170.729 28.0568C170.433 27.7689 170.049 27.625 169.575 27.625C169.253 27.625 168.956 27.7102 168.683 27.8807C168.414 28.0473 168.196 28.2803 168.03 28.5795C167.867 28.8788 167.785 29.2254 167.785 29.6193V35H166.087Z" fill="white"/>
<defs>
<filter id="filter0_d_56_784" x="0" y="0" width="66.7678" height="68" filterUnits="userSpaceOnUse" color-interpolation-filters="sRGB">
<feFlood flood-opacity="0" result="BackgroundImageFix"/>
<feColorMatrix in="SourceAlpha" type="matrix" values="0 0 0 0 0 0 0 0 0 0 0 0 0 0 0 0 0 0 127 0" result="hardAlpha"/>
<feOffset dy="4"/>
<feGaussianBlur stdDeviation="4"/>
<feComposite in2="hardAlpha" operator="out"/>
<feColorMatrix type="matrix" values="0 0 0 0 0 0 0 0 0 0 0 0 0 0 0 0 0 0 0.1 0"/>
<feBlend mode="normal" in2="BackgroundImageFix" result="effect1_dropShadow_56_784"/>
<feBlend mode="normal" in="SourceGraphic" in2="effect1_dropShadow_56_784" result="shape"/>
</filter>
</defs>
</svg>
