<svg width="214" height="68" viewBox="0 0 214 68" fill="none" xmlns="http://www.w3.org/2000/svg">
<path d="M25.5735 7H189.118C198.547 7 203.261 7 206.19 9.92893C209.119 12.8579 209.119 17.5719 209.119 27V33C209.119 42.4281 209.119 47.1421 206.19 50.0711C203.261 53 198.547 53 189.119 53H25.5735V7Z" fill="black"/>
<g filter="url(#filter0_d_56_784)">
<rect x="8" y="4" width="50.7678" height="52" rx="4" fill="black"/>
</g>
<rect x="17.2894" y="13.4896" width="32.1905" height="33.0204" rx="3" fill="black" stroke="white" stroke-width="2"/>
<path d="M27.6859 30.5304H40.1188" stroke="white" stroke-width="2" stroke-linecap="round" stroke-linejoin="round"/>
<path d="M33.9023 36.8977V24.1631" stroke="white" stroke-width="2" stroke-linecap="round" stroke-linejoin="round"/>
<path d="M71.7684 35H69.9048L74.0923 23.3636H76.1207L80.3082 35H78.4446L75.1548 25.4773H75.0639L71.7684 35ZM72.0809 30.4432H78.1264V31.9205H72.0809V30.4432ZM84.9787 35.1705C84.2741 35.1705 83.6453 34.9905 83.0923 34.6307C82.5431 34.267 82.1112 33.75 81.7969 33.0795C81.4862 32.4053 81.3309 31.5966 81.3309 30.6534C81.3309 29.7102 81.4881 28.9034 81.8025 28.233C82.1207 27.5625 82.5563 27.0492 83.1094 26.6932C83.6624 26.3371 84.2893 26.1591 84.99 26.1591C85.5317 26.1591 85.9673 26.25 86.2969 26.4318C86.6302 26.6098 86.8878 26.8182 87.0696 27.0568C87.2552 27.2955 87.3991 27.5057 87.5014 27.6875H87.6037V23.3636H89.3025V35H87.6434V33.642H87.5014C87.3991 33.8277 87.2514 34.0398 87.0582 34.2784C86.8688 34.517 86.6075 34.7254 86.2741 34.9034C85.9408 35.0814 85.509 35.1705 84.9787 35.1705ZM85.3537 33.7216C85.8423 33.7216 86.2552 33.5928 86.5923 33.3352C86.9332 33.0739 87.1908 32.7121 87.365 32.25C87.5431 31.7879 87.6321 31.25 87.6321 30.6364C87.6321 30.0303 87.545 29.5 87.3707 29.0455C87.1965 28.5909 86.9408 28.2367 86.6037 27.983C86.2666 27.7292 85.8499 27.6023 85.3537 27.6023C84.8423 27.6023 84.4162 27.7348 84.0753 28C83.7344 28.2652 83.4768 28.6269 83.3025 29.0852C83.1321 29.5436 83.0469 30.0606 83.0469 30.6364C83.0469 31.2197 83.134 31.7443 83.3082 32.2102C83.4825 32.6761 83.74 33.0455 84.0809 33.3182C84.4256 33.5871 84.8499 33.7216 85.3537 33.7216ZM94.9943 35.1705C94.2898 35.1705 93.661 34.9905 93.1079 34.6307C92.5587 34.267 92.1269 33.75 91.8125 33.0795C91.5019 32.4053 91.3466 31.5966 91.3466 30.6534C91.3466 29.7102 91.5038 28.9034 91.8182 28.233C92.1363 27.5625 92.5719 27.0492 93.125 26.6932C93.678 26.3371 94.3049 26.1591 95.0057 26.1591C95.5473 26.1591 95.9829 26.25 96.3125 26.4318C96.6458 26.6098 96.9034 26.8182 97.0852 27.0568C97.2708 27.2955 97.4148 27.5057 97.517 27.6875H97.6193V23.3636H99.3182V35H97.6591V33.642H97.517C97.4148 33.8277 97.267 34.0398 97.0738 34.2784C96.8844 34.517 96.6231 34.7254 96.2898 34.9034C95.9564 35.0814 95.5246 35.1705 94.9943 35.1705ZM95.3693 33.7216C95.8579 33.7216 96.2708 33.5928 96.6079 33.3352C96.9488 33.0739 97.2064 32.7121 97.3807 32.25C97.5587 31.7879 97.6477 31.25 97.6477 30.6364C97.6477 30.0303 97.5606 29.5 97.3863 29.0455C97.2121 28.5909 96.9564 28.2367 96.6193 27.983C96.2822 27.7292 95.8655 27.6023 95.3693 27.6023C94.8579 27.6023 94.4318 27.7348 94.0909 28C93.75 28.2652 93.4924 28.6269 93.3182 29.0852C93.1477 29.5436 93.0625 30.0606 93.0625 30.6364C93.0625 31.2197 93.1496 31.7443 93.3238 32.2102C93.4981 32.6761 93.7557 33.0455 94.0966 33.3182C94.4413 33.5871 94.8655 33.7216 95.3693 33.7216ZM115.506 23.3636V35H113.892L107.977 26.4659H107.869V35H106.114V23.3636H107.739L113.659 31.9091H113.767V23.3636H115.506ZM121.692 35.1761C120.832 35.1761 120.091 34.9924 119.47 34.625C118.853 34.2538 118.375 33.733 118.038 33.0625C117.705 32.3883 117.538 31.5985 117.538 30.6932C117.538 29.7992 117.705 29.0114 118.038 28.3295C118.375 27.6477 118.845 27.1155 119.447 26.733C120.053 26.3504 120.762 26.1591 121.572 26.1591C122.065 26.1591 122.542 26.2405 123.004 26.4034C123.466 26.5663 123.881 26.822 124.249 27.1705C124.616 27.5189 124.906 27.9716 125.118 28.5284C125.33 29.0814 125.436 29.7538 125.436 30.5455V31.1477H118.499V29.875H123.771C123.771 29.428 123.68 29.0322 123.499 28.6875C123.317 28.339 123.061 28.0644 122.732 27.8636C122.406 27.6629 122.023 27.5625 121.584 27.5625C121.107 27.5625 120.69 27.6799 120.334 27.9148C119.982 28.1458 119.709 28.4489 119.516 28.8239C119.326 29.1951 119.232 29.5985 119.232 30.0341V31.0284C119.232 31.6117 119.334 32.108 119.538 32.517C119.747 32.9261 120.036 33.2386 120.408 33.4545C120.779 33.6667 121.213 33.7727 121.709 33.7727C122.031 33.7727 122.324 33.7273 122.589 33.6364C122.855 33.5417 123.084 33.4015 123.277 33.2159C123.47 33.0303 123.618 32.8011 123.72 32.5284L125.328 32.8182C125.199 33.2917 124.968 33.7064 124.635 34.0625C124.305 34.4148 123.891 34.6894 123.391 34.8864C122.894 35.0795 122.328 35.1761 121.692 35.1761ZM129.197 35L126.629 26.2727H128.385L130.095 32.6818H130.18L131.896 26.2727H133.652L135.357 32.6534H135.442L137.141 26.2727H138.896L136.334 35H134.601L132.828 28.6989H132.697L130.925 35H129.197ZM148.402 38.4545C147.709 38.4545 147.112 38.3636 146.612 38.1818C146.116 38 145.711 37.7595 145.396 37.4602C145.082 37.161 144.847 36.8333 144.692 36.4773L146.152 35.875C146.254 36.0417 146.391 36.2178 146.561 36.4034C146.735 36.5928 146.97 36.7538 147.266 36.8864C147.565 37.0189 147.949 37.0852 148.419 37.0852C149.063 37.0852 149.595 36.928 150.016 36.6136C150.436 36.303 150.646 35.8068 150.646 35.125V33.4091H150.538C150.436 33.5947 150.288 33.8011 150.095 34.0284C149.906 34.2557 149.644 34.4527 149.311 34.6193C148.978 34.786 148.544 34.8693 148.01 34.8693C147.321 34.8693 146.699 34.7083 146.146 34.3864C145.597 34.0606 145.161 33.5814 144.839 32.9489C144.521 32.3125 144.362 31.5303 144.362 30.6023C144.362 29.6742 144.519 28.8788 144.834 28.2159C145.152 27.553 145.588 27.0455 146.141 26.6932C146.694 26.3371 147.321 26.1591 148.021 26.1591C148.563 26.1591 149 26.25 149.334 26.4318C149.667 26.6098 149.927 26.8182 150.112 27.0568C150.302 27.2955 150.447 27.5057 150.55 27.6875H150.675V26.2727H152.339V35.1932C152.339 35.9432 152.165 36.5587 151.817 37.0398C151.468 37.5208 150.997 37.8769 150.402 38.108C149.811 38.339 149.144 38.4545 148.402 38.4545ZM148.385 33.4602C148.874 33.4602 149.286 33.3466 149.624 33.1193C149.964 32.8883 150.222 32.5587 150.396 32.1307C150.574 31.6989 150.663 31.1818 150.663 30.5795C150.663 29.9924 150.576 29.4754 150.402 29.0284C150.228 28.5814 149.972 28.233 149.635 27.983C149.298 27.7292 148.881 27.6023 148.385 27.6023C147.874 27.6023 147.447 27.7348 147.107 28C146.766 28.2614 146.508 28.6174 146.334 29.0682C146.163 29.5189 146.078 30.0227 146.078 30.5795C146.078 31.1515 146.165 31.6534 146.339 32.0852C146.514 32.517 146.771 32.8542 147.112 33.0966C147.457 33.339 147.881 33.4602 148.385 33.4602ZM154.618 35V26.2727H156.26V27.6591H156.351C156.51 27.1894 156.79 26.8201 157.192 26.5511C157.597 26.2784 158.055 26.142 158.567 26.142C158.673 26.142 158.798 26.1458 158.942 26.1534C159.089 26.161 159.205 26.1705 159.288 26.1818V27.8068C159.22 27.7879 159.099 27.767 158.925 27.7443C158.75 27.7178 158.576 27.7045 158.402 27.7045C158 27.7045 157.642 27.7898 157.328 27.9602C157.017 28.1269 156.771 28.3598 156.589 28.6591C156.408 28.9545 156.317 29.2917 156.317 29.6705V35H154.618ZM164.122 35.1761C163.304 35.1761 162.59 34.9886 161.98 34.6136C161.37 34.2386 160.897 33.714 160.56 33.0398C160.223 32.3655 160.054 31.5777 160.054 30.6761C160.054 29.7708 160.223 28.9792 160.56 28.3011C160.897 27.6231 161.37 27.0966 161.98 26.7216C162.59 26.3466 163.304 26.1591 164.122 26.1591C164.94 26.1591 165.654 26.3466 166.264 26.7216C166.874 27.0966 167.348 27.6231 167.685 28.3011C168.022 28.9792 168.19 29.7708 168.19 30.6761C168.19 31.5777 168.022 32.3655 167.685 33.0398C167.348 33.714 166.874 34.2386 166.264 34.6136C165.654 34.9886 164.94 35.1761 164.122 35.1761ZM164.128 33.75C164.658 33.75 165.098 33.6098 165.446 33.3295C165.794 33.0492 166.052 32.6761 166.219 32.2102C166.389 31.7443 166.474 31.2311 166.474 30.6705C166.474 30.1136 166.389 29.6023 166.219 29.1364C166.052 28.6667 165.794 28.2898 165.446 28.0057C165.098 27.7216 164.658 27.5795 164.128 27.5795C163.594 27.5795 163.151 27.7216 162.798 28.0057C162.45 28.2898 162.19 28.6667 162.02 29.1364C161.853 29.6023 161.77 30.1136 161.77 30.6705C161.77 31.2311 161.853 31.7443 162.02 32.2102C162.19 32.6761 162.45 33.0492 162.798 33.3295C163.151 33.6098 163.594 33.75 164.128 33.75ZM175.615 31.3807V26.2727H177.32V35H175.649V33.4886H175.558C175.357 33.9545 175.035 34.3428 174.592 34.6534C174.153 34.9602 173.606 35.1136 172.95 35.1136C172.39 35.1136 171.893 34.9905 171.462 34.7443C171.034 34.4943 170.696 34.125 170.45 33.6364C170.208 33.1477 170.087 32.5436 170.087 31.8239V26.2727H171.785V31.6193C171.785 32.214 171.95 32.6875 172.28 33.0398C172.609 33.392 173.037 33.5682 173.564 33.5682C173.882 33.5682 174.198 33.4886 174.513 33.3295C174.831 33.1705 175.094 32.9299 175.303 32.608C175.515 32.286 175.619 31.8769 175.615 31.3807ZM179.602 38.2727V26.2727H181.261V27.6875H181.403C181.502 27.5057 181.644 27.2955 181.83 27.0568C182.015 26.8182 182.273 26.6098 182.602 26.4318C182.932 26.25 183.367 26.1591 183.909 26.1591C184.614 26.1591 185.242 26.3371 185.795 26.6932C186.348 27.0492 186.782 27.5625 187.097 28.233C187.415 28.9034 187.574 29.7102 187.574 30.6534C187.574 31.5966 187.417 32.4053 187.102 33.0795C186.788 33.75 186.356 34.267 185.807 34.6307C185.258 34.9905 184.631 35.1705 183.926 35.1705C183.396 35.1705 182.962 35.0814 182.625 34.9034C182.292 34.7254 182.03 34.517 181.841 34.2784C181.651 34.0398 181.506 33.8277 181.403 33.642H181.301V38.2727H179.602ZM181.267 30.6364C181.267 31.25 181.356 31.7879 181.534 32.25C181.712 32.7121 181.97 33.0739 182.307 33.3352C182.644 33.5928 183.057 33.7216 183.545 33.7216C184.053 33.7216 184.477 33.5871 184.818 33.3182C185.159 33.0455 185.417 32.6761 185.591 32.2102C185.769 31.7443 185.858 31.2197 185.858 30.6364C185.858 30.0606 185.771 29.5436 185.597 29.0852C185.426 28.6269 185.169 28.2652 184.824 28C184.483 27.7348 184.057 27.6023 183.545 27.6023C183.053 27.6023 182.636 27.7292 182.295 27.983C181.958 28.2367 181.703 28.5909 181.528 29.0455C181.354 29.5 181.267 30.0303 181.267 30.6364Z" fill="white"/>
<defs>
<filter id="filter0_d_56_784" x="0" y="0" width="66.7678" height="68" filterUnits="userSpaceOnUse" color-interpolation-filters="sRGB">
<feFlood flood-opacity="0" result="BackgroundImageFix"/>
<feColorMatrix in="SourceAlpha" type="matrix" values="0 0 0 0 0 0 0 0 0 0 0 0 0 0 0 0 0 0 127 0" result="hardAlpha"/>
<feOffset dy="4"/>
<feGaussianBlur stdDeviation="4"/>
<feComposite in2="hardAlpha" operator="out"/>
<feColorMatrix type="matrix" values="0 0 0 0 0 0 0 0 0 0 0 0 0 0 0 0 0 0 0.1 0"/>
<feBlend mode="normal" in2="BackgroundImageFix" result="effect1_dropShadow_56_784"/>
<feBlend mode="normal" in="SourceGraphic" in2="effect1_dropShadow_56_784" result="shape"/>
</filter>
</defs>
</svg>
