<svg width="234" height="68" viewBox="0 0 234 68" fill="none" xmlns="http://www.w3.org/2000/svg">
<path d="M26 7H214C223.428 7 228.142 7 231.071 9.92893C234 12.8579 234 17.5719 234 27V33C234 42.4281 234 47.1421 231.071 50.0711C228.142 53 223.428 53 214 53H26V7Z" fill="black"/>
<g filter="url(#filter0_d_78_1440)">
<rect x="8" y="4" width="52" height="52" rx="4" fill="black"/>
</g>
<rect x="17.4906" y="13.4896" width="33.0204" height="33.0204" rx="3" fill="black" stroke="white" stroke-width="2"/>
<path d="M28.1636 30.5304H40.8983" stroke="white" stroke-width="2" stroke-linecap="round" stroke-linejoin="round"/>
<path d="M34.5309 36.8978V24.1631" stroke="white" stroke-width="2" stroke-linecap="round" stroke-linejoin="round"/>
<path d="M70.2614 35H68.3977L72.5852 23.3636H74.6136L78.8011 35H76.9375L73.6477 25.4773H73.5568L70.2614 35ZM70.5739 30.4432H76.6193V31.9205H70.5739V30.4432ZM83.4716 35.1705C82.767 35.1705 82.1383 34.9905 81.5852 34.6307C81.036 34.267 80.6042 33.75 80.2898 33.0795C79.9792 32.4053 79.8239 31.5966 79.8239 30.6534C79.8239 29.7102 79.9811 28.9034 80.2955 28.233C80.6136 27.5625 81.0492 27.0492 81.6023 26.6932C82.1553 26.3371 82.7822 26.1591 83.483 26.1591C84.0246 26.1591 84.4602 26.25 84.7898 26.4318C85.1231 26.6098 85.3807 26.8182 85.5625 27.0568C85.7481 27.2955 85.892 27.5057 85.9943 27.6875H86.0966V23.3636H87.7955V35H86.1364V33.642H85.9943C85.892 33.8277 85.7443 34.0398 85.5511 34.2784C85.3617 34.517 85.1004 34.7254 84.767 34.9034C84.4337 35.0814 84.0019 35.1705 83.4716 35.1705ZM83.8466 33.7216C84.3352 33.7216 84.7481 33.5928 85.0852 33.3352C85.4261 33.0739 85.6837 32.7121 85.858 32.25C86.036 31.7879 86.125 31.25 86.125 30.6364C86.125 30.0303 86.0379 29.5 85.8636 29.0455C85.6894 28.5909 85.4337 28.2367 85.0966 27.983C84.7595 27.7292 84.3428 27.6023 83.8466 27.6023C83.3352 27.6023 82.9091 27.7348 82.5682 28C82.2273 28.2652 81.9697 28.6269 81.7955 29.0852C81.625 29.5436 81.5398 30.0606 81.5398 30.6364C81.5398 31.2197 81.6269 31.7443 81.8011 32.2102C81.9754 32.6761 82.233 33.0455 82.5739 33.3182C82.9186 33.5871 83.3428 33.7216 83.8466 33.7216ZM93.4872 35.1705C92.7827 35.1705 92.1539 34.9905 91.6009 34.6307C91.0516 34.267 90.6198 33.75 90.3054 33.0795C89.9948 32.4053 89.8395 31.5966 89.8395 30.6534C89.8395 29.7102 89.9967 28.9034 90.3111 28.233C90.6293 27.5625 91.0649 27.0492 91.6179 26.6932C92.1709 26.3371 92.7978 26.1591 93.4986 26.1591C94.0402 26.1591 94.4759 26.25 94.8054 26.4318C95.1387 26.6098 95.3963 26.8182 95.5781 27.0568C95.7637 27.2955 95.9077 27.5057 96.0099 27.6875H96.1122V23.3636H97.8111V35H96.152V33.642H96.0099C95.9077 33.8277 95.7599 34.0398 95.5668 34.2784C95.3774 34.517 95.116 34.7254 94.7827 34.9034C94.4493 35.0814 94.0175 35.1705 93.4872 35.1705ZM93.8622 33.7216C94.3509 33.7216 94.7637 33.5928 95.1009 33.3352C95.4418 33.0739 95.6993 32.7121 95.8736 32.25C96.0516 31.7879 96.1406 31.25 96.1406 30.6364C96.1406 30.0303 96.0535 29.5 95.8793 29.0455C95.705 28.5909 95.4493 28.2367 95.1122 27.983C94.7751 27.7292 94.3584 27.6023 93.8622 27.6023C93.3509 27.6023 92.9247 27.7348 92.5838 28C92.2429 28.2652 91.9853 28.6269 91.8111 29.0852C91.6406 29.5436 91.5554 30.0606 91.5554 30.6364C91.5554 31.2197 91.6425 31.7443 91.8168 32.2102C91.991 32.6761 92.2486 33.0455 92.5895 33.3182C92.9342 33.5871 93.3584 33.7216 93.8622 33.7216ZM106.169 29.8182V35H104.47V26.2727H106.101V27.6932H106.209C106.41 27.2311 106.724 26.8598 107.152 26.5795C107.584 26.2992 108.127 26.1591 108.783 26.1591C109.377 26.1591 109.898 26.2841 110.345 26.5341C110.792 26.7803 111.139 27.1477 111.385 27.6364C111.631 28.125 111.754 28.7292 111.754 29.4489V35H110.055V29.6534C110.055 29.0208 109.891 28.5265 109.561 28.1705C109.232 27.8106 108.779 27.6307 108.203 27.6307C107.809 27.6307 107.459 27.7159 107.152 27.8864C106.849 28.0568 106.608 28.3068 106.43 28.6364C106.256 28.9621 106.169 29.3561 106.169 29.8182ZM117.794 35.1761C116.934 35.1761 116.194 34.9924 115.572 34.625C114.955 34.2538 114.478 33.733 114.141 33.0625C113.807 32.3883 113.641 31.5985 113.641 30.6932C113.641 29.7992 113.807 29.0114 114.141 28.3295C114.478 27.6477 114.947 27.1155 115.55 26.733C116.156 26.3504 116.864 26.1591 117.675 26.1591C118.167 26.1591 118.644 26.2405 119.107 26.4034C119.569 26.5663 119.983 26.822 120.351 27.1705C120.718 27.5189 121.008 27.9716 121.22 28.5284C121.432 29.0814 121.538 29.7538 121.538 30.5455V31.1477H114.601V29.875H119.874C119.874 29.428 119.783 29.0322 119.601 28.6875C119.419 28.339 119.163 28.0644 118.834 27.8636C118.508 27.6629 118.125 27.5625 117.686 27.5625C117.209 27.5625 116.792 27.6799 116.436 27.9148C116.084 28.1458 115.811 28.4489 115.618 28.8239C115.429 29.1951 115.334 29.5985 115.334 30.0341V31.0284C115.334 31.6117 115.436 32.108 115.641 32.517C115.849 32.9261 116.139 33.2386 116.51 33.4545C116.881 33.6667 117.315 33.7727 117.811 33.7727C118.133 33.7727 118.427 33.7273 118.692 33.6364C118.957 33.5417 119.186 33.4015 119.379 33.2159C119.572 33.0303 119.72 32.8011 119.822 32.5284L121.43 32.8182C121.302 33.2917 121.071 33.7064 120.737 34.0625C120.408 34.4148 119.993 34.6894 119.493 34.8864C118.997 35.0795 118.43 35.1761 117.794 35.1761ZM125.3 35L122.732 26.2727H124.487L126.197 32.6818H126.283L127.999 26.2727H129.754L131.459 32.6534H131.544L133.243 26.2727H134.999L132.436 35H130.703L128.93 28.6989H128.8L127.027 35H125.3ZM144.504 38.4545C143.811 38.4545 143.214 38.3636 142.714 38.1818C142.218 38 141.813 37.7595 141.499 37.4602C141.184 37.161 140.949 36.8333 140.794 36.4773L142.254 35.875C142.357 36.0417 142.493 36.2178 142.663 36.4034C142.838 36.5928 143.072 36.7538 143.368 36.8864C143.667 37.0189 144.052 37.0852 144.521 37.0852C145.165 37.0852 145.697 36.928 146.118 36.6136C146.538 36.303 146.749 35.8068 146.749 35.125V33.4091H146.641C146.538 33.5947 146.391 33.8011 146.197 34.0284C146.008 34.2557 145.747 34.4527 145.413 34.6193C145.08 34.786 144.646 34.8693 144.112 34.8693C143.423 34.8693 142.802 34.7083 142.249 34.3864C141.699 34.0606 141.264 33.5814 140.942 32.9489C140.624 32.3125 140.464 31.5303 140.464 30.6023C140.464 29.6742 140.622 28.8788 140.936 28.2159C141.254 27.553 141.69 27.0455 142.243 26.6932C142.796 26.3371 143.423 26.1591 144.124 26.1591C144.665 26.1591 145.103 26.25 145.436 26.4318C145.769 26.6098 146.029 26.8182 146.214 27.0568C146.404 27.2955 146.55 27.5057 146.652 27.6875H146.777V26.2727H148.442V35.1932C148.442 35.9432 148.268 36.5587 147.919 37.0398C147.571 37.5208 147.099 37.8769 146.504 38.108C145.913 38.339 145.247 38.4545 144.504 38.4545ZM144.487 33.4602C144.976 33.4602 145.389 33.3466 145.726 33.1193C146.067 32.8883 146.324 32.5587 146.499 32.1307C146.677 31.6989 146.766 31.1818 146.766 30.5795C146.766 29.9924 146.679 29.4754 146.504 29.0284C146.33 28.5814 146.074 28.233 145.737 27.983C145.4 27.7292 144.983 27.6023 144.487 27.6023C143.976 27.6023 143.55 27.7348 143.209 28C142.868 28.2614 142.61 28.6174 142.436 29.0682C142.266 29.5189 142.18 30.0227 142.18 30.5795C142.18 31.1515 142.268 31.6534 142.442 32.0852C142.616 32.517 142.874 32.8542 143.214 33.0966C143.559 33.339 143.983 33.4602 144.487 33.4602ZM150.72 35V26.2727H152.362V27.6591H152.453C152.612 27.1894 152.893 26.8201 153.294 26.5511C153.699 26.2784 154.158 26.142 154.669 26.142C154.775 26.142 154.9 26.1458 155.044 26.1534C155.192 26.161 155.307 26.1705 155.391 26.1818V27.8068C155.322 27.7879 155.201 27.767 155.027 27.7443C154.853 27.7178 154.679 27.7045 154.504 27.7045C154.103 27.7045 153.745 27.7898 153.43 27.9602C153.12 28.1269 152.874 28.3598 152.692 28.6591C152.51 28.9545 152.419 29.2917 152.419 29.6705V35H150.72ZM160.224 35.1761C159.406 35.1761 158.692 34.9886 158.082 34.6136C157.473 34.2386 156.999 33.714 156.662 33.0398C156.325 32.3655 156.156 31.5777 156.156 30.6761C156.156 29.7708 156.325 28.9792 156.662 28.3011C156.999 27.6231 157.473 27.0966 158.082 26.7216C158.692 26.3466 159.406 26.1591 160.224 26.1591C161.043 26.1591 161.757 26.3466 162.366 26.7216C162.976 27.0966 163.45 27.6231 163.787 28.3011C164.124 28.9792 164.293 29.7708 164.293 30.6761C164.293 31.5777 164.124 32.3655 163.787 33.0398C163.45 33.714 162.976 34.2386 162.366 34.6136C161.757 34.9886 161.043 35.1761 160.224 35.1761ZM160.23 33.75C160.76 33.75 161.2 33.6098 161.548 33.3295C161.897 33.0492 162.154 32.6761 162.321 32.2102C162.491 31.7443 162.577 31.2311 162.577 30.6705C162.577 30.1136 162.491 29.6023 162.321 29.1364C162.154 28.6667 161.897 28.2898 161.548 28.0057C161.2 27.7216 160.76 27.5795 160.23 27.5795C159.696 27.5795 159.253 27.7216 158.901 28.0057C158.552 28.2898 158.293 28.6667 158.122 29.1364C157.955 29.6023 157.872 30.1136 157.872 30.6705C157.872 31.2311 157.955 31.7443 158.122 32.2102C158.293 32.6761 158.552 33.0492 158.901 33.3295C159.253 33.6098 159.696 33.75 160.23 33.75ZM171.717 31.3807V26.2727H173.422V35H171.751V33.4886H171.661C171.46 33.9545 171.138 34.3428 170.695 34.6534C170.255 34.9602 169.708 35.1136 169.053 35.1136C168.492 35.1136 167.996 34.9905 167.564 34.7443C167.136 34.4943 166.799 34.125 166.553 33.6364C166.31 33.1477 166.189 32.5436 166.189 31.8239V26.2727H167.888V31.6193C167.888 32.214 168.053 32.6875 168.382 33.0398C168.712 33.392 169.14 33.5682 169.666 33.5682C169.984 33.5682 170.301 33.4886 170.615 33.3295C170.933 33.1705 171.196 32.9299 171.405 32.608C171.617 32.286 171.721 31.8769 171.717 31.3807ZM175.705 38.2727V26.2727H177.364V27.6875H177.506C177.604 27.5057 177.746 27.2955 177.932 27.0568C178.117 26.8182 178.375 26.6098 178.705 26.4318C179.034 26.25 179.47 26.1591 180.011 26.1591C180.716 26.1591 181.345 26.3371 181.898 26.6932C182.451 27.0492 182.884 27.5625 183.199 28.233C183.517 28.9034 183.676 29.7102 183.676 30.6534C183.676 31.5966 183.519 32.4053 183.205 33.0795C182.89 33.75 182.458 34.267 181.909 34.6307C181.36 34.9905 180.733 35.1705 180.028 35.1705C179.498 35.1705 179.064 35.0814 178.727 34.9034C178.394 34.7254 178.133 34.517 177.943 34.2784C177.754 34.0398 177.608 33.8277 177.506 33.642H177.403V38.2727H175.705ZM177.369 30.6364C177.369 31.25 177.458 31.7879 177.636 32.25C177.814 32.7121 178.072 33.0739 178.409 33.3352C178.746 33.5928 179.159 33.7216 179.648 33.7216C180.155 33.7216 180.58 33.5871 180.92 33.3182C181.261 33.0455 181.519 32.6761 181.693 32.2102C181.871 31.7443 181.96 31.2197 181.96 30.6364C181.96 30.0606 181.873 29.5436 181.699 29.0852C181.528 28.6269 181.271 28.2652 180.926 28C180.585 27.7348 180.159 27.6023 179.648 27.6023C179.155 27.6023 178.739 27.7292 178.398 27.983C178.061 28.2367 177.805 28.5909 177.631 29.0455C177.456 29.5 177.369 30.0303 177.369 30.6364Z" fill="white"/>
<defs>
<filter id="filter0_d_78_1440" x="0" y="0" width="68" height="68" filterUnits="userSpaceOnUse" color-interpolation-filters="sRGB">
<feFlood flood-opacity="0" result="BackgroundImageFix"/>
<feColorMatrix in="SourceAlpha" type="matrix" values="0 0 0 0 0 0 0 0 0 0 0 0 0 0 0 0 0 0 127 0" result="hardAlpha"/>
<feOffset dy="4"/>
<feGaussianBlur stdDeviation="4"/>
<feComposite in2="hardAlpha" operator="out"/>
<feColorMatrix type="matrix" values="0 0 0 0 0 0 0 0 0 0 0 0 0 0 0 0 0 0 0.1 0"/>
<feBlend mode="normal" in2="BackgroundImageFix" result="effect1_dropShadow_78_1440"/>
<feBlend mode="normal" in="SourceGraphic" in2="effect1_dropShadow_78_1440" result="shape"/>
</filter>
</defs>
</svg>
