<svg width="1438" height="56" viewBox="0 0 1438 56" fill="none" xmlns="http://www.w3.org/2000/svg">
<rect width="1438" height="56" rx="12" fill="#232323"/>
<path d="M63.3381 20.4545V35H61.321L53.9276 24.3324H53.7926V35H51.598V20.4545H53.6293L61.0298 31.1364H61.1648V20.4545H63.3381ZM69.5437 35.2415C68.8524 35.2415 68.2274 35.1136 67.6687 34.858C67.11 34.5975 66.6673 34.2211 66.3406 33.7287C66.0186 33.2363 65.8576 32.6326 65.8576 31.9176C65.8576 31.3021 65.976 30.7955 66.2127 30.3977C66.4495 30 66.7691 29.6851 67.1715 29.4531C67.574 29.2211 68.0238 29.0459 68.521 28.9276C69.0181 28.8092 69.5247 28.7192 70.0408 28.6577C70.6942 28.5819 71.2246 28.5204 71.6317 28.473C72.0389 28.4209 72.3349 28.3381 72.5195 28.2244C72.7042 28.1108 72.7965 27.9261 72.7965 27.6705V27.6207C72.7965 27.0005 72.6213 26.5199 72.271 26.179C71.9253 25.8381 71.4092 25.6676 70.7227 25.6676C70.0077 25.6676 69.4442 25.8262 69.0323 26.1435C68.6251 26.456 68.3434 26.804 68.1871 27.1875L66.1914 26.733C66.4281 26.0701 66.7738 25.535 67.2283 25.1278C67.6876 24.7159 68.2156 24.4176 68.8121 24.233C69.4087 24.0436 70.0361 23.9489 70.6942 23.9489C71.1299 23.9489 71.5915 24.0009 72.0792 24.1051C72.5716 24.2045 73.0309 24.3892 73.457 24.6591C73.8879 24.929 74.2406 25.3149 74.5153 25.8168C74.7899 26.3139 74.9272 26.9602 74.9272 27.7557V35H72.8533V33.5085H72.7681C72.6308 33.7831 72.4248 34.053 72.1502 34.3182C71.8756 34.5833 71.5228 34.8035 71.092 34.9787C70.6611 35.1539 70.145 35.2415 69.5437 35.2415ZM70.0053 33.5369C70.5924 33.5369 71.0943 33.4209 71.511 33.1889C71.9324 32.9569 72.252 32.6539 72.4698 32.2798C72.6924 31.901 72.8036 31.4962 72.8036 31.0653V29.6591C72.7279 29.7348 72.5811 29.8059 72.3633 29.8722C72.1502 29.9337 71.9064 29.9882 71.6317 30.0355C71.3571 30.0781 71.0896 30.1184 70.8292 30.1562C70.5688 30.1894 70.351 30.2178 70.1758 30.2415C69.7638 30.2936 69.3874 30.3812 69.0465 30.5043C68.7103 30.6274 68.4405 30.8049 68.2369 31.0369C68.038 31.2642 67.9386 31.5672 67.9386 31.946C67.9386 32.4716 68.1327 32.8693 68.521 33.1392C68.9092 33.4044 69.404 33.5369 70.0053 33.5369ZM77.7557 35V24.0909H79.794V25.8665H79.929C80.1563 25.2652 80.5279 24.7964 81.044 24.4602C81.5601 24.1193 82.178 23.9489 82.8977 23.9489C83.6269 23.9489 84.2377 24.1193 84.7301 24.4602C85.2273 24.8011 85.5942 25.2699 85.831 25.8665H85.9446C86.205 25.2841 86.6193 24.8201 87.1875 24.4744C87.7557 24.1241 88.4328 23.9489 89.2188 23.9489C90.2083 23.9489 91.0156 24.259 91.6406 24.8793C92.2704 25.4995 92.5852 26.4347 92.5852 27.6847V35H90.4616V27.8835C90.4616 27.1449 90.2604 26.6098 89.858 26.2784C89.4555 25.947 88.9749 25.7812 88.4162 25.7812C87.7249 25.7812 87.1875 25.9943 86.804 26.4205C86.4205 26.8419 86.2287 27.384 86.2287 28.0469V35H84.1122V27.7486C84.1122 27.1567 83.9276 26.6809 83.5582 26.321C83.1889 25.9612 82.7083 25.7812 82.1165 25.7812C81.714 25.7812 81.3423 25.8878 81.0014 26.1009C80.6652 26.3092 80.393 26.6004 80.1847 26.9744C79.9811 27.3485 79.8793 27.7817 79.8793 28.2741V35H77.7557ZM100.133 35.2202C99.0584 35.2202 98.1327 34.9905 97.3562 34.5312C96.5844 34.0672 95.9878 33.4162 95.5664 32.5781C95.1497 31.7353 94.9414 30.7481 94.9414 29.6165C94.9414 28.4991 95.1497 27.5142 95.5664 26.6619C95.9878 25.8097 96.5749 25.1444 97.3278 24.6662C98.0853 24.188 98.9708 23.9489 99.984 23.9489C100.6 23.9489 101.196 24.0507 101.774 24.2543C102.351 24.4579 102.87 24.7775 103.329 25.2131C103.788 25.6487 104.151 26.2145 104.416 26.9105C104.681 27.6018 104.814 28.4422 104.814 29.4318V30.1847H96.1417V28.5938H102.733C102.733 28.035 102.619 27.5402 102.392 27.1094C102.164 26.6738 101.845 26.3305 101.433 26.0795C101.026 25.8286 100.547 25.7031 99.9982 25.7031C99.4016 25.7031 98.8808 25.8499 98.4357 26.1435C97.9954 26.4323 97.6545 26.8111 97.413 27.2798C97.1763 27.7438 97.0579 28.2481 97.0579 28.7926V30.0355C97.0579 30.7647 97.1857 31.3849 97.4414 31.8963C97.7018 32.4077 98.064 32.7983 98.5281 33.0682C98.9921 33.3333 99.5342 33.4659 100.154 33.4659C100.557 33.4659 100.924 33.4091 101.255 33.2955C101.587 33.1771 101.873 33.0019 102.115 32.7699C102.356 32.5379 102.541 32.2514 102.669 31.9105L104.679 32.2727C104.518 32.8646 104.229 33.383 103.812 33.8281C103.4 34.2685 102.882 34.6117 102.257 34.858C101.636 35.0994 100.929 35.2202 100.133 35.2202Z" fill="white"/>
<path d="M296.598 35V20.4545H305.717V22.3438H298.793V26.7756H305.241V28.6577H298.793V33.1108H305.803V35H296.598ZM308.478 35V24.0909H310.517V25.8665H310.652C310.879 25.2652 311.251 24.7964 311.767 24.4602C312.283 24.1193 312.901 23.9489 313.62 23.9489C314.35 23.9489 314.96 24.1193 315.453 24.4602C315.95 24.8011 316.317 25.2699 316.554 25.8665H316.667C316.928 25.2841 317.342 24.8201 317.91 24.4744C318.478 24.1241 319.155 23.9489 319.941 23.9489C320.931 23.9489 321.738 24.259 322.363 24.8793C322.993 25.4995 323.308 26.4347 323.308 27.6847V35H321.184V27.8835C321.184 27.1449 320.983 26.6098 320.581 26.2784C320.178 25.947 319.698 25.7812 319.139 25.7812C318.448 25.7812 317.91 25.9943 317.527 26.4205C317.143 26.8419 316.951 27.384 316.951 28.0469V35H314.835V27.7486C314.835 27.1567 314.65 26.6809 314.281 26.321C313.912 25.9612 313.431 25.7812 312.839 25.7812C312.437 25.7812 312.065 25.8878 311.724 26.1009C311.388 26.3092 311.116 26.6004 310.907 26.9744C310.704 27.3485 310.602 27.7817 310.602 28.2741V35H308.478ZM329.329 35.2415C328.638 35.2415 328.013 35.1136 327.454 34.858C326.895 34.5975 326.452 34.2211 326.126 33.7287C325.804 33.2363 325.643 32.6326 325.643 31.9176C325.643 31.3021 325.761 30.7955 325.998 30.3977C326.235 30 326.554 29.6851 326.957 29.4531C327.359 29.2211 327.809 29.0459 328.306 28.9276C328.803 28.8092 329.31 28.7192 329.826 28.6577C330.479 28.5819 331.01 28.5204 331.417 28.473C331.824 28.4209 332.12 28.3381 332.305 28.2244C332.489 28.1108 332.582 27.9261 332.582 27.6705V27.6207C332.582 27.0005 332.406 26.5199 332.056 26.179C331.71 25.8381 331.194 25.6676 330.508 25.6676C329.793 25.6676 329.229 25.8262 328.817 26.1435C328.41 26.456 328.129 26.804 327.972 27.1875L325.977 26.733C326.213 26.0701 326.559 25.535 327.013 25.1278C327.473 24.7159 328.001 24.4176 328.597 24.233C329.194 24.0436 329.821 23.9489 330.479 23.9489C330.915 23.9489 331.377 24.0009 331.864 24.1051C332.357 24.2045 332.816 24.3892 333.242 24.6591C333.673 24.929 334.026 25.3149 334.3 25.8168C334.575 26.3139 334.712 26.9602 334.712 27.7557V35H332.638V33.5085H332.553C332.416 33.7831 332.21 34.053 331.935 34.3182C331.661 34.5833 331.308 34.8035 330.877 34.9787C330.446 35.1539 329.93 35.2415 329.329 35.2415ZM329.79 33.5369C330.378 33.5369 330.879 33.4209 331.296 33.1889C331.718 32.9569 332.037 32.6539 332.255 32.2798C332.478 31.901 332.589 31.4962 332.589 31.0653V29.6591C332.513 29.7348 332.366 29.8059 332.148 29.8722C331.935 29.9337 331.692 29.9882 331.417 30.0355C331.142 30.0781 330.875 30.1184 330.614 30.1562C330.354 30.1894 330.136 30.2178 329.961 30.2415C329.549 30.2936 329.173 30.3812 328.832 30.5043C328.496 30.6274 328.226 30.8049 328.022 31.0369C327.823 31.2642 327.724 31.5672 327.724 31.946C327.724 32.4716 327.918 32.8693 328.306 33.1392C328.694 33.4044 329.189 33.5369 329.79 33.5369ZM337.541 35V24.0909H339.664V35H337.541ZM338.613 22.4077C338.244 22.4077 337.927 22.2846 337.662 22.0384C337.401 21.7874 337.271 21.4891 337.271 21.1435C337.271 20.7931 337.401 20.4948 337.662 20.2486C337.927 19.9976 338.244 19.8722 338.613 19.8722C338.983 19.8722 339.297 19.9976 339.558 20.2486C339.823 20.4948 339.956 20.7931 339.956 21.1435C339.956 21.4891 339.823 21.7874 339.558 22.0384C339.297 22.2846 338.983 22.4077 338.613 22.4077ZM344.645 20.4545V35H342.521V20.4545H344.645ZM354.194 35H351.864L357.099 20.4545H359.634L364.869 35H362.539L358.427 23.0966H358.313L354.194 35ZM354.585 29.304H362.141V31.1506H354.585V29.304ZM370.707 35.2131C369.826 35.2131 369.04 34.9882 368.349 34.5384C367.662 34.0838 367.122 33.4375 366.729 32.5994C366.341 31.7566 366.147 30.7457 366.147 29.5668C366.147 28.3878 366.344 27.3793 366.737 26.5412C367.134 25.7031 367.679 25.0616 368.37 24.6165C369.061 24.1714 369.845 23.9489 370.721 23.9489C371.398 23.9489 371.942 24.0625 372.354 24.2898C372.771 24.5123 373.093 24.7727 373.32 25.071C373.552 25.3693 373.732 25.6321 373.86 25.8594H373.988V20.4545H376.112V35H374.038V33.3026H373.86C373.732 33.5346 373.548 33.7997 373.306 34.098C373.069 34.3963 372.743 34.6567 372.326 34.8793C371.909 35.1018 371.37 35.2131 370.707 35.2131ZM371.175 33.402C371.786 33.402 372.302 33.241 372.724 32.919C373.15 32.5923 373.472 32.1402 373.69 31.5625C373.912 30.9848 374.023 30.3125 374.023 29.5455C374.023 28.7879 373.915 28.125 373.697 27.5568C373.479 26.9886 373.159 26.5459 372.738 26.2287C372.317 25.9115 371.796 25.7528 371.175 25.7528C370.536 25.7528 370.004 25.9186 369.577 26.25C369.151 26.5814 368.829 27.0336 368.612 27.6065C368.398 28.1795 368.292 28.8258 368.292 29.5455C368.292 30.2746 368.401 30.9304 368.619 31.5128C368.836 32.0952 369.158 32.5568 369.585 32.8977C370.015 33.2339 370.546 33.402 371.175 33.402ZM383.226 35.2131C382.346 35.2131 381.56 34.9882 380.868 34.5384C380.182 34.0838 379.642 33.4375 379.249 32.5994C378.861 31.7566 378.667 30.7457 378.667 29.5668C378.667 28.3878 378.863 27.3793 379.256 26.5412C379.654 25.7031 380.198 25.0616 380.89 24.6165C381.581 24.1714 382.364 23.9489 383.24 23.9489C383.917 23.9489 384.462 24.0625 384.874 24.2898C385.291 24.5123 385.613 24.7727 385.84 25.071C386.072 25.3693 386.252 25.6321 386.38 25.8594H386.507V20.4545H388.631V35H386.557V33.3026H386.38C386.252 33.5346 386.067 33.7997 385.826 34.098C385.589 34.3963 385.262 34.6567 384.846 34.8793C384.429 35.1018 383.889 35.2131 383.226 35.2131ZM383.695 33.402C384.306 33.402 384.822 33.241 385.243 32.919C385.669 32.5923 385.991 32.1402 386.209 31.5625C386.432 30.9848 386.543 30.3125 386.543 29.5455C386.543 28.7879 386.434 28.125 386.216 27.5568C385.998 26.9886 385.679 26.5459 385.257 26.2287C384.836 25.9115 384.315 25.7528 383.695 25.7528C383.056 25.7528 382.523 25.9186 382.097 26.25C381.671 26.5814 381.349 27.0336 381.131 27.6065C380.918 28.1795 380.811 28.8258 380.811 29.5455C380.811 30.2746 380.92 30.9304 381.138 31.5128C381.356 32.0952 381.678 32.5568 382.104 32.8977C382.535 33.2339 383.065 33.402 383.695 33.402ZM391.662 35V24.0909H393.714V25.8239H393.828C394.027 25.2367 394.377 24.7751 394.879 24.4389C395.386 24.098 395.959 23.9276 396.598 23.9276C396.731 23.9276 396.887 23.9323 397.067 23.9418C397.251 23.9512 397.396 23.9631 397.5 23.9773V26.0085C397.415 25.9848 397.263 25.9588 397.045 25.9304C396.828 25.8973 396.61 25.8807 396.392 25.8807C395.89 25.8807 395.443 25.9872 395.05 26.2003C394.661 26.4086 394.354 26.6998 394.126 27.0739C393.899 27.4432 393.786 27.8646 393.786 28.3381V35H391.662ZM403.649 35.2202C402.574 35.2202 401.648 34.9905 400.872 34.5312C400.1 34.0672 399.503 33.4162 399.082 32.5781C398.665 31.7353 398.457 30.7481 398.457 29.6165C398.457 28.4991 398.665 27.5142 399.082 26.6619C399.503 25.8097 400.091 25.1444 400.843 24.6662C401.601 24.188 402.486 23.9489 403.5 23.9489C404.115 23.9489 404.712 24.0507 405.289 24.2543C405.867 24.4579 406.386 24.7775 406.845 25.2131C407.304 25.6487 407.666 26.2145 407.931 26.9105C408.197 27.6018 408.329 28.4422 408.329 29.4318V30.1847H399.657V28.5938H406.248C406.248 28.035 406.135 27.5402 405.907 27.1094C405.68 26.6738 405.36 26.3305 404.949 26.0795C404.541 25.8286 404.063 25.7031 403.514 25.7031C402.917 25.7031 402.396 25.8499 401.951 26.1435C401.511 26.4323 401.17 26.8111 400.929 27.2798C400.692 27.7438 400.574 28.2481 400.574 28.7926V30.0355C400.574 30.7647 400.701 31.3849 400.957 31.8963C401.217 32.4077 401.58 32.7983 402.044 33.0682C402.508 33.3333 403.05 33.4659 403.67 33.4659C404.073 33.4659 404.44 33.4091 404.771 33.2955C405.102 33.1771 405.389 33.0019 405.63 32.7699C405.872 32.5379 406.056 32.2514 406.184 31.9105L408.194 32.2727C408.033 32.8646 407.744 33.383 407.328 33.8281C406.916 34.2685 406.397 34.6117 405.772 34.858C405.152 35.0994 404.444 35.2202 403.649 35.2202ZM418.86 26.7543L416.935 27.0952C416.855 26.849 416.727 26.6146 416.552 26.392C416.381 26.1695 416.149 25.9872 415.856 25.8452C415.562 25.7031 415.195 25.6321 414.755 25.6321C414.154 25.6321 413.652 25.767 413.249 26.0369C412.847 26.3021 412.646 26.6454 412.646 27.0668C412.646 27.4313 412.781 27.7249 413.05 27.9474C413.32 28.17 413.756 28.3523 414.357 28.4943L416.09 28.892C417.094 29.1241 417.842 29.4815 418.335 29.9645C418.827 30.4474 419.073 31.0748 419.073 31.8466C419.073 32.5 418.884 33.0824 418.505 33.5938C418.131 34.1004 417.608 34.4981 416.935 34.7869C416.268 35.0758 415.494 35.2202 414.613 35.2202C413.391 35.2202 412.395 34.9598 411.623 34.4389C410.851 33.9134 410.378 33.1676 410.202 32.2017L412.255 31.8892C412.383 32.4242 412.646 32.8291 413.043 33.1037C413.441 33.3736 413.96 33.5085 414.599 33.5085C415.295 33.5085 415.851 33.3641 416.268 33.0753C416.684 32.7817 416.893 32.4242 416.893 32.0028C416.893 31.6619 416.765 31.3755 416.509 31.1435C416.258 30.9115 415.872 30.7363 415.352 30.6179L413.505 30.2131C412.487 29.9811 411.734 29.6117 411.246 29.1051C410.763 28.5985 410.522 27.9569 410.522 27.1804C410.522 26.5365 410.702 25.973 411.062 25.4901C411.422 25.0071 411.919 24.6307 412.553 24.3608C413.188 24.0862 413.915 23.9489 414.734 23.9489C415.913 23.9489 416.841 24.2045 417.518 24.7159C418.195 25.2225 418.642 25.902 418.86 26.7543ZM429.583 26.7543L427.658 27.0952C427.578 26.849 427.45 26.6146 427.275 26.392C427.104 26.1695 426.872 25.9872 426.578 25.8452C426.285 25.7031 425.918 25.6321 425.478 25.6321C424.876 25.6321 424.374 25.767 423.972 26.0369C423.569 26.3021 423.368 26.6454 423.368 27.0668C423.368 27.4313 423.503 27.7249 423.773 27.9474C424.043 28.17 424.479 28.3523 425.08 28.4943L426.813 28.892C427.817 29.1241 428.565 29.4815 429.057 29.9645C429.55 30.4474 429.796 31.0748 429.796 31.8466C429.796 32.5 429.606 33.0824 429.228 33.5938C428.854 34.1004 428.33 34.4981 427.658 34.7869C426.99 35.0758 426.216 35.2202 425.336 35.2202C424.114 35.2202 423.117 34.9598 422.346 34.4389C421.574 33.9134 421.1 33.1676 420.925 32.2017L422.978 31.8892C423.105 32.4242 423.368 32.8291 423.766 33.1037C424.164 33.3736 424.682 33.5085 425.321 33.5085C426.017 33.5085 426.574 33.3641 426.99 33.0753C427.407 32.7817 427.615 32.4242 427.615 32.0028C427.615 31.6619 427.488 31.3755 427.232 31.1435C426.981 30.9115 426.595 30.7363 426.074 30.6179L424.228 30.2131C423.21 29.9811 422.457 29.6117 421.969 29.1051C421.486 28.5985 421.245 27.9569 421.245 27.1804C421.245 26.5365 421.425 25.973 421.784 25.4901C422.144 25.0071 422.641 24.6307 423.276 24.3608C423.91 24.0862 424.637 23.9489 425.456 23.9489C426.635 23.9489 427.563 24.2045 428.24 24.7159C428.917 25.2225 429.365 25.902 429.583 26.7543Z" fill="white"/>
</svg>
