<svg width="509" height="411" viewBox="0 0 509 411" fill="none" xmlns="http://www.w3.org/2000/svg">
<path d="M3.875 390V406H1.9375V390H3.875ZM12.8535 394V395.562H6.38477V394H12.8535ZM8.32227 406V392.344C8.32227 391.656 8.48372 391.083 8.80664 390.625C9.12956 390.167 9.54883 389.823 10.0645 389.594C10.5801 389.365 11.1243 389.25 11.6973 389.25C12.1504 389.25 12.5202 389.286 12.8066 389.359C13.0931 389.432 13.3066 389.5 13.4473 389.562L12.916 391.156C12.8223 391.125 12.6921 391.086 12.5254 391.039C12.3639 390.992 12.1504 390.969 11.8848 390.969C11.2754 390.969 10.8353 391.122 10.5645 391.43C10.2988 391.737 10.166 392.187 10.166 392.781V406H8.32227ZM22.8125 410.5C22.5 410.5 22.2214 410.474 21.9766 410.422C21.7318 410.375 21.5625 410.328 21.4688 410.281L21.9375 408.656C22.3854 408.771 22.7813 408.813 23.125 408.781C23.4688 408.75 23.7734 408.596 24.0391 408.32C24.3099 408.049 24.5573 407.609 24.7813 407L25.125 406.063L20.6875 394H22.6875L26 403.562H26.125L29.4375 394H31.4375L26.3438 407.75C26.1146 408.37 25.8307 408.883 25.4922 409.289C25.1536 409.701 24.7604 410.005 24.3125 410.203C23.8698 410.401 23.3698 410.5 22.8125 410.5ZM38.3164 406.25C37.2331 406.25 36.2826 405.992 35.4648 405.477C34.6523 404.961 34.0169 404.24 33.5586 403.312C33.1055 402.385 32.8789 401.302 32.8789 400.062C32.8789 398.812 33.1055 397.721 33.5586 396.789C34.0169 395.857 34.6523 395.133 35.4648 394.617C36.2826 394.102 37.2331 393.844 38.3164 393.844C39.3997 393.844 40.3477 394.102 41.1602 394.617C41.9779 395.133 42.6133 395.857 43.0664 396.789C43.5247 397.721 43.7539 398.812 43.7539 400.062C43.7539 401.302 43.5247 402.385 43.0664 403.312C42.6133 404.24 41.9779 404.961 41.1602 405.477C40.3477 405.992 39.3997 406.25 38.3164 406.25ZM38.3164 404.594C39.1393 404.594 39.8164 404.383 40.3477 403.961C40.8789 403.539 41.2721 402.984 41.5273 402.297C41.7826 401.609 41.9102 400.865 41.9102 400.062C41.9102 399.26 41.7826 398.513 41.5273 397.82C41.2721 397.128 40.8789 396.568 40.3477 396.141C39.8164 395.714 39.1393 395.5 38.3164 395.5C37.4935 395.5 36.8164 395.714 36.2852 396.141C35.7539 396.568 35.3607 397.128 35.1055 397.82C34.8503 398.513 34.7227 399.26 34.7227 400.062C34.7227 400.865 34.8503 401.609 35.1055 402.297C35.3607 402.984 35.7539 403.539 36.2852 403.961C36.8164 404.383 37.4935 404.594 38.3164 404.594ZM54.1309 401.094V394H55.9746V406H54.1309V403.969H54.0059C53.7246 404.578 53.2871 405.096 52.6934 405.523C52.0996 405.945 51.3496 406.156 50.4434 406.156C49.6934 406.156 49.0267 405.992 48.4434 405.664C47.86 405.331 47.4017 404.831 47.0684 404.164C46.735 403.492 46.5684 402.646 46.5684 401.625V394H48.4121V401.5C48.4121 402.375 48.6569 403.073 49.1465 403.594C49.6413 404.115 50.2715 404.375 51.0371 404.375C51.4954 404.375 51.9616 404.258 52.4355 404.023C52.9147 403.789 53.3158 403.43 53.6387 402.945C53.9668 402.461 54.1309 401.844 54.1309 401.094ZM70.0703 406.25C69.0703 406.25 68.1875 405.997 67.4219 405.492C66.6563 404.982 66.0573 404.263 65.625 403.336C65.1927 402.404 64.9766 401.302 64.9766 400.031C64.9766 398.771 65.1927 397.677 65.625 396.75C66.0573 395.823 66.6589 395.107 67.4297 394.602C68.2005 394.096 69.0911 393.844 70.1016 393.844C70.8828 393.844 71.5 393.974 71.9531 394.234C72.4115 394.49 72.7604 394.781 73 395.109C73.2448 395.432 73.4349 395.698 73.5703 395.906H73.7266V390H75.5703V406H73.7891V404.156H73.5703C73.4349 404.375 73.2422 404.651 72.9922 404.984C72.7422 405.312 72.3854 405.607 71.9219 405.867C71.4583 406.122 70.8411 406.25 70.0703 406.25ZM70.3203 404.594C71.0599 404.594 71.6849 404.401 72.1953 404.016C72.7057 403.625 73.0938 403.086 73.3594 402.398C73.625 401.706 73.7578 400.906 73.7578 400C73.7578 399.104 73.6276 398.32 73.3672 397.648C73.1068 396.971 72.7214 396.445 72.2109 396.07C71.7005 395.69 71.0703 395.5 70.3203 395.5C69.5391 395.5 68.888 395.701 68.3672 396.102C67.8516 396.497 67.4635 397.036 67.2031 397.719C66.9479 398.396 66.8203 399.156 66.8203 400C66.8203 400.854 66.9505 401.63 67.2109 402.328C67.4766 403.021 67.8672 403.573 68.3828 403.984C68.9036 404.391 69.5495 404.594 70.3203 404.594ZM84.0781 406.25C82.9948 406.25 82.0443 405.992 81.2266 405.477C80.4141 404.961 79.7786 404.24 79.3203 403.312C78.8672 402.385 78.6406 401.302 78.6406 400.062C78.6406 398.812 78.8672 397.721 79.3203 396.789C79.7786 395.857 80.4141 395.133 81.2266 394.617C82.0443 394.102 82.9948 393.844 84.0781 393.844C85.1615 393.844 86.1094 394.102 86.9219 394.617C87.7396 395.133 88.375 395.857 88.8281 396.789C89.2865 397.721 89.5156 398.812 89.5156 400.062C89.5156 401.302 89.2865 402.385 88.8281 403.312C88.375 404.24 87.7396 404.961 86.9219 405.477C86.1094 405.992 85.1615 406.25 84.0781 406.25ZM84.0781 404.594C84.901 404.594 85.5781 404.383 86.1094 403.961C86.6406 403.539 87.0339 402.984 87.2891 402.297C87.5443 401.609 87.6719 400.865 87.6719 400.062C87.6719 399.26 87.5443 398.513 87.2891 397.82C87.0339 397.128 86.6406 396.568 86.1094 396.141C85.5781 395.714 84.901 395.5 84.0781 395.5C83.2552 395.5 82.5781 395.714 82.0469 396.141C81.5156 396.568 81.1224 397.128 80.8672 397.82C80.612 398.513 80.4844 399.26 80.4844 400.062C80.4844 400.865 80.612 401.609 80.8672 402.297C81.1224 402.984 81.5156 403.539 82.0469 403.961C82.5781 404.383 83.2552 404.594 84.0781 404.594ZM94.1738 398.781V406H92.3301V394H94.1113V395.875H94.2676C94.5488 395.266 94.9759 394.776 95.5488 394.406C96.1217 394.031 96.8613 393.844 97.7676 393.844C98.5801 393.844 99.291 394.01 99.9004 394.344C100.51 394.672 100.984 395.172 101.322 395.844C101.661 396.51 101.83 397.354 101.83 398.375V406H99.9863V398.5C99.9863 397.557 99.7415 396.823 99.252 396.297C98.7624 395.766 98.0905 395.5 97.2363 395.5C96.6478 395.5 96.1217 395.628 95.6582 395.883C95.1999 396.138 94.8379 396.51 94.5723 397C94.3066 397.49 94.1738 398.083 94.1738 398.781ZM106.793 390V395.5H105.074V390H106.793ZM115.295 394V395.562H109.076V394H115.295ZM110.889 391.125H112.732V402.562C112.732 403.083 112.808 403.474 112.959 403.734C113.115 403.99 113.313 404.161 113.553 404.25C113.798 404.333 114.055 404.375 114.326 404.375C114.529 404.375 114.696 404.365 114.826 404.344C114.956 404.318 115.061 404.297 115.139 404.281L115.514 405.937C115.389 405.984 115.214 406.031 114.99 406.078C114.766 406.13 114.482 406.156 114.139 406.156C113.618 406.156 113.107 406.044 112.607 405.82C112.113 405.596 111.701 405.255 111.373 404.797C111.05 404.339 110.889 403.76 110.889 403.062V391.125ZM126.1 398.781V406H124.256V390H126.1V395.875H126.256C126.537 395.255 126.959 394.763 127.521 394.398C128.089 394.029 128.844 393.844 129.787 393.844C130.605 393.844 131.321 394.008 131.936 394.336C132.55 394.659 133.027 395.156 133.365 395.828C133.709 396.495 133.881 397.344 133.881 398.375V406H132.037V398.5C132.037 397.547 131.79 396.81 131.295 396.289C130.805 395.763 130.126 395.5 129.256 395.5C128.652 395.5 128.11 395.628 127.631 395.883C127.157 396.138 126.782 396.51 126.506 397C126.235 397.49 126.1 398.083 126.1 398.781ZM140.785 406.281C140.025 406.281 139.335 406.138 138.715 405.852C138.095 405.56 137.603 405.141 137.238 404.594C136.874 404.042 136.691 403.375 136.691 402.594C136.691 401.906 136.827 401.349 137.098 400.922C137.368 400.49 137.73 400.151 138.184 399.906C138.637 399.661 139.137 399.479 139.684 399.359C140.236 399.234 140.79 399.135 141.348 399.063C142.077 398.969 142.668 398.898 143.121 398.852C143.579 398.799 143.913 398.714 144.121 398.594C144.335 398.474 144.441 398.266 144.441 397.969V397.906C144.441 397.135 144.23 396.536 143.809 396.109C143.392 395.682 142.759 395.469 141.91 395.469C141.03 395.469 140.34 395.661 139.84 396.047C139.34 396.432 138.988 396.844 138.785 397.281L137.035 396.656C137.348 395.927 137.764 395.359 138.285 394.953C138.811 394.542 139.384 394.255 140.004 394.094C140.629 393.927 141.243 393.844 141.848 393.844C142.233 393.844 142.676 393.891 143.176 393.984C143.681 394.073 144.168 394.258 144.637 394.539C145.111 394.82 145.504 395.245 145.816 395.812C146.129 396.38 146.285 397.141 146.285 398.094V406H144.441V404.375H144.348C144.223 404.635 144.014 404.914 143.723 405.211C143.431 405.508 143.043 405.76 142.559 405.969C142.074 406.177 141.483 406.281 140.785 406.281ZM141.066 404.625C141.796 404.625 142.41 404.482 142.91 404.195C143.415 403.909 143.796 403.539 144.051 403.086C144.311 402.633 144.441 402.156 144.441 401.656V399.969C144.363 400.062 144.191 400.148 143.926 400.227C143.665 400.299 143.363 400.365 143.02 400.422C142.681 400.474 142.35 400.521 142.027 400.562C141.71 400.599 141.452 400.63 141.254 400.656C140.775 400.719 140.327 400.82 139.91 400.961C139.499 401.096 139.165 401.302 138.91 401.578C138.66 401.849 138.535 402.219 138.535 402.687C138.535 403.328 138.772 403.812 139.246 404.141C139.725 404.464 140.332 404.625 141.066 404.625ZM159.033 394L154.596 406H152.721L148.283 394H150.283L153.596 403.562H153.721L157.033 394H159.033ZM166.068 406.25C164.912 406.25 163.915 405.995 163.076 405.484C162.243 404.969 161.6 404.25 161.146 403.328C160.699 402.401 160.475 401.323 160.475 400.094C160.475 398.865 160.699 397.781 161.146 396.844C161.6 395.901 162.23 395.167 163.037 394.641C163.85 394.109 164.798 393.844 165.881 393.844C166.506 393.844 167.123 393.948 167.732 394.156C168.342 394.365 168.896 394.703 169.396 395.172C169.896 395.635 170.295 396.25 170.592 397.016C170.889 397.781 171.037 398.724 171.037 399.844V400.625H161.787V399.031H169.162C169.162 398.354 169.027 397.75 168.756 397.219C168.49 396.687 168.11 396.268 167.615 395.961C167.126 395.654 166.548 395.5 165.881 395.5C165.146 395.5 164.511 395.682 163.975 396.047C163.443 396.406 163.035 396.875 162.748 397.453C162.462 398.031 162.318 398.651 162.318 399.312V400.375C162.318 401.281 162.475 402.049 162.787 402.68C163.105 403.305 163.545 403.781 164.107 404.109C164.67 404.432 165.324 404.594 166.068 404.594C166.553 404.594 166.99 404.526 167.381 404.391C167.777 404.25 168.118 404.042 168.404 403.766C168.691 403.484 168.912 403.135 169.068 402.719L170.85 403.219C170.662 403.823 170.347 404.354 169.904 404.812C169.462 405.266 168.915 405.62 168.264 405.875C167.613 406.125 166.881 406.25 166.068 406.25ZM183.561 406.281C182.8 406.281 182.11 406.138 181.49 405.852C180.87 405.56 180.378 405.141 180.014 404.594C179.649 404.042 179.467 403.375 179.467 402.594C179.467 401.906 179.602 401.349 179.873 400.922C180.144 400.49 180.506 400.151 180.959 399.906C181.412 399.661 181.912 399.479 182.459 399.359C183.011 399.234 183.566 399.135 184.123 399.063C184.852 398.969 185.443 398.898 185.896 398.852C186.355 398.799 186.688 398.714 186.896 398.594C187.11 398.474 187.217 398.266 187.217 397.969V397.906C187.217 397.135 187.006 396.536 186.584 396.109C186.167 395.682 185.535 395.469 184.686 395.469C183.805 395.469 183.115 395.661 182.615 396.047C182.115 396.432 181.764 396.844 181.561 397.281L179.811 396.656C180.123 395.927 180.54 395.359 181.061 394.953C181.587 394.542 182.16 394.255 182.779 394.094C183.404 393.927 184.019 393.844 184.623 393.844C185.008 393.844 185.451 393.891 185.951 393.984C186.456 394.073 186.943 394.258 187.412 394.539C187.886 394.82 188.279 395.245 188.592 395.812C188.904 396.38 189.061 397.141 189.061 398.094V406H187.217V404.375H187.123C186.998 404.635 186.79 404.914 186.498 405.211C186.206 405.508 185.818 405.76 185.334 405.969C184.85 406.177 184.258 406.281 183.561 406.281ZM183.842 404.625C184.571 404.625 185.186 404.482 185.686 404.195C186.191 403.909 186.571 403.539 186.826 403.086C187.087 402.633 187.217 402.156 187.217 401.656V399.969C187.139 400.062 186.967 400.148 186.701 400.227C186.441 400.299 186.139 400.365 185.795 400.422C185.456 400.474 185.126 400.521 184.803 400.562C184.485 400.599 184.227 400.63 184.029 400.656C183.55 400.719 183.102 400.82 182.686 400.961C182.274 401.096 181.941 401.302 181.686 401.578C181.436 401.849 181.311 402.219 181.311 402.687C181.311 403.328 181.548 403.812 182.021 404.141C182.501 404.464 183.107 404.625 183.842 404.625ZM203.957 394V395.562H197.488V394H203.957ZM199.426 406V392.344C199.426 391.656 199.587 391.083 199.91 390.625C200.233 390.167 200.652 389.823 201.168 389.594C201.684 389.365 202.228 389.25 202.801 389.25C203.254 389.25 203.624 389.286 203.91 389.359C204.197 389.432 204.41 389.5 204.551 389.562L204.02 391.156C203.926 391.125 203.796 391.086 203.629 391.039C203.467 390.992 203.254 390.969 202.988 390.969C202.379 390.969 201.939 391.122 201.668 391.43C201.402 391.737 201.27 392.187 201.27 392.781V406H199.426ZM210.922 406.25C209.839 406.25 208.888 405.992 208.07 405.477C207.258 404.961 206.622 404.24 206.164 403.312C205.711 402.385 205.484 401.302 205.484 400.062C205.484 398.812 205.711 397.721 206.164 396.789C206.622 395.857 207.258 395.133 208.07 394.617C208.888 394.102 209.839 393.844 210.922 393.844C212.005 393.844 212.953 394.102 213.766 394.617C214.583 395.133 215.219 395.857 215.672 396.789C216.13 397.721 216.359 398.812 216.359 400.062C216.359 401.302 216.13 402.385 215.672 403.312C215.219 404.24 214.583 404.961 213.766 405.477C212.953 405.992 212.005 406.25 210.922 406.25ZM210.922 404.594C211.745 404.594 212.422 404.383 212.953 403.961C213.484 403.539 213.878 402.984 214.133 402.297C214.388 401.609 214.516 400.865 214.516 400.062C214.516 399.26 214.388 398.513 214.133 397.82C213.878 397.128 213.484 396.568 212.953 396.141C212.422 395.714 211.745 395.5 210.922 395.5C210.099 395.5 209.422 395.714 208.891 396.141C208.359 396.568 207.966 397.128 207.711 397.82C207.456 398.513 207.328 399.26 207.328 400.062C207.328 400.865 207.456 401.609 207.711 402.297C207.966 402.984 208.359 403.539 208.891 403.961C209.422 404.383 210.099 404.594 210.922 404.594ZM219.174 406V394H220.955V395.812H221.08C221.299 395.219 221.695 394.737 222.268 394.367C222.84 393.997 223.486 393.812 224.205 393.812C224.34 393.812 224.51 393.815 224.713 393.82C224.916 393.826 225.07 393.833 225.174 393.844V395.719C225.111 395.703 224.968 395.68 224.744 395.648C224.525 395.612 224.294 395.594 224.049 395.594C223.465 395.594 222.945 395.716 222.486 395.961C222.033 396.201 221.674 396.534 221.408 396.961C221.148 397.383 221.018 397.865 221.018 398.406V406H219.174ZM227.359 406V394H229.141V395.875H229.297C229.547 395.234 229.951 394.737 230.508 394.383C231.065 394.023 231.734 393.844 232.516 393.844C233.307 393.844 233.966 394.023 234.492 394.383C235.023 394.737 235.438 395.234 235.734 395.875H235.859C236.167 395.255 236.628 394.763 237.242 394.398C237.857 394.029 238.594 393.844 239.453 393.844C240.526 393.844 241.404 394.18 242.086 394.852C242.768 395.518 243.109 396.557 243.109 397.969V406H241.266V397.969C241.266 397.083 241.023 396.451 240.539 396.07C240.055 395.69 239.484 395.5 238.828 395.5C237.984 395.5 237.331 395.755 236.867 396.266C236.404 396.771 236.172 397.411 236.172 398.187V406H234.297V397.781C234.297 397.099 234.076 396.549 233.633 396.133C233.19 395.711 232.62 395.5 231.922 395.5C231.443 395.5 230.995 395.628 230.578 395.883C230.167 396.138 229.833 396.492 229.578 396.945C229.328 397.393 229.203 397.911 229.203 398.5V406H227.359ZM249.23 403.812L249.105 404.656C249.017 405.25 248.882 405.885 248.699 406.563C248.522 407.24 248.337 407.878 248.145 408.477C247.952 409.076 247.793 409.552 247.668 409.906H246.262C246.329 409.573 246.418 409.133 246.527 408.586C246.637 408.039 246.746 407.427 246.855 406.75C246.97 406.078 247.064 405.391 247.137 404.687L247.23 403.812H249.23ZM263.709 406.25C262.584 406.25 261.615 405.984 260.803 405.453C259.99 404.922 259.365 404.19 258.928 403.258C258.49 402.326 258.271 401.26 258.271 400.062C258.271 398.844 258.495 397.768 258.943 396.836C259.396 395.898 260.027 395.167 260.834 394.641C261.646 394.109 262.594 393.844 263.678 393.844C264.521 393.844 265.282 394 265.959 394.312C266.636 394.625 267.191 395.062 267.623 395.625C268.055 396.187 268.324 396.844 268.428 397.594H266.584C266.443 397.047 266.131 396.562 265.646 396.141C265.167 395.714 264.521 395.5 263.709 395.5C262.99 395.5 262.36 395.687 261.818 396.062C261.282 396.432 260.863 396.956 260.561 397.633C260.264 398.305 260.115 399.094 260.115 400C260.115 400.927 260.261 401.734 260.553 402.422C260.85 403.109 261.266 403.643 261.803 404.023C262.344 404.404 262.98 404.594 263.709 404.594C264.188 404.594 264.623 404.51 265.014 404.344C265.404 404.177 265.735 403.938 266.006 403.625C266.277 403.312 266.469 402.937 266.584 402.5H268.428C268.324 403.208 268.066 403.846 267.654 404.414C267.248 404.977 266.709 405.424 266.037 405.758C265.37 406.086 264.594 406.25 263.709 406.25ZM272.967 390V406H271.123V390H272.967ZM276.344 406V394H278.188V406H276.344ZM277.281 392C276.922 392 276.612 391.878 276.352 391.633C276.096 391.388 275.969 391.094 275.969 390.75C275.969 390.406 276.096 390.112 276.352 389.867C276.612 389.622 276.922 389.5 277.281 389.5C277.641 389.5 277.948 389.622 278.203 389.867C278.464 390.112 278.594 390.406 278.594 390.75C278.594 391.094 278.464 391.388 278.203 391.633C277.948 391.878 277.641 392 277.281 392ZM286.439 406.25C285.314 406.25 284.346 405.984 283.533 405.453C282.721 404.922 282.096 404.19 281.658 403.258C281.221 402.326 281.002 401.26 281.002 400.062C281.002 398.844 281.226 397.768 281.674 396.836C282.127 395.898 282.757 395.167 283.564 394.641C284.377 394.109 285.325 393.844 286.408 393.844C287.252 393.844 288.012 394 288.689 394.312C289.367 394.625 289.921 395.062 290.354 395.625C290.786 396.187 291.054 396.844 291.158 397.594H289.314C289.174 397.047 288.861 396.562 288.377 396.141C287.898 395.714 287.252 395.5 286.439 395.5C285.721 395.5 285.09 395.687 284.549 396.062C284.012 396.432 283.593 396.956 283.291 397.633C282.994 398.305 282.846 399.094 282.846 400C282.846 400.927 282.992 401.734 283.283 402.422C283.58 403.109 283.997 403.643 284.533 404.023C285.075 404.404 285.71 404.594 286.439 404.594C286.919 404.594 287.354 404.51 287.744 404.344C288.135 404.177 288.465 403.938 288.736 403.625C289.007 403.312 289.2 402.937 289.314 402.5H291.158C291.054 403.208 290.796 403.846 290.385 404.414C289.979 404.977 289.439 405.424 288.768 405.758C288.101 406.086 287.325 406.25 286.439 406.25ZM295.572 401.625L295.541 399.344H295.916L301.166 394H303.447L297.854 399.656H297.697L295.572 401.625ZM293.854 406V390H295.697V406H293.854ZM301.479 406L296.791 400.062L298.104 398.781L303.822 406H301.479ZM316.883 406.25C315.799 406.25 314.849 405.992 314.031 405.477C313.219 404.961 312.583 404.24 312.125 403.312C311.672 402.385 311.445 401.302 311.445 400.062C311.445 398.812 311.672 397.721 312.125 396.789C312.583 395.857 313.219 395.133 314.031 394.617C314.849 394.102 315.799 393.844 316.883 393.844C317.966 393.844 318.914 394.102 319.727 394.617C320.544 395.133 321.18 395.857 321.633 396.789C322.091 397.721 322.32 398.812 322.32 400.062C322.32 401.302 322.091 402.385 321.633 403.312C321.18 404.24 320.544 404.961 319.727 405.477C318.914 405.992 317.966 406.25 316.883 406.25ZM316.883 404.594C317.706 404.594 318.383 404.383 318.914 403.961C319.445 403.539 319.839 402.984 320.094 402.297C320.349 401.609 320.477 400.865 320.477 400.062C320.477 399.26 320.349 398.513 320.094 397.82C319.839 397.128 319.445 396.568 318.914 396.141C318.383 395.714 317.706 395.5 316.883 395.5C316.06 395.5 315.383 395.714 314.852 396.141C314.32 396.568 313.927 397.128 313.672 397.82C313.417 398.513 313.289 399.26 313.289 400.062C313.289 400.865 313.417 401.609 313.672 402.297C313.927 402.984 314.32 403.539 314.852 403.961C315.383 404.383 316.06 404.594 316.883 404.594ZM326.979 398.781V406H325.135V394H326.916V395.875H327.072C327.354 395.266 327.781 394.776 328.354 394.406C328.926 394.031 329.666 393.844 330.572 393.844C331.385 393.844 332.096 394.01 332.705 394.344C333.314 394.672 333.788 395.172 334.127 395.844C334.465 396.51 334.635 397.354 334.635 398.375V406H332.791V398.5C332.791 397.557 332.546 396.823 332.057 396.297C331.567 395.766 330.895 395.5 330.041 395.5C329.452 395.5 328.926 395.628 328.463 395.883C328.005 396.138 327.643 396.51 327.377 397C327.111 397.49 326.979 398.083 326.979 398.781ZM345.785 390V395.5H344.066V390H345.785ZM349.785 390V395.5H348.066V390H349.785ZM352.23 406H350.199L356.074 390H358.074L363.949 406H361.918L357.137 392.531H357.012L352.23 406ZM352.98 399.75H361.168V401.469H352.98V399.75ZM370.723 406.25C369.723 406.25 368.84 405.997 368.074 405.492C367.309 404.982 366.71 404.263 366.277 403.336C365.845 402.404 365.629 401.302 365.629 400.031C365.629 398.771 365.845 397.677 366.277 396.75C366.71 395.823 367.311 395.107 368.082 394.602C368.853 394.096 369.743 393.844 370.754 393.844C371.535 393.844 372.152 393.974 372.605 394.234C373.064 394.49 373.413 394.781 373.652 395.109C373.897 395.432 374.087 395.698 374.223 395.906H374.379V390H376.223V406H374.441V404.156H374.223C374.087 404.375 373.895 404.651 373.645 404.984C373.395 405.312 373.038 405.607 372.574 405.867C372.111 406.122 371.493 406.25 370.723 406.25ZM370.973 404.594C371.712 404.594 372.337 404.401 372.848 404.016C373.358 403.625 373.746 403.086 374.012 402.398C374.277 401.706 374.41 400.906 374.41 400C374.41 399.104 374.28 398.32 374.02 397.648C373.759 396.971 373.374 396.445 372.863 396.07C372.353 395.69 371.723 395.5 370.973 395.5C370.191 395.5 369.54 395.701 369.02 396.102C368.504 396.497 368.116 397.036 367.855 397.719C367.6 398.396 367.473 399.156 367.473 400C367.473 400.854 367.603 401.63 367.863 402.328C368.129 403.021 368.52 403.573 369.035 403.984C369.556 404.391 370.202 404.594 370.973 404.594ZM384.387 406.25C383.387 406.25 382.504 405.997 381.738 405.492C380.973 404.982 380.374 404.263 379.941 403.336C379.509 402.404 379.293 401.302 379.293 400.031C379.293 398.771 379.509 397.677 379.941 396.75C380.374 395.823 380.975 395.107 381.746 394.602C382.517 394.096 383.408 393.844 384.418 393.844C385.199 393.844 385.816 393.974 386.27 394.234C386.728 394.49 387.077 394.781 387.316 395.109C387.561 395.432 387.751 395.698 387.887 395.906H388.043V390H389.887V406H388.105V404.156H387.887C387.751 404.375 387.559 404.651 387.309 404.984C387.059 405.312 386.702 405.607 386.238 405.867C385.775 406.122 385.158 406.25 384.387 406.25ZM384.637 404.594C385.376 404.594 386.001 404.401 386.512 404.016C387.022 403.625 387.41 403.086 387.676 402.398C387.941 401.706 388.074 400.906 388.074 400C388.074 399.104 387.944 398.32 387.684 397.648C387.423 396.971 387.038 396.445 386.527 396.07C386.017 395.69 385.387 395.5 384.637 395.5C383.855 395.5 383.204 395.701 382.684 396.102C382.168 396.497 381.78 397.036 381.52 397.719C381.264 398.396 381.137 399.156 381.137 400C381.137 400.854 381.267 401.63 381.527 402.328C381.793 403.021 382.184 403.573 382.699 403.984C383.22 404.391 383.866 404.594 384.637 404.594ZM401.551 398.781V406H399.707V394H401.488V395.875H401.645C401.926 395.266 402.353 394.776 402.926 394.406C403.499 394.031 404.238 393.844 405.145 393.844C405.957 393.844 406.668 394.01 407.277 394.344C407.887 394.672 408.361 395.172 408.699 395.844C409.038 396.51 409.207 397.354 409.207 398.375V406H407.363V398.5C407.363 397.557 407.118 396.823 406.629 396.297C406.139 395.766 405.467 395.5 404.613 395.5C404.025 395.5 403.499 395.628 403.035 395.883C402.577 396.138 402.215 396.51 401.949 397C401.684 397.49 401.551 398.083 401.551 398.781ZM417.607 406.25C416.451 406.25 415.454 405.995 414.615 405.484C413.782 404.969 413.139 404.25 412.686 403.328C412.238 402.401 412.014 401.323 412.014 400.094C412.014 398.865 412.238 397.781 412.686 396.844C413.139 395.901 413.769 395.167 414.576 394.641C415.389 394.109 416.337 393.844 417.42 393.844C418.045 393.844 418.662 393.948 419.271 394.156C419.881 394.365 420.436 394.703 420.936 395.172C421.436 395.635 421.834 396.25 422.131 397.016C422.428 397.781 422.576 398.724 422.576 399.844V400.625H413.326V399.031H420.701C420.701 398.354 420.566 397.75 420.295 397.219C420.029 396.687 419.649 396.268 419.154 395.961C418.665 395.654 418.087 395.5 417.42 395.5C416.686 395.5 416.05 395.682 415.514 396.047C414.982 396.406 414.574 396.875 414.287 397.453C414.001 398.031 413.857 398.651 413.857 399.312V400.375C413.857 401.281 414.014 402.049 414.326 402.68C414.644 403.305 415.084 403.781 415.646 404.109C416.209 404.432 416.863 404.594 417.607 404.594C418.092 404.594 418.529 404.526 418.92 404.391C419.316 404.25 419.657 404.042 419.943 403.766C420.23 403.484 420.451 403.135 420.607 402.719L422.389 403.219C422.201 403.823 421.886 404.354 421.443 404.812C421.001 405.266 420.454 405.62 419.803 405.875C419.152 406.125 418.42 406.25 417.607 406.25ZM428.1 406L424.443 394H426.381L428.975 403.188H429.1L431.662 394H433.631L436.162 403.156H436.287L438.881 394H440.818L437.162 406H435.35L432.725 396.781H432.537L429.912 406H428.1ZM454.787 394V395.562H448.318V394H454.787ZM450.256 406V392.344C450.256 391.656 450.417 391.083 450.74 390.625C451.063 390.167 451.482 389.823 451.998 389.594C452.514 389.365 453.058 389.25 453.631 389.25C454.084 389.25 454.454 389.286 454.74 389.359C455.027 389.432 455.24 389.5 455.381 389.562L454.85 391.156C454.756 391.125 454.626 391.086 454.459 391.039C454.298 390.992 454.084 390.969 453.818 390.969C453.209 390.969 452.769 391.122 452.498 391.43C452.232 391.737 452.1 392.187 452.1 392.781V406H450.256ZM461.752 406.25C460.669 406.25 459.718 405.992 458.9 405.477C458.088 404.961 457.452 404.24 456.994 403.312C456.541 402.385 456.314 401.302 456.314 400.062C456.314 398.812 456.541 397.721 456.994 396.789C457.452 395.857 458.088 395.133 458.9 394.617C459.718 394.102 460.669 393.844 461.752 393.844C462.835 393.844 463.783 394.102 464.596 394.617C465.413 395.133 466.049 395.857 466.502 396.789C466.96 397.721 467.189 398.812 467.189 400.062C467.189 401.302 466.96 402.385 466.502 403.312C466.049 404.24 465.413 404.961 464.596 405.477C463.783 405.992 462.835 406.25 461.752 406.25ZM461.752 404.594C462.575 404.594 463.252 404.383 463.783 403.961C464.314 403.539 464.708 402.984 464.963 402.297C465.218 401.609 465.346 400.865 465.346 400.062C465.346 399.26 465.218 398.513 464.963 397.82C464.708 397.128 464.314 396.568 463.783 396.141C463.252 395.714 462.575 395.5 461.752 395.5C460.929 395.5 460.252 395.714 459.721 396.141C459.189 396.568 458.796 397.128 458.541 397.82C458.286 398.513 458.158 399.26 458.158 400.062C458.158 400.865 458.286 401.609 458.541 402.297C458.796 402.984 459.189 403.539 459.721 403.961C460.252 404.383 460.929 404.594 461.752 404.594ZM470.004 406V394H471.785V395.812H471.91C472.129 395.219 472.525 394.737 473.098 394.367C473.671 393.997 474.316 393.812 475.035 393.812C475.171 393.812 475.34 393.815 475.543 393.82C475.746 393.826 475.9 393.833 476.004 393.844V395.719C475.941 395.703 475.798 395.68 475.574 395.648C475.355 395.612 475.124 395.594 474.879 395.594C474.296 395.594 473.775 395.716 473.316 395.961C472.863 396.201 472.504 396.534 472.238 396.961C471.978 397.383 471.848 397.865 471.848 398.406V406H470.004ZM478.189 406V394H479.971V395.875H480.127C480.377 395.234 480.781 394.737 481.338 394.383C481.895 394.023 482.564 393.844 483.346 393.844C484.137 393.844 484.796 394.023 485.322 394.383C485.854 394.737 486.268 395.234 486.564 395.875H486.689C486.997 395.255 487.458 394.763 488.072 394.398C488.687 394.029 489.424 393.844 490.283 393.844C491.356 393.844 492.234 394.18 492.916 394.852C493.598 395.518 493.939 396.557 493.939 397.969V406H492.096V397.969C492.096 397.083 491.854 396.451 491.369 396.07C490.885 395.69 490.314 395.5 489.658 395.5C488.814 395.5 488.161 395.755 487.697 396.266C487.234 396.771 487.002 397.411 487.002 398.187V406H485.127V397.781C485.127 397.099 484.906 396.549 484.463 396.133C484.02 395.711 483.45 395.5 482.752 395.5C482.273 395.5 481.825 395.628 481.408 395.883C480.997 396.138 480.663 396.492 480.408 396.945C480.158 397.393 480.033 397.911 480.033 398.5V406H478.189ZM498.904 390V395.5H497.186V390H498.904ZM502.904 390V395.5H501.186V390H502.904ZM505.723 406.125C505.337 406.125 505.007 405.987 504.73 405.711C504.454 405.435 504.316 405.104 504.316 404.719C504.316 404.333 504.454 404.003 504.73 403.727C505.007 403.451 505.337 403.312 505.723 403.312C506.108 403.312 506.439 403.451 506.715 403.727C506.991 404.003 507.129 404.333 507.129 404.719C507.129 404.974 507.064 405.208 506.934 405.422C506.809 405.635 506.639 405.807 506.426 405.937C506.217 406.063 505.983 406.125 505.723 406.125Z" fill="#A8A8A8"/>
<g clip-path="url(#clip0_56_809)">
<path d="M158.726 89.0958L76.6152 144.02L157.497 264.935L239.607 210.011L158.726 89.0958Z" fill="#F5F5F5"/>
<path d="M197.18 204.304L196.229 210.011L155.471 204.157L156.349 198.377L197.18 204.304Z" fill="#727272"/>
<path d="M176.619 183.669L182.473 184.547L176.034 224.719L170.18 223.914L176.619 183.669Z" fill="#727272"/>
<path d="M139.078 132.593C139.152 132.666 130.883 138.301 120.712 145.106C110.467 151.911 102.199 157.399 102.125 157.326C102.052 157.253 110.321 151.618 120.492 144.813C130.663 138.008 139.005 132.52 139.078 132.593Z" fill="#727272"/>
<path d="M169.23 125.056C169.303 125.129 155.619 134.422 138.643 145.691C121.739 157.033 107.91 166.107 107.836 166.034C107.763 165.96 121.447 156.667 138.423 145.398C155.4 134.056 169.156 124.983 169.23 125.056Z" fill="#727272"/>
<path d="M175.3 134.13C175.373 134.203 161.689 143.496 144.713 154.765C127.81 166.107 113.98 175.18 113.907 175.107C113.833 175.034 127.517 165.741 144.493 154.472C161.47 143.13 175.227 133.983 175.3 134.13Z" fill="#727272"/>
<path d="M181.374 143.13C181.447 143.203 167.764 152.496 150.787 163.765C133.884 175.107 120.054 184.181 119.981 184.108C119.908 184.035 133.591 174.741 150.568 163.473C167.544 152.204 181.301 143.057 181.374 143.13Z" fill="#727272"/>
<path d="M187.374 152.204C187.447 152.277 173.764 161.57 156.787 172.839C139.884 184.181 126.054 193.254 125.981 193.181C125.908 193.108 139.591 183.815 156.568 172.546C173.544 161.204 187.301 152.13 187.374 152.204Z" fill="#727272"/>
<path d="M433.318 170.074L364.346 216.21L432.249 317.723L501.221 271.586L433.318 170.074Z" fill="#F5F5F5"/>
<path d="M465.582 266.868L464.777 271.697L430.531 266.721L431.336 261.892L465.582 266.868Z" fill="#727272"/>
<path d="M448.313 249.599L453.216 250.257L447.801 284.064L442.898 283.332L448.313 249.599Z" fill="#727272"/>
<path d="M416.773 206.645C416.847 206.719 409.895 211.475 401.334 217.182C392.772 222.89 385.748 227.5 385.674 227.427C385.601 227.354 392.553 222.597 401.114 216.89C409.676 211.182 416.7 206.572 416.773 206.645Z" fill="#727272"/>
<path d="M442.094 200.279C442.167 200.352 430.679 208.182 416.483 217.695C402.287 227.207 390.653 234.817 390.653 234.744C390.58 234.671 402.068 226.841 416.337 217.329C430.46 207.889 442.021 200.206 442.094 200.279Z" fill="#727272"/>
<path d="M447.217 207.889C447.29 207.963 435.802 215.792 421.606 225.305C407.41 234.817 395.776 242.428 395.776 242.354C395.703 242.281 407.191 234.452 421.46 224.939C435.583 215.499 447.144 207.816 447.217 207.889Z" fill="#727272"/>
<path d="M452.264 215.499C452.337 215.573 440.849 223.402 426.653 232.915C412.457 242.428 400.823 250.038 400.823 249.965C400.749 249.891 412.238 242.062 426.507 232.549C440.629 223.036 452.191 215.426 452.264 215.499Z" fill="#727272"/>
<path d="M457.389 223.11C457.462 223.183 445.974 231.012 431.778 240.525C417.582 250.038 405.948 257.648 405.948 257.575C405.874 257.502 417.363 249.672 431.632 240.159C445.754 230.647 457.316 223.036 457.389 223.11Z" fill="#727272"/>
<path d="M324.199 93.5447L248.963 53.3073L189.711 164.097L264.947 204.334L324.199 93.5447Z" fill="#F5F5F5"/>
<path d="M252.061 169.692L247.305 171.302L235.158 137.788L239.988 136.179L252.061 169.692Z" fill="#727272"/>
<path d="M259.377 145.618L261.134 150.448L227.839 161.863L226.156 157.033L259.377 145.618Z" fill="#727272"/>
<path d="M283.013 96.2254C282.94 96.3717 275.33 92.3471 265.963 87.3713C256.597 82.3954 249.06 78.2245 249.133 78.0781C249.207 77.9318 256.817 81.9564 266.183 86.9322C275.549 91.9813 283.086 96.079 283.013 96.2254Z" fill="#727272"/>
<path d="M301.086 116.129C301.013 116.275 288.427 109.616 272.914 101.274C257.401 93.0057 244.889 86.1274 244.889 86.0542C244.962 85.9078 257.548 92.5667 273.061 100.909C288.574 109.25 301.16 116.056 301.086 116.129Z" fill="#727272"/>
<path d="M296.624 124.471C296.55 124.617 283.964 117.958 268.452 109.616C252.939 101.348 240.426 94.4692 240.426 94.396C240.499 94.2497 253.085 100.909 268.598 109.25C284.184 117.519 296.697 124.324 296.624 124.471Z" fill="#727272"/>
<path d="M292.231 132.739C292.158 132.886 279.572 126.227 264.059 117.885C248.546 109.616 236.033 102.738 236.033 102.665C236.106 102.518 248.692 109.177 264.205 117.519C279.718 125.788 292.304 132.593 292.231 132.739Z" fill="#727272"/>
<path d="M287.768 141.008C287.695 141.154 275.109 134.496 259.596 126.154C244.083 117.885 231.57 111.007 231.57 110.933C231.643 110.787 244.229 117.446 259.742 125.788C275.329 134.13 287.841 140.935 287.768 141.008Z" fill="#727272"/>
<path opacity="0.2" d="M288.209 -0.364624H286.307V31.8321H288.209V-0.364624Z" fill="black"/>
<path d="M243.129 70.7608H331.304C331.304 70.7608 323.182 31.8321 286.594 31.8321C254.032 31.8321 243.129 70.7608 243.129 70.7608Z" fill="black"/>
<path d="M288.205 -0.364624H286.303V31.8321H288.205V-0.364624Z" fill="black"/>
<path d="M483.508 321.456C483.508 321.529 388.894 321.675 272.254 321.675C155.541 321.675 61 321.602 61 321.456C61 321.383 155.541 321.236 272.254 321.236C388.894 321.31 483.508 321.383 483.508 321.456Z" fill="#0089CE"/>
<path d="M84.4163 275.649C86.9042 275.722 89.2458 277.112 90.8556 278.942C92.4654 280.771 93.4899 283.113 94.1484 285.527C95.3924 290.137 94.6607 295.625 93.2703 300.235C88.2945 298.479 85.148 293.137 83.7577 290.284C81.5625 285.82 80.2453 276.454 84.4163 275.649Z" fill="black"/>
<path d="M100.441 305.87C98.8313 303.601 98.8313 300.455 100.075 297.967C101.319 295.479 103.734 293.723 106.368 292.918C107.612 292.552 109.002 292.406 110.1 293.064C111.125 293.723 111.49 295.04 111.417 296.211C111.271 297.382 110.686 298.479 109.954 299.43C107.539 302.723 104.539 305.504 100.441 305.87Z" fill="black"/>
<path d="M101.026 321.309C101.026 321.309 100.952 320.944 100.806 320.358C100.66 319.7 100.513 318.821 100.294 317.724C99.9279 315.529 99.2694 312.382 99.7816 308.87C100.221 305.431 101.611 302.43 103.074 300.674C103.806 299.796 104.465 299.138 104.977 298.772C105.196 298.552 105.416 298.406 105.562 298.333C105.709 298.26 105.782 298.186 105.782 298.186C105.855 298.26 104.611 298.991 103.221 300.821C101.83 302.577 100.513 305.504 100.074 308.943C99.6352 312.382 100.221 315.455 100.513 317.724C100.66 318.821 100.806 319.773 100.952 320.358C101.026 320.944 101.026 321.309 101.026 321.309Z" fill="#0089CE"/>
<path d="M86.0254 282.673C86.0254 282.673 86.0986 282.82 86.2449 283.039C86.3913 283.332 86.5376 283.698 86.7571 284.137C87.1962 285.088 87.8547 286.552 88.5865 288.308C90.1231 291.82 92.0989 296.65 94.2209 302.138C96.343 307.553 98.0991 312.529 99.3431 316.114C100.002 317.943 100.441 319.407 100.807 320.431C100.953 320.944 101.099 321.309 101.172 321.602C101.246 321.895 101.319 322.041 101.246 322.041C101.246 322.041 101.172 321.895 101.099 321.675C100.953 321.383 100.88 321.017 100.66 320.505C100.294 319.48 99.7821 318.017 99.1236 316.26C97.8064 312.675 95.9771 307.772 93.855 302.284C91.733 296.869 89.7573 291.967 88.2938 288.454C87.562 286.698 86.9767 285.308 86.6108 284.283C86.3913 283.844 86.2449 283.405 86.1717 283.113C86.0254 282.82 86.0254 282.673 86.0254 282.673Z" fill="#0089CE"/>
<path d="M95.0986 311.065C92.1717 306.016 86.6104 302.577 80.8297 302.211C79.3662 302.138 77.5368 302.357 76.8782 303.674C76.2197 304.992 77.0978 306.601 78.1222 307.699C82.2931 312.236 89.391 313.846 95.1718 311.504" fill="black"/>
<path d="M83.0273 306.162C83.0273 306.162 83.3932 306.162 83.9786 306.162C84.2713 306.162 84.6372 306.236 85.0762 306.309C85.5153 306.382 85.9543 306.455 86.4665 306.602C86.9788 306.748 87.5641 306.821 88.1495 307.041C88.7349 307.187 89.3935 307.48 90.0521 307.772C91.3692 308.358 92.6863 309.089 94.0035 310.114C95.3206 311.138 96.4182 312.236 97.2963 313.334C97.7354 313.919 98.1012 314.431 98.4671 315.017C98.833 315.529 99.0525 316.041 99.3452 316.553C99.6379 316.992 99.7842 317.504 99.9306 317.87C100.077 318.236 100.223 318.602 100.296 318.895C100.443 319.48 100.589 319.773 100.516 319.773C100.443 319.773 100.077 318.529 99.1257 316.626C98.833 316.187 98.6135 315.675 98.2476 315.163C97.9549 314.651 97.5159 314.138 97.0768 313.553C96.1987 312.455 95.1011 311.358 93.8571 310.407C92.54 309.455 91.2229 308.65 89.9789 308.065C89.3203 307.772 88.7349 307.553 88.1495 307.333C87.5641 307.114 86.9788 306.967 86.4665 306.821C84.3445 306.309 83.0273 306.236 83.0273 306.162Z" fill="#0089CE"/>
<path d="M415.235 76.8342C413.113 77.3464 412.015 79.8344 411.796 82.0296C411.576 84.2248 411.869 86.5664 410.917 88.5421C409.893 90.8105 407.405 92.4935 407.332 94.9814C407.259 96.5181 408.21 97.9084 408.137 99.4451C408.064 101.933 405.503 103.836 405.429 106.323C405.356 108.08 406.527 109.836 406.234 111.592C406.015 112.982 404.917 114.08 404.478 115.397C403.6 118.031 405.356 120.885 407.698 122.422C410.332 124.105 413.698 124.471 416.625 123.519C419.552 122.568 422.04 120.3 423.211 117.446C424.528 114.299 424.235 110.714 423.942 107.348C423.064 96.7376 422.406 86.1274 421.967 75.4439" fill="#0089CE"/>
<path d="M408.941 114.299C408.868 114.226 409.527 114.08 409.892 113.129C410.112 112.69 410.185 112.031 410.112 111.372C410.112 110.641 409.819 109.909 409.6 109.031C409.38 108.153 409.014 107.128 409.234 106.031C409.453 104.86 410.258 103.982 410.99 103.031C411.356 102.592 411.722 102.079 412.014 101.494C412.234 100.982 412.307 100.323 412.161 99.7377C411.795 98.567 410.624 97.6889 410.039 96.2986C409.746 95.64 409.746 94.8351 409.892 94.1765C410.039 93.5179 410.331 92.8594 410.624 92.274C411.21 91.1032 411.795 90.0056 412.088 88.8348C412.6 86.4932 412.38 84.298 412.746 82.4686C413.039 80.6393 413.844 79.2489 414.576 78.5904C414.941 78.2245 415.307 78.005 415.527 77.9318C415.746 77.8586 415.893 77.7855 415.893 77.7855C415.893 77.8586 415.38 78.005 414.649 78.7367C413.917 79.4685 413.258 80.7856 412.966 82.5418C412.819 83.4199 412.819 84.4443 412.746 85.4688C412.673 86.5664 412.673 87.7372 412.38 88.9079C412.161 90.1519 411.502 91.2495 410.917 92.4203C410.331 93.5911 409.892 94.9082 410.331 96.1522C410.771 97.3962 411.941 98.2743 412.454 99.6646C412.673 100.323 412.6 101.055 412.307 101.64C412.015 102.226 411.649 102.738 411.283 103.25C410.551 104.201 409.746 105.079 409.6 106.104C409.38 107.128 409.673 108.08 409.966 108.958C410.185 109.836 410.478 110.641 410.478 111.372C410.478 112.104 410.405 112.763 410.185 113.202C409.966 113.714 409.673 114.007 409.453 114.153C409.088 114.226 408.941 114.299 408.941 114.299Z" fill="#455A64"/>
<path d="M403.237 131.642L396.651 150.667L369.137 152.131L364.527 162.375L393.285 165.302C398.992 167.644 405.578 164.79 407.7 158.936L415.383 137.496L403.237 131.642Z" fill="#F5A784"/>
<path d="M460.163 311.138C460.163 311.138 439.967 247.038 439.528 244.916C439.162 243.013 446.846 196.913 447.797 184.986L420.503 186.01C420.503 186.01 420.503 186.083 420.503 186.23L408.941 186.888L419.405 317.943H431.991L430.747 274.405C438.504 295.186 449.553 316.334 449.553 316.334L460.163 311.138Z" fill="#F5A784"/>
<path d="M431.186 290.064C431.186 289.698 431.04 275.502 431.04 275.502C430.894 276.38 426.211 263.209 426.357 262.404C426.43 261.965 431.186 290.064 431.186 290.064Z" fill="#A36957"/>
<path d="M425.774 256.111C425.774 256.111 425.701 256.404 425.701 256.916C425.701 257.428 425.701 258.16 425.701 259.111C425.701 259.55 425.774 260.063 425.848 260.575C425.921 261.087 425.994 261.672 426.14 262.258C426.36 263.429 426.726 264.746 427.165 266.063C428.043 268.697 429.067 271.039 429.799 272.722C430.165 273.454 430.457 274.185 430.677 274.697C430.897 275.137 431.043 275.429 431.043 275.429C431.043 275.429 430.97 275.137 430.823 274.697C430.677 274.185 430.384 273.527 430.092 272.649C429.433 270.966 428.482 268.624 427.604 265.99C427.165 264.673 426.799 263.429 426.579 262.258C426.433 261.672 426.36 261.087 426.287 260.575C426.213 260.063 426.14 259.55 426.14 259.111C426.067 258.233 425.994 257.502 425.994 256.989C425.847 256.404 425.848 256.111 425.774 256.111Z" fill="#A36957"/>
<path d="M419.114 318.602V317.431L431.992 316.846V321.675L431.187 321.748C427.675 321.968 413.26 322.553 410.845 321.822C408.284 321.09 419.114 318.602 419.114 318.602Z" fill="#455A64"/>
<path d="M432.214 321.456C432.214 321.456 432.141 321.456 431.995 321.456C431.775 321.456 431.629 321.456 431.336 321.529C430.677 321.529 429.946 321.602 428.994 321.602C427.019 321.675 424.311 321.748 421.311 321.748C418.311 321.748 415.604 321.748 413.628 321.675C412.677 321.675 411.945 321.602 411.286 321.602C411.067 321.602 410.847 321.602 410.628 321.602C410.847 321.602 410.994 321.602 411.286 321.602C411.945 321.602 412.677 321.602 413.628 321.675C415.604 321.675 418.311 321.748 421.311 321.748C424.311 321.748 427.019 321.675 428.994 321.602C429.946 321.602 430.677 321.529 431.336 321.529C431.556 321.529 431.775 321.529 431.995 321.529C432.141 321.456 432.214 321.456 432.214 321.456Z" fill="#0089CE"/>
<path d="M414.943 321.822C414.87 321.822 414.87 321.236 414.504 320.724C414.138 320.139 413.699 319.846 413.699 319.846C413.699 319.773 414.285 320.065 414.65 320.651C415.016 321.236 415.016 321.895 414.943 321.822Z" fill="#0089CE"/>
<path d="M418.749 319.919C418.749 319.919 418.53 319.7 418.31 319.407C418.091 319.114 418.018 318.821 418.018 318.821C418.018 318.821 418.237 319.041 418.457 319.334C418.676 319.626 418.749 319.919 418.749 319.919Z" fill="#0089CE"/>
<path d="M419.77 319.407C419.77 319.407 419.55 319.334 419.331 319.114C419.111 318.895 418.965 318.748 418.965 318.675C418.965 318.675 419.184 318.748 419.404 318.968C419.623 319.187 419.77 319.334 419.77 319.407Z" fill="#0089CE"/>
<path d="M420.432 318.163C420.432 318.236 420.14 318.236 419.774 318.236C419.408 318.236 419.115 318.236 419.115 318.163C419.115 318.09 419.408 318.09 419.774 318.09C420.14 318.09 420.432 318.09 420.432 318.163Z" fill="#0089CE"/>
<path d="M420.652 317.285C420.652 317.358 420.359 317.504 419.92 317.504C419.481 317.504 419.115 317.431 419.115 317.431C419.115 317.358 419.481 317.431 419.847 317.358C420.286 317.358 420.652 317.285 420.652 317.285Z" fill="#0089CE"/>
<path d="M418.311 318.821C418.311 318.821 418.019 318.895 417.506 318.821C417.287 318.821 416.921 318.748 416.628 318.602C416.482 318.529 416.336 318.529 416.116 318.382C416.043 318.309 415.97 318.236 415.896 318.163C415.896 318.016 415.896 317.87 416.043 317.87C416.848 317.431 417.58 317.87 417.872 318.309C418.019 318.529 418.092 318.748 418.165 318.821C418.165 318.968 418.165 319.041 418.165 319.041C418.165 319.041 418.092 318.748 417.799 318.309C417.653 318.09 417.433 317.943 417.067 317.87C416.775 317.797 416.336 317.797 416.116 317.943C415.97 318.017 416.043 318.163 416.189 318.309C416.336 318.382 416.482 318.456 416.628 318.529C416.921 318.602 417.214 318.675 417.506 318.748C418.019 318.821 418.311 318.748 418.311 318.821Z" fill="#0089CE"/>
<path d="M418.09 318.821C418.09 318.821 417.943 318.602 418.017 318.236C418.017 318.09 418.09 317.87 418.236 317.651C418.382 317.504 418.602 317.212 418.895 317.212C419.114 317.212 419.187 317.431 419.114 317.577C419.114 317.724 419.041 317.87 418.968 317.943C418.821 318.163 418.675 318.309 418.602 318.456C418.382 318.748 418.163 318.821 418.09 318.821C418.163 318.821 418.309 318.675 418.529 318.382C418.675 318.236 418.748 318.09 418.895 317.87C419.041 317.724 419.114 317.358 418.895 317.358C418.675 317.358 418.456 317.577 418.382 317.724C418.236 317.87 418.163 318.09 418.163 318.236C418.017 318.602 418.09 318.821 418.09 318.821Z" fill="#0089CE"/>
<path d="M431.922 317.943C431.922 317.943 431.556 317.943 430.97 318.017C430.385 318.09 429.58 318.309 428.921 318.895C428.263 319.48 427.824 320.212 427.604 320.724C427.385 321.309 427.385 321.675 427.385 321.602C427.385 321.602 427.385 321.529 427.385 321.309C427.385 321.163 427.458 320.87 427.531 320.651C427.677 320.065 428.117 319.334 428.848 318.748C429.58 318.163 430.385 317.943 430.97 317.87C431.263 317.87 431.483 317.87 431.702 317.87C431.848 317.87 431.922 317.943 431.922 317.943Z" fill="#0089CE"/>
<path d="M425.774 320.431C425.774 320.504 424.969 320.578 423.871 320.578C422.847 320.578 421.969 320.431 421.969 320.431C421.969 320.358 422.774 320.431 423.871 320.431C424.896 320.431 425.774 320.358 425.774 320.431Z" fill="#0089CE"/>
<path d="M428.264 320.358C428.264 320.358 428.19 320.505 428.117 320.724C428.044 320.944 427.971 321.09 427.971 321.09C427.898 321.09 427.898 320.87 427.971 320.651C428.117 320.505 428.264 320.358 428.264 320.358Z" fill="#0089CE"/>
<path d="M429.211 319.187C429.211 319.187 429.138 319.334 428.992 319.48C428.845 319.626 428.699 319.7 428.699 319.7C428.699 319.7 428.772 319.553 428.919 319.407C429.065 319.261 429.211 319.187 429.211 319.187Z" fill="#0089CE"/>
<path d="M430.603 318.675C430.603 318.748 430.456 318.748 430.237 318.748C430.017 318.821 429.944 318.895 429.871 318.895C429.871 318.895 429.944 318.675 430.164 318.602C430.383 318.529 430.603 318.602 430.603 318.675Z" fill="#0089CE"/>
<path d="M431.553 318.382C431.553 318.456 431.48 318.456 431.407 318.529C431.334 318.602 431.188 318.602 431.188 318.529C431.188 318.456 431.261 318.456 431.334 318.382C431.407 318.382 431.48 318.382 431.553 318.382Z" fill="#0089CE"/>
<path d="M449.26 317.504L448.748 316.407L460.237 310.626L462.285 315.016L461.554 315.382C458.407 316.992 445.528 323.505 443.041 323.797C440.333 324.163 449.26 317.504 449.26 317.504Z" fill="#455A64"/>
<path d="M462.361 314.724C462.361 314.724 462.287 314.797 462.141 314.87C461.995 314.943 461.775 315.09 461.556 315.163C460.97 315.456 460.312 315.821 459.507 316.187C457.751 317.065 455.336 318.236 452.555 319.48C449.848 320.724 447.36 321.822 445.53 322.553C444.652 322.919 443.994 323.212 443.408 323.431C443.189 323.505 442.969 323.578 442.823 323.651C442.677 323.724 442.604 323.724 442.604 323.724C442.604 323.724 442.677 323.651 442.823 323.651C442.969 323.578 443.189 323.505 443.408 323.431C443.994 323.212 444.726 322.846 445.53 322.48C447.36 321.675 449.848 320.651 452.555 319.407C455.263 318.163 457.751 316.992 459.507 316.187C460.312 315.821 461.043 315.456 461.629 315.163C461.848 315.09 461.995 314.943 462.214 314.87C462.287 314.724 462.361 314.724 462.361 314.724Z" fill="#0089CE"/>
<path d="M446.773 322.114C446.7 322.114 446.48 321.675 445.895 321.309C445.383 320.944 444.797 320.87 444.797 320.797C444.797 320.724 445.383 320.724 445.968 321.163C446.627 321.602 446.846 322.114 446.773 322.114Z" fill="#0089CE"/>
<path d="M449.408 318.822C449.408 318.822 449.116 318.748 448.823 318.529C448.53 318.309 448.311 318.163 448.311 318.09C448.311 318.09 448.603 318.163 448.896 318.382C449.262 318.602 449.481 318.822 449.408 318.822Z" fill="#0089CE"/>
<path d="M450.138 317.943C450.138 318.017 449.918 317.943 449.626 317.87C449.333 317.797 449.113 317.651 449.113 317.651C449.113 317.578 449.333 317.651 449.626 317.724C449.918 317.797 450.138 317.87 450.138 317.943Z" fill="#0089CE"/>
<path d="M450.215 316.553C450.215 316.626 449.995 316.773 449.629 316.919C449.263 317.065 449.044 317.139 448.971 317.139C448.971 317.065 449.19 316.919 449.556 316.773C449.922 316.626 450.215 316.48 450.215 316.553Z" fill="#0089CE"/>
<path d="M450.067 315.675C450.067 315.675 449.848 315.968 449.482 316.187C449.116 316.407 448.75 316.48 448.75 316.407C448.75 316.334 449.043 316.26 449.409 316.041C449.774 315.821 450.067 315.675 450.067 315.675Z" fill="#0089CE"/>
<path d="M448.604 318.017C448.604 318.017 448.312 318.163 447.873 318.382C447.653 318.456 447.36 318.529 446.995 318.602C446.848 318.602 446.629 318.675 446.482 318.602C446.409 318.602 446.263 318.529 446.19 318.456C446.116 318.383 446.116 318.236 446.19 318.09C446.702 317.358 447.653 317.504 448.092 317.724C448.312 317.87 448.458 318.017 448.531 318.09C448.604 318.236 448.678 318.309 448.678 318.309C448.678 318.309 448.458 318.017 448.019 317.797C447.799 317.724 447.507 317.651 447.214 317.651C446.921 317.724 446.556 317.87 446.336 318.09C446.263 318.236 446.336 318.382 446.556 318.382C446.702 318.382 446.921 318.382 447.068 318.382C447.36 318.382 447.653 318.309 447.946 318.236C448.312 318.09 448.531 317.943 448.604 318.017Z" fill="#0089CE"/>
<path d="M448.383 318.09C448.383 318.09 448.164 317.943 448.091 317.578C448.018 317.431 448.018 317.212 448.018 316.919C448.091 316.699 448.164 316.407 448.457 316.26C448.676 316.187 449.042 316.553 449.115 316.699C449.188 316.846 448.896 316.773 448.896 316.846C448.896 317.065 448.822 317.285 448.749 317.431C448.603 317.943 448.457 318.09 448.383 318.09C448.383 318.017 448.53 317.87 448.603 317.504C448.676 317.358 448.676 317.139 448.749 316.919C448.749 316.699 448.749 316.407 448.53 316.48C448.31 316.553 448.237 316.846 448.164 316.992C448.091 317.212 448.164 317.431 448.164 317.578C448.237 317.943 448.457 318.09 448.383 318.09Z" fill="#0089CE"/>
<path d="M460.679 311.65C460.679 311.65 460.313 311.797 459.801 312.09C459.289 312.382 458.703 312.894 458.264 313.699C457.898 314.504 457.825 315.309 457.825 315.895C457.898 316.48 458.045 316.846 457.971 316.846C457.971 316.846 457.898 316.773 457.898 316.626C457.825 316.48 457.752 316.26 457.752 315.968C457.679 315.382 457.752 314.504 458.118 313.699C458.557 312.894 459.215 312.309 459.728 312.016C460.02 311.87 460.24 311.797 460.386 311.724C460.533 311.65 460.679 311.65 460.679 311.65Z" fill="#0089CE"/>
<path d="M456.069 316.407C456.069 316.407 455.411 316.919 454.459 317.358C453.508 317.797 452.703 318.017 452.703 318.017C452.703 317.943 453.508 317.651 454.386 317.285C455.264 316.773 455.996 316.334 456.069 316.407Z" fill="#0089CE"/>
<path d="M458.336 315.382C458.409 315.382 458.336 315.602 458.336 315.748C458.336 315.968 458.336 316.114 458.336 316.114C458.263 316.114 458.189 315.968 458.189 315.748C458.189 315.529 458.263 315.309 458.336 315.382Z" fill="#0089CE"/>
<path d="M458.698 313.919C458.771 313.919 458.698 314.065 458.625 314.285C458.552 314.431 458.478 314.577 458.405 314.577C458.332 314.577 458.405 314.431 458.478 314.212C458.552 313.992 458.625 313.846 458.698 313.919Z" fill="#0089CE"/>
<path d="M459.725 312.821C459.725 312.894 459.579 312.968 459.433 313.041C459.286 313.187 459.213 313.333 459.14 313.333C459.067 313.333 459.14 313.114 459.286 312.968C459.506 312.821 459.725 312.821 459.725 312.821Z" fill="#0089CE"/>
<path d="M460.457 312.236C460.457 312.236 460.457 312.382 460.384 312.455C460.31 312.529 460.237 312.602 460.164 312.529C460.164 312.529 460.164 312.382 460.237 312.309C460.384 312.236 460.457 312.163 460.457 312.236Z" fill="#0089CE"/>
<path d="M446.109 163.253L443.987 137.13L454.964 137.349C454.964 137.349 455.476 133.471 453.866 125.056C452.842 119.86 449.402 116.714 445.524 114.811V114.738L445.158 114.665C440.256 112.397 435.06 112.031 435.06 112.031L421.596 112.177C421.596 112.177 411.279 110.86 405.571 118.251C403.376 121.104 396.571 140.496 396.571 140.496L412.742 148.325L411.205 137.569C411.205 137.569 411.498 145.325 412.523 147.813C413.108 149.203 414.645 153.447 414.645 153.447L414.425 166.326L446.109 163.253Z" fill="black"/>
<path d="M438.651 133.398L436.602 141.886H455.554L454.31 127.617L438.651 133.398Z" fill="black"/>
<path d="M455.553 141.886C455.553 141.813 454.601 141.74 453.065 141.667C451.528 141.593 449.406 141.52 446.991 141.52C444.65 141.52 442.455 141.667 440.918 141.74C439.381 141.886 438.43 141.959 438.43 142.032C438.43 142.106 439.381 142.032 440.918 142.032C442.455 141.959 444.577 141.959 446.991 141.886C449.333 141.886 451.455 141.886 453.065 141.886C454.601 141.959 455.553 141.959 455.553 141.886Z" fill="#0089CE"/>
<path d="M437.843 127.544C437.77 127.544 437.77 128.349 437.77 129.739C437.77 131.056 437.843 132.959 437.916 134.934C437.989 136.983 438.062 138.813 438.209 140.13C438.282 141.447 438.355 142.325 438.428 142.325C438.501 142.325 438.502 141.52 438.502 140.13C438.502 138.813 438.428 136.91 438.355 134.934C438.282 132.886 438.209 131.056 438.062 129.739C437.989 128.349 437.916 127.544 437.843 127.544Z" fill="#0089CE"/>
<g opacity="0.3">
<path d="M420.649 134.934C420.649 134.934 424.82 166.107 436.674 165.229C436.674 165.229 442.016 165.155 443.699 161.643V160.253L420.649 134.934Z" fill="black"/>
</g>
<g opacity="0.3">
<path d="M437.847 129.373L435.578 144.594L437.042 147.301L439.457 142.032H438.432L437.847 129.373Z" fill="black"/>
</g>
<path d="M414.725 153.448C414.725 153.448 414.579 153.228 414.432 152.716C414.213 152.204 413.993 151.545 413.701 150.667C413.115 148.911 412.457 146.496 411.871 143.789C411.359 141.081 411.066 138.52 410.993 136.691C410.92 135.813 410.92 135.008 410.92 134.496C410.92 133.983 410.92 133.691 410.993 133.691C411.066 133.691 411.066 134.788 411.286 136.618C411.432 138.447 411.725 140.935 412.31 143.642C412.823 146.35 413.481 148.765 413.993 150.521C414.213 151.326 414.432 152.057 414.579 152.57C414.652 153.155 414.725 153.375 414.725 153.448Z" fill="#0089CE"/>
<path d="M419.48 162.375C419.407 162.375 419.114 161.716 418.821 160.838C418.529 159.96 418.455 159.228 418.529 159.228C418.602 159.228 418.894 159.887 419.187 160.765C419.48 161.643 419.553 162.375 419.48 162.375Z" fill="#0089CE"/>
<path d="M421.09 162.229C421.017 162.229 420.651 161.277 420.651 159.96C420.651 158.643 420.943 157.619 421.017 157.692C421.09 157.692 421.017 158.716 421.017 159.96C421.09 161.204 421.236 162.229 421.09 162.229Z" fill="#0089CE"/>
<path d="M413.116 148.618C413.042 148.691 409.311 146.935 404.701 144.594C400.091 142.325 396.432 140.349 396.432 140.276C396.505 140.203 400.237 141.959 404.847 144.301C409.457 146.569 413.189 148.545 413.116 148.618Z" fill="#0089CE"/>
<path d="M419.767 114.739C419.84 111.007 419.84 107.128 419.84 107.128C419.84 107.128 415.084 106.177 414.279 99.9574C413.474 94.0302 415.669 80.054 415.669 80.054C422.621 77.4197 429.792 79.8344 434.548 85.3957L433.377 115.47C433.231 118.983 430.158 121.617 426.426 121.471C422.694 121.251 419.694 118.251 419.767 114.739Z" fill="#F5A784"/>
<path d="M415.379 91.1764C415.379 91.6155 415.672 91.9813 416.111 91.9813C416.55 91.9813 416.916 91.6886 416.916 91.2496C416.916 90.8106 416.623 90.4447 416.184 90.4447C415.745 90.4447 415.379 90.7374 415.379 91.1764Z" fill="#0089CE"/>
<path d="M415.083 90.152C415.156 90.2252 415.815 89.8593 416.62 89.8593C417.498 89.8593 418.083 90.2984 418.156 90.2252C418.23 90.152 418.083 90.0057 417.864 89.7861C417.571 89.5666 417.132 89.3471 416.62 89.3471C416.107 89.3471 415.595 89.4934 415.376 89.713C415.083 89.8593 415.01 90.0788 415.083 90.152Z" fill="#0089CE"/>
<path d="M424.086 91.6886C424.086 92.1276 424.379 92.4935 424.818 92.4935C425.257 92.4935 425.622 92.2008 425.622 91.7618C425.622 91.3227 425.33 90.9568 424.891 90.9568C424.452 90.9568 424.086 91.3227 424.086 91.6886Z" fill="#0089CE"/>
<path d="M424.015 90.6641C424.088 90.7373 424.747 90.3715 425.552 90.3715C426.43 90.3715 427.015 90.8105 427.088 90.7373C427.162 90.6641 427.015 90.5178 426.796 90.2983C426.503 90.0788 426.064 89.8592 425.552 89.8592C425.04 89.8592 424.527 90.0056 424.308 90.2251C424.088 90.4446 423.942 90.591 424.015 90.6641Z" fill="#0089CE"/>
<path d="M420.723 96.9573C420.723 96.8841 420.211 96.8109 419.333 96.6646C419.113 96.6646 418.894 96.5914 418.894 96.4451C418.82 96.2987 418.967 96.0792 419.04 95.7865C419.259 95.2743 419.479 94.6889 419.699 94.1035C420.65 91.7619 421.382 89.7862 421.235 89.7862C421.162 89.713 420.284 91.6156 419.333 93.9571C419.113 94.5425 418.894 95.0547 418.674 95.6401C418.601 95.8597 418.455 96.1524 418.528 96.5182C418.601 96.6646 418.747 96.8109 418.894 96.8841C419.04 96.9573 419.186 96.9573 419.26 96.9573C420.211 96.9573 420.723 97.0305 420.723 96.9573Z" fill="#0089CE"/>
<path d="M419.84 107.128C419.84 107.128 424.011 107.494 428.255 105.153C428.255 105.153 426.133 109.397 419.913 108.665L419.84 107.128Z" fill="#A36957"/>
<path d="M426.722 88.1762C426.576 88.4689 425.917 88.3225 425.185 88.1762C424.454 88.0298 423.795 87.8835 423.722 87.5908C423.649 87.2981 424.38 86.859 425.405 87.0785C426.356 87.2981 426.941 87.9566 426.722 88.1762Z" fill="#0089CE"/>
<path d="M418.234 86.9322C418.161 87.2249 417.502 87.3712 416.697 87.3712C415.893 87.3712 415.161 87.3712 415.088 87.0785C415.014 86.7858 415.673 86.2736 416.624 86.2736C417.575 86.2004 418.307 86.6395 418.234 86.9322Z" fill="#0089CE"/>
<path d="M420.723 99.006C420.577 98.9328 420.357 99.0792 420.284 99.2255C420.211 99.4451 420.211 99.6646 420.43 99.8109C420.577 99.9573 420.869 99.9573 421.016 99.8109C421.162 99.6646 421.235 99.3719 421.162 99.2255C421.089 99.006 420.796 98.9328 420.577 99.006" fill="#A36957"/>
<path d="M420.944 99.0791C421.018 99.0791 420.798 98.8596 420.432 98.9328C420.286 99.006 420.066 99.1523 419.993 99.3718C419.92 99.5914 419.993 99.9572 420.286 100.177C420.579 100.396 420.871 100.323 421.091 100.177C421.31 100.03 421.383 99.7377 421.383 99.5914C421.31 99.2255 421.018 99.1523 421.018 99.2255C421.018 99.2987 421.091 99.3718 421.091 99.6645C421.091 99.8109 421.018 99.8841 420.944 99.9572C420.871 100.03 420.652 100.03 420.579 99.9572C420.505 99.8841 420.432 99.7377 420.432 99.5914C420.432 99.445 420.505 99.3718 420.652 99.2987C420.725 99.0791 420.944 99.1523 420.944 99.0791Z" fill="#0089CE"/>
<path d="M431.702 92.7131C430.971 94.3961 429.141 95.7864 429.434 97.6157C429.58 98.7865 430.385 99.9573 430.239 101.128C430.019 102.665 428.483 103.689 428.263 105.153C427.97 106.982 429.8 108.446 430.458 110.129C431.483 112.616 430.166 115.47 430.166 118.105C430.092 122.275 433.678 126.154 437.776 126.446C439.459 126.593 441.361 126.081 442.166 124.617C442.898 123.446 442.752 121.91 443.191 120.592C443.849 118.617 445.679 117.226 446.118 115.178C446.849 111.519 442.386 108.446 442.678 104.714C442.825 103.104 443.776 101.714 444.215 100.177C444.8 98.128 444.288 95.8596 442.898 94.2497C441.8 92.9326 440.19 92.0545 439.239 90.6642C438.142 89.0544 438.142 87.0055 437.776 85.103C436.824 80.493 433.312 76.4684 428.922 74.8586C424.458 73.2487 419.263 74.0536 415.531 76.9074C415.531 76.9074 414.433 81.7369 419.409 82.5419C424.385 83.3468 426.653 82.3955 427.239 84.3712C427.239 84.3712 426.653 86.7128 428.702 88.908C430.678 91.1764 432.58 90.7374 431.702 92.7131Z" fill="#0089CE"/>
<path d="M439.605 126.154C439.605 126.154 439.459 126.154 439.166 126.081C438.873 126.007 438.434 125.934 437.922 125.715C436.897 125.349 435.361 124.471 434.117 122.861C433.458 122.056 432.873 121.105 432.507 119.934C432.068 118.836 431.848 117.519 431.848 116.202C431.848 114.885 431.995 113.421 432.361 112.031C432.58 111.299 432.8 110.641 433.092 109.909C433.385 109.177 433.678 108.519 433.897 107.787C434.117 107.055 434.044 106.324 433.897 105.665C433.678 104.933 433.385 104.275 433.092 103.689C432.8 103.031 432.434 102.372 432.214 101.714C431.995 101.055 431.922 100.323 432.068 99.5915C432.361 98.2012 433.166 97.1767 433.678 96.1523C434.19 95.1278 434.336 94.0302 434.336 93.0058C434.263 91.0301 433.385 89.5666 432.727 88.6885C431.995 87.8104 431.483 87.5177 431.483 87.4445C431.483 87.4445 432.068 87.7372 432.873 88.5422C433.605 89.3471 434.556 90.8837 434.629 92.9326C434.702 93.9571 434.483 95.1278 433.97 96.2255C433.458 97.3231 432.653 98.3475 432.434 99.5915C432.141 100.835 432.8 102.153 433.458 103.47C433.751 104.128 434.117 104.787 434.336 105.519C434.556 106.25 434.556 107.128 434.336 107.86C434.117 108.592 433.751 109.324 433.531 109.982C433.239 110.641 433.019 111.373 432.873 112.031C432.507 113.421 432.287 114.812 432.361 116.129C432.361 118.763 433.239 121.105 434.483 122.641C435.727 124.251 437.117 125.056 438.141 125.495C439.02 126.081 439.678 126.154 439.605 126.154Z" fill="#455A64"/>
<path d="M438.872 89.2739C438.872 89.2739 438.507 89.3471 437.775 89.4203C437.043 89.4934 436.019 89.5666 434.775 89.3471C433.531 89.1276 431.994 88.5422 430.97 87.0055C430.457 86.2738 430.311 85.3957 429.945 84.5176C429.652 83.7127 429.067 82.9809 428.262 82.4687C426.652 81.4443 424.75 81.2979 423.14 81.1516C421.457 80.9321 419.92 80.6394 418.896 79.8344C417.798 79.1027 417.286 78.0783 417.14 77.4197C417.067 77.0538 417.067 76.7611 417.067 76.6148C417.067 76.3953 417.14 76.3221 417.14 76.3221C417.213 76.3221 417.067 76.688 417.286 77.4197C417.432 78.0783 418.018 78.9564 419.042 79.6881C420.067 80.4198 421.53 80.7125 423.213 80.8589C424.823 81.0784 426.799 81.1516 428.482 82.2492C429.36 82.7614 430.018 83.6395 430.311 84.5176C430.604 85.3957 430.823 86.2738 431.262 86.9324C432.14 88.3227 433.604 88.9081 434.848 89.2008C436.092 89.4203 437.116 89.4203 437.775 89.4203C438.507 89.2007 438.872 89.2008 438.872 89.2739Z" fill="#455A64"/>
<path d="M437.118 83.2736C437.118 83.2736 436.826 83.4199 436.24 83.4199C435.655 83.4199 434.85 83.3468 433.899 82.9077C433.46 82.6882 432.948 82.3955 432.509 81.9565C432.069 81.5174 431.704 81.0052 431.338 80.4198C430.679 79.3222 430.021 77.9319 428.703 77.3465C427.386 76.7611 425.85 76.9074 424.606 76.9806C423.289 77.127 422.118 77.127 421.093 76.9806C420.069 76.8343 419.337 76.3952 418.898 76.0294C418.679 75.8098 418.532 75.6635 418.459 75.5171C418.386 75.3708 418.313 75.2976 418.386 75.2976C418.386 75.2976 418.605 75.5171 419.044 75.883C419.483 76.2489 420.215 76.5416 421.167 76.6879C422.118 76.8343 423.289 76.7611 424.606 76.6147C425.923 76.5416 427.386 76.322 428.923 76.9806C429.655 77.2733 430.24 77.8587 430.679 78.4441C431.118 79.0295 431.411 79.6881 431.777 80.2003C432.069 80.7857 432.435 81.2979 432.801 81.6638C433.167 82.0296 433.606 82.3955 434.045 82.615C434.923 83.0541 435.728 83.2004 436.24 83.2004C436.753 83.2736 437.118 83.2736 437.118 83.2736Z" fill="#455A64"/>
<path d="M441.803 124.617C441.73 124.617 442.022 124.105 442.242 123.227C442.535 122.349 442.754 120.958 442.754 119.275C442.681 117.592 442.315 115.617 441.217 113.714C440.705 112.763 439.9 111.885 439.242 110.86C438.949 110.348 438.656 109.763 438.51 109.104C438.364 108.446 438.437 107.787 438.656 107.128C439.095 105.884 439.827 104.787 439.973 103.616C440.193 102.445 439.608 101.421 439.022 100.47C438.73 99.9574 438.437 99.5183 438.217 99.0061C437.998 98.4939 437.851 97.9817 437.778 97.4694C437.632 96.445 437.778 95.4937 437.851 94.6888C438.071 93.0058 437.925 91.6155 437.486 90.8106C437.12 89.9325 436.607 89.713 436.607 89.6398C436.607 89.6398 436.607 89.6398 436.681 89.713C436.754 89.713 436.827 89.7862 436.9 89.8593C437.12 90.0057 437.339 90.2984 437.559 90.7374C437.998 91.6155 438.217 93.0058 438.071 94.6888C437.998 95.5669 437.925 96.445 437.998 97.3963C438.071 98.3475 438.583 99.2988 439.169 100.25C439.461 100.762 439.754 101.201 439.973 101.787C440.193 102.372 440.266 103.031 440.193 103.616C440.047 104.86 439.242 105.958 438.876 107.202C438.656 107.787 438.583 108.372 438.729 108.958C438.876 109.543 439.095 110.055 439.388 110.568C440.047 111.592 440.852 112.47 441.364 113.421C442.461 115.397 442.9 117.446 442.9 119.202C442.9 120.885 442.608 122.276 442.315 123.154C442.169 123.593 442.022 123.959 441.876 124.178C441.876 124.471 441.803 124.617 441.803 124.617Z" fill="#455A64"/>
<path d="M412.016 260.941C412.016 260.941 407.113 214.256 406.82 196.986C406.528 179.717 414.577 162.668 414.577 162.668L446.115 161.351C446.115 161.351 452.335 178.839 452.481 186.23C452.701 200.499 448.676 214.621 449.115 225.963L450.139 260.941" fill="#0089CE"/>
<path d="M451.238 203.499C451.238 203.499 451.092 203.645 450.726 203.865C450.653 203.938 450.506 204.011 450.433 204.084C450.36 204.157 450.214 204.304 450.141 204.377C449.921 204.596 449.628 204.816 449.409 205.182C448.384 206.426 447.653 208.621 446.921 211.402C446.555 212.792 446.116 214.329 445.311 215.865C445.092 216.231 444.872 216.597 444.579 216.963C444.433 217.109 444.287 217.329 444.14 217.475L443.628 217.987C442.97 218.646 442.165 219.158 441.287 219.524C439.53 220.329 437.555 220.695 435.725 221.573C433.896 222.451 432.506 224.207 431.701 226.183C430.823 228.159 430.31 230.281 429.505 232.183C428.774 234.086 427.822 235.988 426.213 237.159C424.676 238.403 422.7 238.696 421.017 238.769C419.334 238.842 417.724 238.842 416.334 239.062C414.944 239.281 413.7 239.72 412.822 240.379C411.944 241.037 411.431 241.915 411.212 242.72C410.992 243.452 410.992 244.111 411.066 244.55C411.139 244.989 411.285 245.135 411.212 245.135C411.212 245.135 411.066 244.916 410.992 244.55C410.846 244.111 410.846 243.452 411.066 242.72C411.285 241.915 411.797 241.037 412.749 240.306C413.627 239.574 414.944 239.062 416.334 238.842C417.798 238.623 419.334 238.623 421.017 238.549C422.7 238.403 424.53 238.11 425.993 236.94C427.457 235.842 428.408 234.013 429.14 232.11C429.871 230.208 430.384 228.085 431.335 226.11C432.213 224.061 433.676 222.232 435.579 221.353C437.481 220.402 439.457 220.036 441.213 219.305C442.091 218.939 442.896 218.5 443.482 217.841L443.921 217.402C444.067 217.256 444.213 217.036 444.287 216.89C444.579 216.597 444.726 216.158 444.945 215.792C445.75 214.329 446.189 212.792 446.555 211.402C447.287 208.621 448.092 206.353 449.189 205.109C449.409 204.743 449.702 204.523 449.921 204.304C450.067 204.231 450.141 204.084 450.214 204.011C450.287 203.938 450.433 203.865 450.506 203.792C451.019 203.572 451.165 203.499 451.238 203.499Z" fill="#FAFAFA"/>
<path d="M451.383 181.912C451.383 181.912 451.383 182.132 451.456 182.571C451.456 183.01 451.383 183.595 451.236 184.327C450.87 185.864 449.773 187.913 447.651 189.815C446.626 190.766 445.382 191.718 443.992 192.523C442.602 193.328 440.992 194.133 439.455 195.084C437.845 195.962 436.235 196.986 434.772 198.377C433.309 199.694 432.211 201.45 431.26 203.352C430.235 205.182 429.357 207.084 428.186 208.767C427.601 209.572 426.942 210.304 426.211 210.963C425.479 211.621 424.674 212.133 423.796 212.572C422.113 213.451 420.43 213.963 418.893 214.475C417.357 214.987 415.893 215.353 414.576 215.938C413.332 216.451 412.161 217.036 411.283 217.695C410.405 218.353 409.673 219.012 409.234 219.597C408.283 220.768 408.063 221.646 407.99 221.646C407.99 221.646 408.063 221.427 408.21 221.061C408.356 220.695 408.649 220.109 409.161 219.524C409.6 218.865 410.332 218.207 411.21 217.548C412.088 216.89 413.259 216.231 414.503 215.719C415.82 215.134 417.283 214.694 418.82 214.255C420.357 213.743 422.04 213.231 423.65 212.353C424.454 211.914 425.259 211.402 425.991 210.816C426.723 210.158 427.381 209.499 427.894 208.694C429.064 207.084 429.943 205.182 430.894 203.352C431.918 201.45 433.016 199.694 434.479 198.303C435.943 196.913 437.626 195.889 439.236 195.011C440.845 194.133 442.382 193.328 443.846 192.523C445.236 191.718 446.48 190.84 447.504 189.888C449.553 188.059 450.724 186.01 451.09 184.547C451.456 182.79 451.309 181.912 451.383 181.912Z" fill="#FAFAFA"/>
<path d="M406.968 199.401C406.968 199.401 406.968 199.328 406.895 199.255C406.895 199.182 406.822 199.035 406.749 198.816C406.676 198.45 406.603 197.791 406.822 197.06C407.261 195.596 408.871 193.694 411.432 192.815C412.749 192.376 414.213 192.084 415.749 191.718C417.286 191.279 418.896 190.767 420.14 189.449C420.725 188.791 421.237 188.059 421.677 187.254C422.116 186.449 422.408 185.571 422.774 184.62C423.433 182.791 423.945 180.815 425.116 178.986C426.213 177.156 428.043 175.912 429.872 175.254C431.701 174.595 433.604 174.302 435.36 173.863C437.116 173.497 438.726 172.985 440.116 172.254C441.507 171.449 442.604 170.424 443.336 169.327C444.946 167.131 445.312 164.863 445.385 163.399C445.385 161.863 445.165 161.058 445.239 161.058C445.239 161.058 445.531 161.863 445.531 163.399C445.531 164.936 445.165 167.204 443.556 169.473C442.751 170.571 441.653 171.668 440.263 172.473C438.872 173.278 437.189 173.79 435.433 174.156C433.677 174.595 431.848 174.888 430.018 175.546C428.189 176.205 426.506 177.376 425.408 179.132C424.311 180.888 423.799 182.864 423.14 184.693C422.774 185.644 422.481 186.523 422.042 187.401C421.603 188.279 421.018 189.01 420.433 189.669C419.115 190.986 417.432 191.572 415.896 191.937C414.359 192.303 412.896 192.596 411.578 193.035C409.017 193.913 407.408 195.669 406.968 197.06C406.749 197.791 406.749 198.377 406.822 198.743C406.895 199.255 406.968 199.401 406.968 199.401Z" fill="#FAFAFA"/>
<path d="M448.677 238.915C448.677 238.915 448.677 239.062 448.75 239.354C448.75 239.647 448.75 240.086 448.604 240.671C448.311 241.769 447.506 243.306 445.823 244.623C445.018 245.281 444.067 245.867 442.896 246.379C441.798 246.891 440.554 247.257 439.237 247.623C437.92 247.989 436.603 248.428 435.286 249.087C433.969 249.672 432.725 250.55 431.7 251.721C430.603 252.818 429.725 254.062 428.7 255.16C427.676 256.258 426.505 257.136 425.334 257.794C422.919 259.111 420.431 259.55 418.383 259.624C416.334 259.624 414.651 259.185 413.626 258.819C413.114 258.599 412.675 258.453 412.382 258.306C412.09 258.16 411.943 258.087 411.943 258.087C411.943 258.087 412.09 258.16 412.382 258.233C412.675 258.38 413.041 258.526 413.626 258.672C414.724 259.038 416.334 259.404 418.383 259.331C420.431 259.258 422.846 258.819 425.188 257.502C426.359 256.843 427.456 255.965 428.481 254.94C429.505 253.843 430.383 252.672 431.481 251.501C432.578 250.33 433.822 249.379 435.213 248.794C436.53 248.135 437.92 247.769 439.237 247.33C440.554 246.964 441.725 246.599 442.896 246.086C443.994 245.647 444.945 245.062 445.75 244.477C447.36 243.233 448.238 241.769 448.53 240.671C448.75 239.574 448.604 238.915 448.677 238.915Z" fill="#FAFAFA"/>
<path d="M445.09 141.959L439.016 142.106C438.65 144.155 437.626 145.545 437.626 145.545C432.504 136.691 428.552 124.837 427.601 120.08C427.747 119.568 427.894 119.056 428.113 118.47C428.333 117.812 428.113 116.495 428.04 115.763C427.894 114.738 427.601 113.275 427.455 112.616C427.162 110.568 426.869 110.275 426.138 110.494C425.186 110.787 426.504 116.129 425.772 116.275C425.333 116.348 424.821 114.519 424.674 112.982C424.528 111.446 423.869 106.836 423.357 106.543C422.625 106.104 421.967 106.836 422.186 108.299C422.406 109.836 422.625 114.299 421.82 114.373C421.015 114.446 420.357 106.762 420.357 106.762C420.357 106.762 420.503 105.079 419.552 105.153C417.869 105.226 419.186 113.275 419.332 114.08C419.406 114.592 418.601 114.738 418.528 114.153C418.454 113.568 418.015 106.47 416.332 106.543C415.015 106.616 417.357 113.202 416.625 114.738C415.893 116.275 415.381 109.543 414.137 109.616C413.698 109.616 413.332 109.763 414.21 113.568C414.649 115.617 415.966 119.422 417.137 122.495C419.113 133.032 427.674 166.912 441.212 160.692C448.749 157.253 451.822 141.886 451.822 141.886L445.09 141.959Z" fill="#F5A784"/>
<path d="M419.115 114.665C419.115 114.665 419.188 114.665 419.261 114.665C419.334 114.665 419.554 114.519 419.554 114.226C419.554 113.787 419.481 113.129 419.334 112.251C419.261 111.372 418.968 110.348 418.968 109.104C418.968 108.519 418.968 107.86 419.041 107.128C419.041 106.762 419.042 106.397 419.115 106.104C419.188 105.738 419.407 105.372 419.627 105.445C419.92 105.445 420.066 105.665 420.139 105.958C420.212 106.25 420.285 106.616 420.212 106.909C420.359 108.811 420.578 110.86 421.017 112.982C421.09 113.275 421.164 113.495 421.237 113.787C421.31 113.934 421.31 114.08 421.383 114.226C421.456 114.299 421.456 114.373 421.529 114.446C421.603 114.519 421.676 114.592 421.822 114.665C422.115 114.665 422.188 114.446 422.261 114.299C422.334 114.153 422.334 114.007 422.408 113.86C422.481 113.568 422.481 113.275 422.554 112.982C422.627 111.812 422.627 110.568 422.481 109.324C422.481 108.665 422.261 108.08 422.408 107.494C422.481 107.202 422.554 106.909 422.773 106.836C422.847 106.762 422.993 106.762 423.066 106.762C423.139 106.762 423.212 106.836 423.212 106.836C423.286 106.909 423.286 106.836 423.286 106.909C423.505 107.421 423.651 108.08 423.798 108.738C423.944 109.397 424.017 110.055 424.164 110.714C424.237 111.372 424.383 112.031 424.456 112.763C424.53 113.421 424.603 114.153 424.822 114.812C424.895 115.178 425.042 115.47 425.188 115.836C425.261 115.982 425.335 116.202 425.481 116.348C425.554 116.421 425.7 116.568 425.92 116.495C426.139 116.421 426.213 116.275 426.213 116.202C426.359 115.763 426.286 115.397 426.286 115.031C426.286 114.665 426.213 114.299 426.213 113.934C426.139 113.348 426.066 112.69 426.066 112.104C426.066 111.812 426.066 111.519 426.066 111.226C426.066 111.08 426.139 110.933 426.139 110.86C426.139 110.787 426.213 110.787 426.213 110.787H426.286C426.798 110.568 426.944 111.226 427.091 111.812C427.237 112.397 427.31 112.982 427.383 113.568C427.603 114.738 427.822 115.836 427.969 116.934C428.042 117.446 428.042 118.031 427.896 118.544C427.749 119.056 427.53 119.568 427.383 120.08V120.153V120.227C428.261 124.178 429.505 127.69 430.676 130.837C431.847 133.983 433.018 136.691 434.042 138.886C435.067 141.081 435.945 142.764 436.603 143.935C436.896 144.52 437.189 144.886 437.335 145.252C437.481 145.545 437.628 145.691 437.628 145.691C437.628 145.691 437.555 145.545 437.408 145.252C437.262 144.886 436.969 144.447 436.677 143.935C436.091 142.764 435.213 141.008 434.189 138.813C433.164 136.618 432.067 133.91 430.969 130.764C429.871 127.617 428.627 124.105 427.749 120.227V120.3C427.896 119.788 428.115 119.275 428.261 118.763C428.481 118.178 428.408 117.592 428.335 117.007C428.188 115.836 427.969 114.738 427.749 113.568C427.603 112.982 427.603 112.397 427.457 111.812C427.383 111.519 427.31 111.226 427.164 110.933C427.091 110.787 426.944 110.641 426.725 110.494C426.505 110.421 426.286 110.421 426.139 110.494H425.993C425.92 110.494 425.847 110.568 425.847 110.568C425.774 110.641 425.7 110.714 425.627 110.86C425.554 111.007 425.554 111.226 425.481 111.372C425.481 111.665 425.481 112.031 425.481 112.324C425.481 112.909 425.554 113.568 425.627 114.153C425.627 114.519 425.7 114.885 425.7 115.251C425.7 115.617 425.7 115.982 425.627 116.202C425.627 116.275 425.554 116.275 425.627 116.275C425.627 116.275 425.627 116.275 425.554 116.202C425.481 116.129 425.408 115.982 425.334 115.836C425.188 115.543 425.115 115.178 425.042 114.885C424.895 114.226 424.749 113.568 424.676 112.836C424.603 112.177 424.53 111.446 424.383 110.787C424.31 110.129 424.164 109.47 424.017 108.811C423.871 108.153 423.798 107.494 423.432 106.836C423.432 106.762 423.286 106.616 423.212 106.543C423.139 106.47 423.066 106.47 422.92 106.397C422.7 106.323 422.481 106.397 422.334 106.47C421.968 106.689 421.895 107.055 421.822 107.421C421.749 107.787 421.749 108.08 421.822 108.445C421.895 108.738 421.895 109.031 421.895 109.397C421.968 110.641 422.042 111.812 421.968 112.982C421.968 113.275 421.895 113.568 421.895 113.86C421.895 114.007 421.822 114.153 421.749 114.226C421.749 114.299 421.676 114.299 421.676 114.373C421.676 114.446 421.603 114.373 421.603 114.446C421.676 114.373 421.603 114.446 421.603 114.373C421.603 114.373 421.529 114.299 421.529 114.226C421.456 114.08 421.456 114.007 421.383 113.86C421.31 113.568 421.237 113.348 421.164 113.055C420.725 110.933 420.505 108.885 420.359 106.982C420.359 106.616 420.359 106.25 420.212 105.884C420.139 105.738 420.066 105.519 419.92 105.372C419.773 105.226 419.554 105.153 419.407 105.153H419.481C419.188 105.079 418.968 105.299 418.822 105.445C418.676 105.592 418.676 105.811 418.602 106.031C418.529 106.397 418.529 106.762 418.529 107.128C418.529 107.86 418.529 108.519 418.529 109.104C418.529 110.348 418.822 111.372 418.968 112.251C419.115 113.129 419.188 113.787 419.261 114.226C419.334 114.446 419.115 114.592 419.041 114.592C419.115 114.665 419.115 114.665 419.115 114.665Z" fill="#A36957"/>
<path d="M371.404 151.984C371.404 151.984 369.355 151.911 367.16 152.496C363.355 153.521 356.843 157.472 356.623 162.302H361.379C361.379 162.302 358.745 167.936 359.477 167.424C361.526 166.034 365.55 162.009 365.55 162.009L371.404 151.984Z" fill="#F5A784"/>
<path d="M436.092 66.9556C436.018 66.9556 435.579 63.0774 435.14 58.1747C434.701 53.3452 434.482 49.3938 434.555 49.3938C434.628 49.3938 435.067 53.272 435.506 58.1747C435.872 63.0774 436.165 66.9556 436.092 66.9556Z" fill="#0089CE"/>
<path d="M456.87 49.6865C456.944 49.7597 453.724 54.3697 449.699 60.0773C445.675 65.7849 442.309 70.3217 442.236 70.2485C442.162 70.1753 445.382 65.5654 449.407 59.8578C453.431 54.1502 456.724 49.6134 456.87 49.6865Z" fill="#0089CE"/>
<path d="M465.509 70.7608C465.509 70.8339 461.777 71.712 457.167 72.6633C452.557 73.6146 448.752 74.2731 448.752 74.2C448.752 74.1268 452.484 73.2487 457.094 72.2974C461.704 71.3462 465.436 70.6144 465.509 70.7608Z" fill="#0089CE"/>
<path d="M216.641 171.229L190.737 304.26L187.371 321.675L360.062 320.87C367.819 320.797 374.697 313.919 377.185 303.748L407.845 178.181C409.748 170.424 405.577 162.375 399.723 162.375L224.909 162.594C221.031 162.448 217.592 166.034 216.641 171.229Z" fill="black"/>
<g opacity="0.5">
<path d="M216.641 171.229L190.737 304.26L187.371 321.675L360.062 320.87C367.819 320.797 374.697 313.919 377.185 303.748L407.845 178.181C409.748 170.424 405.577 162.375 399.723 162.375L224.909 162.594C221.031 162.448 217.592 166.034 216.641 171.229Z" fill="black"/>
</g>
<path d="M343.527 295.259L325.233 147.886C324.502 141.813 319.672 137.349 313.965 137.349L273.865 137.496C270.865 137.496 268.084 138.74 265.962 141.008L246.937 161.277L135.419 161.863C128.614 161.863 123.346 168.375 124.297 175.619L141.273 311.87C142.005 317.87 146.835 322.407 152.469 322.407L346.82 322.041C368.479 322.48 370.528 316.114 370.528 316.114C345.722 321.456 343.527 295.259 343.527 295.259Z" fill="black"/>
<g opacity="0.5">
<path d="M259.669 265.77L253.156 272.795L202.666 227.427L209.179 220.329L259.669 265.77Z" fill="white"/>
<path d="M250.376 218.792L257.62 225.305L211.959 274.405L204.715 267.892L250.376 218.792Z" fill="white"/>
</g>
<path d="M371.261 75.5903C370.822 75.3708 370.456 74.9317 370.456 74.4195L370.164 67.6143C370.164 67.1753 370.31 66.8094 370.676 66.5167C371.042 66.224 371.408 66.1508 371.847 66.224C372.944 66.5167 374.115 66.224 375.139 65.5654C376.091 64.98 376.676 64.0288 376.822 63.0775C376.969 62.1262 376.676 61.0286 376.017 60.1505C375.286 59.1993 374.188 58.5407 373.164 58.3943C370.968 58.1748 368.554 59.8578 367.968 62.0531C367.749 62.7848 367.017 63.2238 366.285 63.0043C365.554 62.7848 365.115 62.0531 365.334 61.3213C366.285 57.8089 369.944 55.2478 373.456 55.6137C375.286 55.8332 377.042 56.8577 378.213 58.3943C379.31 59.8578 379.823 61.6872 379.53 63.4434C379.237 65.1264 378.213 66.7362 376.676 67.7606C375.578 68.4924 374.261 68.9314 372.944 69.0046L373.164 74.2732C373.164 75.0049 372.578 75.6635 371.847 75.6635C371.627 75.6635 371.481 75.6635 371.261 75.5903Z" fill="black"/>
<path d="M373.31 78.3709C373.383 78.9563 372.871 79.5417 372.285 79.5417C371.7 79.6148 371.114 79.1026 371.114 78.5172C371.041 77.9318 371.553 77.3464 372.139 77.3464C372.724 77.3464 373.236 77.7123 373.31 78.3709Z" fill="black"/>
<path d="M347.768 66.0045C347.768 66.0045 347.768 65.8582 347.841 65.5655C347.841 65.2728 347.914 64.8338 347.987 64.2484C347.987 63.663 348.133 63.0044 348.353 62.1263C348.426 61.6873 348.499 61.2482 348.646 60.8092C348.792 60.3701 348.938 59.8579 349.085 59.3457C349.816 57.2968 350.914 54.8089 352.743 52.3941C354.573 49.9794 357.134 47.5646 360.427 45.7353C362.037 44.784 363.939 44.1254 365.842 43.4669C367.817 43.0278 369.939 42.5888 372.061 42.662C373.159 42.5888 374.257 42.7351 375.354 42.8815C375.94 42.9546 376.452 43.101 377.037 43.1742C377.623 43.2473 378.135 43.3937 378.72 43.6132C380.989 44.1986 383.184 45.223 385.233 46.6134C389.404 49.2476 392.989 53.5649 394.892 58.7603C395.843 61.3946 396.355 64.2484 396.355 67.1022C396.428 70.0291 395.843 72.9561 394.819 75.6635L394.453 76.4685L394.38 76.6148L394.453 76.688C396.282 80.9321 398.111 85.0298 399.868 89.0544L400.16 88.6886C396.355 87.2251 392.697 85.8348 389.184 84.4445L389.038 84.3713L388.965 84.4445C385.891 87.3714 382.306 89.3471 378.647 90.4447C374.988 91.4692 371.257 91.5424 367.891 90.957C364.524 90.3716 361.451 89.0544 358.89 87.3714C356.329 85.6884 354.28 83.7127 352.743 81.5907C351.207 79.5418 350.182 77.3465 349.377 75.444C348.719 73.4683 348.28 71.7853 348.06 70.3218C347.987 69.5901 347.914 69.0047 347.841 68.4193C347.841 67.9071 347.841 67.3948 347.841 67.029C347.841 66.6631 347.841 66.3704 347.841 66.1509C347.768 66.0777 347.768 66.0045 347.768 66.0045C347.768 66.0045 347.768 66.0777 347.768 66.2972C347.768 66.5168 347.768 66.8095 347.768 67.1753C347.768 67.5412 347.768 68.0534 347.768 68.5656C347.841 69.151 347.914 69.7364 347.987 70.4682C348.133 71.9317 348.572 73.6878 349.231 75.6635C349.963 77.5661 350.987 79.7613 352.597 81.8834C354.207 84.0054 356.256 86.0543 358.817 87.7373C361.378 89.4203 364.451 90.8106 367.891 91.396C371.33 92.0546 375.062 91.9814 378.867 90.957C382.599 89.9325 386.33 87.8836 389.404 84.8835L389.184 84.9567C392.697 86.347 396.355 87.7373 400.16 89.2008L400.746 89.4203L400.526 88.8349C398.77 84.8103 397.014 80.6394 395.184 76.4685V76.688L395.55 75.8099C396.575 72.9561 397.16 69.9559 397.087 67.029C397.087 64.102 396.575 61.175 395.624 58.4676C393.648 53.1259 389.989 48.8086 385.745 46.1011C383.623 44.784 381.355 43.6864 379.086 43.101C378.501 42.8815 377.915 42.8083 377.403 42.662C376.818 42.5888 376.232 42.4424 375.72 42.3693C374.549 42.2961 373.452 42.1497 372.354 42.1497C370.159 42.0766 368.037 42.5156 365.988 43.0278C364.012 43.6132 362.11 44.345 360.5 45.2962C357.134 47.1988 354.573 49.6135 352.743 52.1014C350.914 54.5894 349.816 57.0773 349.158 59.1993C349.012 59.7116 348.865 60.2238 348.719 60.6628C348.572 61.1019 348.499 61.6141 348.426 61.98C348.28 62.7849 348.133 63.5166 348.133 64.102C348.06 64.6874 348.06 65.1265 348.06 65.4191C347.768 65.8582 347.768 66.0045 347.768 66.0045Z" fill="#0089CE"/>
</g>
<defs>
<clipPath id="clip0_56_809">
<rect width="450" height="358" fill="white" transform="translate(56)"/>
</clipPath>
</defs>
</svg>
