<svg width="943" height="700" viewBox="0 0 943 700" fill="none" xmlns="http://www.w3.org/2000/svg">
    <path d="M1.40909 548.455H10.9318L22.3182 569.045H22.7727L34.1591 548.455H43.6818L26.75 577.636V595H18.3409V577.636L1.40909 548.455ZM58.017 595.682C54.608 595.682 51.6534 594.932 49.1534 593.432C46.6534 591.932 44.714 589.833 43.3352 587.136C41.9716 584.439 41.2898 581.288 41.2898 577.682C41.2898 574.076 41.9716 570.917 43.3352 568.205C44.714 565.492 46.6534 563.386 49.1534 561.886C51.6534 560.386 54.608 559.636 58.017 559.636C61.4261 559.636 64.3807 560.386 66.8807 561.886C69.3807 563.386 71.3125 565.492 72.6761 568.205C74.0549 570.917 74.7443 574.076 74.7443 577.682C74.7443 581.288 74.0549 584.439 72.6761 587.136C71.3125 589.833 69.3807 591.932 66.8807 593.432C64.3807 594.932 61.4261 595.682 58.017 595.682ZM58.0625 589.091C59.911 589.091 61.4564 588.583 62.6989 587.568C63.9413 586.538 64.8655 585.159 65.4716 583.432C66.0928 581.705 66.4034 579.78 66.4034 577.659C66.4034 575.523 66.0928 573.591 65.4716 571.864C64.8655 570.121 63.9413 568.735 62.6989 567.705C61.4564 566.674 59.911 566.159 58.0625 566.159C56.1686 566.159 54.5928 566.674 53.3352 567.705C52.0928 568.735 51.161 570.121 50.5398 571.864C49.9337 573.591 49.6307 575.523 49.6307 577.659C49.6307 579.78 49.9337 581.705 50.5398 583.432C51.161 585.159 52.0928 586.538 53.3352 587.568C54.5928 588.583 56.1686 589.091 58.0625 589.091ZM103.977 580.318V560.091H112.205V595H104.227V588.795H103.864C103.076 590.75 101.78 592.348 99.9773 593.591C98.1894 594.833 95.9848 595.455 93.3636 595.455C91.0758 595.455 89.053 594.947 87.2955 593.932C85.553 592.902 84.1894 591.409 83.2045 589.455C82.2197 587.485 81.7273 585.106 81.7273 582.318V560.091H89.9545V581.045C89.9545 583.258 90.5606 585.015 91.7727 586.318C92.9848 587.621 94.5758 588.273 96.5455 588.273C97.7576 588.273 98.9318 587.977 100.068 587.386C101.205 586.795 102.136 585.917 102.864 584.75C103.606 583.568 103.977 582.091 103.977 580.318ZM120.665 595V560.091H128.642V565.909H129.006C129.642 563.894 130.733 562.341 132.278 561.25C133.839 560.144 135.619 559.591 137.619 559.591C138.074 559.591 138.581 559.614 139.142 559.659C139.718 559.689 140.195 559.742 140.574 559.818V567.386C140.225 567.265 139.672 567.159 138.915 567.068C138.172 566.962 137.453 566.909 136.756 566.909C135.256 566.909 133.907 567.235 132.71 567.886C131.528 568.523 130.597 569.409 129.915 570.545C129.233 571.682 128.892 572.992 128.892 574.477V595H120.665ZM171.96 595.705C169.748 595.705 167.756 595.311 165.983 594.523C164.225 593.72 162.831 592.538 161.801 590.977C160.786 589.417 160.278 587.492 160.278 585.205C160.278 583.235 160.642 581.606 161.369 580.318C162.097 579.03 163.089 578 164.347 577.227C165.604 576.455 167.021 575.871 168.597 575.477C170.188 575.068 171.831 574.773 173.528 574.591C175.574 574.379 177.233 574.189 178.506 574.023C179.778 573.841 180.703 573.568 181.278 573.205C181.869 572.826 182.165 572.242 182.165 571.455V571.318C182.165 569.606 181.657 568.28 180.642 567.341C179.627 566.402 178.165 565.932 176.256 565.932C174.241 565.932 172.642 566.371 171.46 567.25C170.294 568.129 169.506 569.167 169.097 570.364L161.415 569.273C162.021 567.152 163.021 565.379 164.415 563.955C165.809 562.515 167.513 561.439 169.528 560.727C171.544 560 173.771 559.636 176.21 559.636C177.892 559.636 179.566 559.833 181.233 560.227C182.9 560.621 184.422 561.273 185.801 562.182C187.18 563.076 188.286 564.295 189.119 565.841C189.968 567.386 190.392 569.318 190.392 571.636V595H182.483V590.205H182.21C181.71 591.174 181.006 592.083 180.097 592.932C179.203 593.765 178.074 594.439 176.71 594.955C175.362 595.455 173.778 595.705 171.96 595.705ZM174.097 589.659C175.748 589.659 177.18 589.333 178.392 588.682C179.604 588.015 180.536 587.136 181.188 586.045C181.854 584.955 182.188 583.765 182.188 582.477V578.364C181.93 578.576 181.491 578.773 180.869 578.955C180.263 579.136 179.581 579.295 178.824 579.432C178.066 579.568 177.316 579.689 176.574 579.795C175.831 579.902 175.188 579.992 174.642 580.068C173.415 580.235 172.316 580.508 171.347 580.886C170.377 581.265 169.612 581.795 169.051 582.477C168.491 583.144 168.21 584.008 168.21 585.068C168.21 586.583 168.763 587.727 169.869 588.5C170.975 589.273 172.384 589.659 174.097 589.659ZM206.892 574.545V595H198.665V560.091H206.528V566.023H206.938C207.741 564.068 209.021 562.515 210.778 561.364C212.551 560.212 214.741 559.636 217.347 559.636C219.756 559.636 221.854 560.152 223.642 561.182C225.445 562.212 226.839 563.705 227.824 565.659C228.824 567.614 229.316 569.985 229.301 572.773V595H221.074V574.045C221.074 571.712 220.468 569.886 219.256 568.568C218.059 567.25 216.4 566.591 214.278 566.591C212.839 566.591 211.559 566.909 210.438 567.545C209.331 568.167 208.46 569.068 207.824 570.25C207.203 571.432 206.892 572.864 206.892 574.545ZM265.256 569.318L257.756 570.136C257.544 569.379 257.172 568.667 256.642 568C256.127 567.333 255.43 566.795 254.551 566.386C253.672 565.977 252.597 565.773 251.324 565.773C249.612 565.773 248.172 566.144 247.006 566.886C245.854 567.629 245.286 568.591 245.301 569.773C245.286 570.788 245.657 571.614 246.415 572.25C247.188 572.886 248.46 573.409 250.233 573.818L256.188 575.091C259.491 575.803 261.945 576.932 263.551 578.477C265.172 580.023 265.991 582.045 266.006 584.545C265.991 586.742 265.347 588.682 264.074 590.364C262.816 592.03 261.066 593.333 258.824 594.273C256.581 595.212 254.006 595.682 251.097 595.682C246.824 595.682 243.384 594.788 240.778 593C238.172 591.197 236.619 588.689 236.119 585.477L244.142 584.705C244.506 586.28 245.278 587.47 246.46 588.273C247.642 589.076 249.18 589.477 251.074 589.477C253.028 589.477 254.597 589.076 255.778 588.273C256.975 587.47 257.574 586.477 257.574 585.295C257.574 584.295 257.188 583.47 256.415 582.818C255.657 582.167 254.475 581.667 252.869 581.318L246.915 580.068C243.566 579.371 241.089 578.197 239.483 576.545C237.877 574.879 237.081 572.773 237.097 570.227C237.081 568.076 237.665 566.212 238.847 564.636C240.044 563.045 241.703 561.818 243.824 560.955C245.96 560.076 248.422 559.636 251.21 559.636C255.301 559.636 258.521 560.508 260.869 562.25C263.233 563.992 264.695 566.348 265.256 569.318ZM279.994 595L270.131 560.091H278.517L284.653 584.636H284.972L291.244 560.091H299.54L305.812 584.5H306.153L312.199 560.091H320.608L310.722 595H302.153L295.608 571.409H295.131L288.585 595H279.994ZM340.807 595.682C337.307 595.682 334.284 594.955 331.739 593.5C329.208 592.03 327.261 589.955 325.898 587.273C324.534 584.576 323.852 581.402 323.852 577.75C323.852 574.159 324.534 571.008 325.898 568.295C327.277 565.568 329.201 563.447 331.67 561.932C334.14 560.402 337.042 559.636 340.375 559.636C342.527 559.636 344.557 559.985 346.466 560.682C348.39 561.364 350.087 562.424 351.557 563.864C353.042 565.303 354.208 567.136 355.057 569.364C355.905 571.576 356.33 574.212 356.33 577.273V579.795H327.716V574.25H348.443C348.428 572.674 348.087 571.273 347.42 570.045C346.754 568.803 345.822 567.826 344.625 567.114C343.443 566.402 342.064 566.045 340.489 566.045C338.807 566.045 337.33 566.455 336.057 567.273C334.784 568.076 333.792 569.136 333.08 570.455C332.383 571.758 332.027 573.189 332.011 574.75V579.591C332.011 581.621 332.383 583.364 333.125 584.818C333.867 586.258 334.905 587.364 336.239 588.136C337.572 588.894 339.133 589.273 340.92 589.273C342.117 589.273 343.201 589.106 344.17 588.773C345.14 588.424 345.981 587.917 346.693 587.25C347.405 586.583 347.943 585.758 348.307 584.773L355.989 585.636C355.504 587.667 354.58 589.439 353.216 590.955C351.867 592.455 350.14 593.621 348.034 594.455C345.928 595.273 343.519 595.682 340.807 595.682ZM363.29 595V560.091H371.267V565.909H371.631C372.267 563.894 373.358 562.341 374.903 561.25C376.464 560.144 378.244 559.591 380.244 559.591C380.699 559.591 381.206 559.614 381.767 559.659C382.343 559.689 382.82 559.742 383.199 559.818V567.386C382.85 567.265 382.297 567.159 381.54 567.068C380.797 566.962 380.078 566.909 379.381 566.909C377.881 566.909 376.532 567.235 375.335 567.886C374.153 568.523 373.222 569.409 372.54 570.545C371.858 571.682 371.517 572.992 371.517 574.477V595H363.29ZM416.256 569.318L408.756 570.136C408.544 569.379 408.172 568.667 407.642 568C407.127 567.333 406.43 566.795 405.551 566.386C404.672 565.977 403.597 565.773 402.324 565.773C400.612 565.773 399.172 566.144 398.006 566.886C396.854 567.629 396.286 568.591 396.301 569.773C396.286 570.788 396.657 571.614 397.415 572.25C398.188 572.886 399.46 573.409 401.233 573.818L407.188 575.091C410.491 575.803 412.945 576.932 414.551 578.477C416.172 580.023 416.991 582.045 417.006 584.545C416.991 586.742 416.347 588.682 415.074 590.364C413.816 592.03 412.066 593.333 409.824 594.273C407.581 595.212 405.006 595.682 402.097 595.682C397.824 595.682 394.384 594.788 391.778 593C389.172 591.197 387.619 588.689 387.119 585.477L395.142 584.705C395.506 586.28 396.278 587.47 397.46 588.273C398.642 589.076 400.18 589.477 402.074 589.477C404.028 589.477 405.597 589.076 406.778 588.273C407.975 587.47 408.574 586.477 408.574 585.295C408.574 584.295 408.188 583.47 407.415 582.818C406.657 582.167 405.475 581.667 403.869 581.318L397.915 580.068C394.566 579.371 392.089 578.197 390.483 576.545C388.877 574.879 388.081 572.773 388.097 570.227C388.081 568.076 388.665 566.212 389.847 564.636C391.044 563.045 392.703 561.818 394.824 560.955C396.96 560.076 399.422 559.636 402.21 559.636C406.301 559.636 409.521 560.508 411.869 562.25C414.233 563.992 415.695 566.348 416.256 569.318ZM447.892 574.545V595H439.665V548.455H447.71V566.023H448.119C448.938 564.053 450.203 562.5 451.915 561.364C453.642 560.212 455.839 559.636 458.506 559.636C460.93 559.636 463.044 560.144 464.847 561.159C466.65 562.174 468.044 563.659 469.028 565.614C470.028 567.568 470.528 569.955 470.528 572.773V595H462.301V574.045C462.301 571.697 461.695 569.871 460.483 568.568C459.286 567.25 457.604 566.591 455.438 566.591C453.983 566.591 452.68 566.909 451.528 567.545C450.392 568.167 449.498 569.068 448.847 570.25C448.21 571.432 447.892 572.864 447.892 574.545ZM488.96 595.705C486.748 595.705 484.756 595.311 482.983 594.523C481.225 593.72 479.831 592.538 478.801 590.977C477.786 589.417 477.278 587.492 477.278 585.205C477.278 583.235 477.642 581.606 478.369 580.318C479.097 579.03 480.089 578 481.347 577.227C482.604 576.455 484.021 575.871 485.597 575.477C487.188 575.068 488.831 574.773 490.528 574.591C492.574 574.379 494.233 574.189 495.506 574.023C496.778 573.841 497.703 573.568 498.278 573.205C498.869 572.826 499.165 572.242 499.165 571.455V571.318C499.165 569.606 498.657 568.28 497.642 567.341C496.627 566.402 495.165 565.932 493.256 565.932C491.241 565.932 489.642 566.371 488.46 567.25C487.294 568.129 486.506 569.167 486.097 570.364L478.415 569.273C479.021 567.152 480.021 565.379 481.415 563.955C482.809 562.515 484.513 561.439 486.528 560.727C488.544 560 490.771 559.636 493.21 559.636C494.892 559.636 496.566 559.833 498.233 560.227C499.9 560.621 501.422 561.273 502.801 562.182C504.18 563.076 505.286 564.295 506.119 565.841C506.968 567.386 507.392 569.318 507.392 571.636V595H499.483V590.205H499.21C498.71 591.174 498.006 592.083 497.097 592.932C496.203 593.765 495.074 594.439 493.71 594.955C492.362 595.455 490.778 595.705 488.96 595.705ZM491.097 589.659C492.748 589.659 494.18 589.333 495.392 588.682C496.604 588.015 497.536 587.136 498.188 586.045C498.854 584.955 499.188 583.765 499.188 582.477V578.364C498.93 578.576 498.491 578.773 497.869 578.955C497.263 579.136 496.581 579.295 495.824 579.432C495.066 579.568 494.316 579.689 493.574 579.795C492.831 579.902 492.188 579.992 491.642 580.068C490.415 580.235 489.316 580.508 488.347 580.886C487.377 581.265 486.612 581.795 486.051 582.477C485.491 583.144 485.21 584.008 485.21 585.068C485.21 586.583 485.763 587.727 486.869 588.5C487.975 589.273 489.384 589.659 491.097 589.659ZM545.597 560.091L533.165 595H524.074L511.642 560.091H520.415L528.438 586.023H528.801L536.847 560.091H545.597ZM565.557 595.682C562.057 595.682 559.034 594.955 556.489 593.5C553.958 592.03 552.011 589.955 550.648 587.273C549.284 584.576 548.602 581.402 548.602 577.75C548.602 574.159 549.284 571.008 550.648 568.295C552.027 565.568 553.951 563.447 556.42 561.932C558.89 560.402 561.792 559.636 565.125 559.636C567.277 559.636 569.307 559.985 571.216 560.682C573.14 561.364 574.837 562.424 576.307 563.864C577.792 565.303 578.958 567.136 579.807 569.364C580.655 571.576 581.08 574.212 581.08 577.273V579.795H552.466V574.25H573.193C573.178 572.674 572.837 571.273 572.17 570.045C571.504 568.803 570.572 567.826 569.375 567.114C568.193 566.402 566.814 566.045 565.239 566.045C563.557 566.045 562.08 566.455 560.807 567.273C559.534 568.076 558.542 569.136 557.83 570.455C557.133 571.758 556.777 573.189 556.761 574.75V579.591C556.761 581.621 557.133 583.364 557.875 584.818C558.617 586.258 559.655 587.364 560.989 588.136C562.322 588.894 563.883 589.273 565.67 589.273C566.867 589.273 567.951 589.106 568.92 588.773C569.89 588.424 570.731 587.917 571.443 587.25C572.155 586.583 572.693 585.758 573.057 584.773L580.739 585.636C580.254 587.667 579.33 589.439 577.966 590.955C576.617 592.455 574.89 593.621 572.784 594.455C570.678 595.273 568.269 595.682 565.557 595.682ZM604.278 595V548.455H612.506V565.864H612.847C613.271 565.015 613.869 564.114 614.642 563.159C615.415 562.189 616.46 561.364 617.778 560.682C619.097 559.985 620.778 559.636 622.824 559.636C625.521 559.636 627.953 560.326 630.119 561.705C632.301 563.068 634.028 565.091 635.301 567.773C636.589 570.439 637.233 573.712 637.233 577.591C637.233 581.424 636.604 584.682 635.347 587.364C634.089 590.045 632.377 592.091 630.21 593.5C628.044 594.909 625.589 595.614 622.847 595.614C620.847 595.614 619.188 595.28 617.869 594.614C616.551 593.947 615.491 593.144 614.688 592.205C613.9 591.25 613.286 590.348 612.847 589.5H612.369V595H604.278ZM612.347 577.545C612.347 579.803 612.665 581.78 613.301 583.477C613.953 585.174 614.884 586.5 616.097 587.455C617.324 588.394 618.809 588.864 620.551 588.864C622.369 588.864 623.892 588.379 625.119 587.409C626.347 586.424 627.271 585.083 627.892 583.386C628.528 581.674 628.847 579.727 628.847 577.545C628.847 575.379 628.536 573.455 627.915 571.773C627.294 570.091 626.369 568.773 625.142 567.818C623.915 566.864 622.384 566.386 620.551 566.386C618.794 566.386 617.301 566.848 616.074 567.773C614.847 568.697 613.915 569.992 613.278 571.659C612.657 573.326 612.347 575.288 612.347 577.545ZM659.682 595.682C656.182 595.682 653.159 594.955 650.614 593.5C648.083 592.03 646.136 589.955 644.773 587.273C643.409 584.576 642.727 581.402 642.727 577.75C642.727 574.159 643.409 571.008 644.773 568.295C646.152 565.568 648.076 563.447 650.545 561.932C653.015 560.402 655.917 559.636 659.25 559.636C661.402 559.636 663.432 559.985 665.341 560.682C667.265 561.364 668.962 562.424 670.432 563.864C671.917 565.303 673.083 567.136 673.932 569.364C674.78 571.576 675.205 574.212 675.205 577.273V579.795H646.591V574.25H667.318C667.303 572.674 666.962 571.273 666.295 570.045C665.629 568.803 664.697 567.826 663.5 567.114C662.318 566.402 660.939 566.045 659.364 566.045C657.682 566.045 656.205 566.455 654.932 567.273C653.659 568.076 652.667 569.136 651.955 570.455C651.258 571.758 650.902 573.189 650.886 574.75V579.591C650.886 581.621 651.258 583.364 652 584.818C652.742 586.258 653.78 587.364 655.114 588.136C656.447 588.894 658.008 589.273 659.795 589.273C660.992 589.273 662.076 589.106 663.045 588.773C664.015 588.424 664.856 587.917 665.568 587.25C666.28 586.583 666.818 585.758 667.182 584.773L674.864 585.636C674.379 587.667 673.455 589.439 672.091 590.955C670.742 592.455 669.015 593.621 666.909 594.455C664.803 595.273 662.394 595.682 659.682 595.682ZM697.619 595.682C694.119 595.682 691.097 594.955 688.551 593.5C686.021 592.03 684.074 589.955 682.71 587.273C681.347 584.576 680.665 581.402 680.665 577.75C680.665 574.159 681.347 571.008 682.71 568.295C684.089 565.568 686.013 563.447 688.483 561.932C690.953 560.402 693.854 559.636 697.188 559.636C699.339 559.636 701.369 559.985 703.278 560.682C705.203 561.364 706.9 562.424 708.369 563.864C709.854 565.303 711.021 567.136 711.869 569.364C712.718 571.576 713.142 574.212 713.142 577.273V579.795H684.528V574.25H705.256C705.241 572.674 704.9 571.273 704.233 570.045C703.566 568.803 702.634 567.826 701.438 567.114C700.256 566.402 698.877 566.045 697.301 566.045C695.619 566.045 694.142 566.455 692.869 567.273C691.597 568.076 690.604 569.136 689.892 570.455C689.195 571.758 688.839 573.189 688.824 574.75V579.591C688.824 581.621 689.195 583.364 689.938 584.818C690.68 586.258 691.718 587.364 693.051 588.136C694.384 588.894 695.945 589.273 697.733 589.273C698.93 589.273 700.013 589.106 700.983 588.773C701.953 588.424 702.794 587.917 703.506 587.25C704.218 586.583 704.756 585.758 705.119 584.773L712.801 585.636C712.316 587.667 711.392 589.439 710.028 590.955C708.68 592.455 706.953 593.621 704.847 594.455C702.741 595.273 700.331 595.682 697.619 595.682ZM728.33 574.545V595H720.102V560.091H727.966V566.023H728.375C729.178 564.068 730.458 562.515 732.216 561.364C733.989 560.212 736.178 559.636 738.784 559.636C741.193 559.636 743.292 560.152 745.08 561.182C746.883 562.212 748.277 563.705 749.261 565.659C750.261 567.614 750.754 569.985 750.739 572.773V595H742.511V574.045C742.511 571.712 741.905 569.886 740.693 568.568C739.496 567.25 737.837 566.591 735.716 566.591C734.277 566.591 732.996 566.909 731.875 567.545C730.769 568.167 729.898 569.068 729.261 570.25C728.64 571.432 728.33 572.864 728.33 574.545ZM802.568 569.318L795.068 570.136C794.856 569.379 794.485 568.667 793.955 568C793.439 567.333 792.742 566.795 791.864 566.386C790.985 565.977 789.909 565.773 788.636 565.773C786.924 565.773 785.485 566.144 784.318 566.886C783.167 567.629 782.598 568.591 782.614 569.773C782.598 570.788 782.97 571.614 783.727 572.25C784.5 572.886 785.773 573.409 787.545 573.818L793.5 575.091C796.803 575.803 799.258 576.932 800.864 578.477C802.485 580.023 803.303 582.045 803.318 584.545C803.303 586.742 802.659 588.682 801.386 590.364C800.129 592.03 798.379 593.333 796.136 594.273C793.894 595.212 791.318 595.682 788.409 595.682C784.136 595.682 780.697 594.788 778.091 593C775.485 591.197 773.932 588.689 773.432 585.477L781.455 584.705C781.818 586.28 782.591 587.47 783.773 588.273C784.955 589.076 786.492 589.477 788.386 589.477C790.341 589.477 791.909 589.076 793.091 588.273C794.288 587.47 794.886 586.477 794.886 585.295C794.886 584.295 794.5 583.47 793.727 582.818C792.97 582.167 791.788 581.667 790.182 581.318L784.227 580.068C780.879 579.371 778.402 578.197 776.795 576.545C775.189 574.879 774.394 572.773 774.409 570.227C774.394 568.076 774.977 566.212 776.159 564.636C777.356 563.045 779.015 561.818 781.136 560.955C783.273 560.076 785.735 559.636 788.523 559.636C792.614 559.636 795.833 560.508 798.182 562.25C800.545 563.992 802.008 566.348 802.568 569.318ZM825.557 595.682C822.057 595.682 819.034 594.955 816.489 593.5C813.958 592.03 812.011 589.955 810.648 587.273C809.284 584.576 808.602 581.402 808.602 577.75C808.602 574.159 809.284 571.008 810.648 568.295C812.027 565.568 813.951 563.447 816.42 561.932C818.89 560.402 821.792 559.636 825.125 559.636C827.277 559.636 829.307 559.985 831.216 560.682C833.14 561.364 834.837 562.424 836.307 563.864C837.792 565.303 838.958 567.136 839.807 569.364C840.655 571.576 841.08 574.212 841.08 577.273V579.795H812.466V574.25H833.193C833.178 572.674 832.837 571.273 832.17 570.045C831.504 568.803 830.572 567.826 829.375 567.114C828.193 566.402 826.814 566.045 825.239 566.045C823.557 566.045 822.08 566.455 820.807 567.273C819.534 568.076 818.542 569.136 817.83 570.455C817.133 571.758 816.777 573.189 816.761 574.75V579.591C816.761 581.621 817.133 583.364 817.875 584.818C818.617 586.258 819.655 587.364 820.989 588.136C822.322 588.894 823.883 589.273 825.67 589.273C826.867 589.273 827.951 589.106 828.92 588.773C829.89 588.424 830.731 587.917 831.443 587.25C832.155 586.583 832.693 585.758 833.057 584.773L840.739 585.636C840.254 587.667 839.33 589.439 837.966 590.955C836.617 592.455 834.89 593.621 832.784 594.455C830.678 595.273 828.269 595.682 825.557 595.682ZM856.267 574.545V595H848.04V560.091H855.903V566.023H856.312C857.116 564.068 858.396 562.515 860.153 561.364C861.926 560.212 864.116 559.636 866.722 559.636C869.131 559.636 871.229 560.152 873.017 561.182C874.82 562.212 876.214 563.705 877.199 565.659C878.199 567.614 878.691 569.985 878.676 572.773V595H870.449V574.045C870.449 571.712 869.843 569.886 868.631 568.568C867.434 567.25 865.775 566.591 863.653 566.591C862.214 566.591 860.934 566.909 859.812 567.545C858.706 568.167 857.835 569.068 857.199 570.25C856.578 571.432 856.267 572.864 856.267 574.545ZM904.472 560.091V566.455H884.403V560.091H904.472ZM889.358 551.727H897.585V584.5C897.585 585.606 897.752 586.455 898.085 587.045C898.434 587.621 898.888 588.015 899.449 588.227C900.009 588.439 900.631 588.545 901.312 588.545C901.828 588.545 902.297 588.508 902.722 588.432C903.161 588.356 903.494 588.288 903.722 588.227L905.108 594.659C904.669 594.811 904.04 594.977 903.222 595.159C902.419 595.341 901.434 595.447 900.267 595.477C898.206 595.538 896.35 595.227 894.699 594.545C893.047 593.848 891.737 592.773 890.767 591.318C889.813 589.864 889.343 588.045 889.358 585.864V551.727ZM937.295 548.455L936.545 581.318H929.227L928.5 548.455H937.295ZM932.886 595.5C931.508 595.5 930.326 595.015 929.341 594.045C928.371 593.076 927.886 591.894 927.886 590.5C927.886 589.136 928.371 587.97 929.341 587C930.326 586.03 931.508 585.545 932.886 585.545C934.235 585.545 935.402 586.03 936.386 587C937.386 587.97 937.886 589.136 937.886 590.5C937.886 591.424 937.652 592.265 937.182 593.023C936.727 593.78 936.121 594.386 935.364 594.841C934.621 595.28 933.795 595.5 932.886 595.5Z" fill="black"/>
    <path d="M252.101 651.636H259.54L268.436 667.723H268.791L277.687 651.636H285.126L271.898 674.435V688H265.329V674.435L252.101 651.636ZM296.326 688.533C293.662 688.533 291.354 687.947 289.401 686.775C287.448 685.603 285.933 683.964 284.856 681.857C283.79 679.75 283.258 677.287 283.258 674.47C283.258 671.653 283.79 669.185 284.856 667.066C285.933 664.947 287.448 663.302 289.401 662.13C291.354 660.958 293.662 660.372 296.326 660.372C298.989 660.372 301.297 660.958 303.251 662.13C305.204 663.302 306.713 664.947 307.778 667.066C308.855 669.185 309.394 671.653 309.394 674.47C309.394 677.287 308.855 679.75 307.778 681.857C306.713 683.964 305.204 685.603 303.251 686.775C301.297 687.947 298.989 688.533 296.326 688.533ZM296.361 683.384C297.805 683.384 299.013 682.987 299.983 682.194C300.954 681.389 301.676 680.312 302.15 678.962C302.635 677.613 302.878 676.11 302.878 674.452C302.878 672.783 302.635 671.274 302.15 669.925C301.676 668.563 300.954 667.48 299.983 666.675C299.013 665.871 297.805 665.468 296.361 665.468C294.882 665.468 293.651 665.871 292.668 666.675C291.698 667.48 290.97 668.563 290.484 669.925C290.011 671.274 289.774 672.783 289.774 674.452C289.774 676.11 290.011 677.613 290.484 678.962C290.97 680.312 291.698 681.389 292.668 682.194C293.651 682.987 294.882 683.384 296.361 683.384ZM332.232 676.53V660.727H338.66V688H332.428V683.153H332.143C331.528 684.68 330.516 685.929 329.107 686.899C327.71 687.87 325.988 688.355 323.94 688.355C322.153 688.355 320.573 687.959 319.2 687.165C317.838 686.361 316.773 685.195 316.004 683.668C315.234 682.129 314.849 680.27 314.849 678.092V660.727H321.277V677.098C321.277 678.826 321.75 680.199 322.697 681.217C323.644 682.235 324.887 682.744 326.426 682.744C327.373 682.744 328.29 682.513 329.178 682.052C330.066 681.59 330.794 680.904 331.362 679.992C331.942 679.069 332.232 677.915 332.232 676.53ZM369.568 688.533C366.845 688.533 364.508 687.935 362.555 686.739C360.613 685.544 359.116 683.893 358.062 681.786C357.021 679.667 356.5 677.228 356.5 674.47C356.5 671.7 357.032 669.256 358.098 667.137C359.163 665.006 360.666 663.349 362.608 662.165C364.561 660.97 366.869 660.372 369.532 660.372C371.746 660.372 373.705 660.781 375.41 661.597C377.126 662.402 378.493 663.545 379.511 665.024C380.529 666.492 381.109 668.208 381.251 670.173H375.108C374.859 668.859 374.267 667.764 373.332 666.888C372.409 666.001 371.172 665.557 369.621 665.557C368.307 665.557 367.153 665.912 366.159 666.622C365.165 667.321 364.389 668.327 363.833 669.641C363.288 670.955 363.016 672.529 363.016 674.364C363.016 676.222 363.288 677.82 363.833 679.158C364.377 680.483 365.141 681.507 366.123 682.229C367.118 682.94 368.284 683.295 369.621 683.295C370.568 683.295 371.415 683.117 372.16 682.762C372.918 682.395 373.551 681.868 374.06 681.182C374.569 680.495 374.918 679.661 375.108 678.678H381.251C381.097 680.608 380.529 682.318 379.547 683.81C378.564 685.289 377.227 686.449 375.534 687.29C373.841 688.118 371.853 688.533 369.568 688.533ZM394.377 688.55C392.649 688.55 391.092 688.243 389.707 687.627C388.334 687 387.245 686.076 386.44 684.857C385.647 683.638 385.251 682.135 385.251 680.347C385.251 678.808 385.535 677.536 386.103 676.53C386.671 675.524 387.446 674.719 388.429 674.115C389.411 673.511 390.518 673.056 391.749 672.748C392.992 672.428 394.277 672.197 395.602 672.055C397.2 671.89 398.496 671.742 399.491 671.612C400.485 671.469 401.207 671.256 401.657 670.972C402.119 670.676 402.349 670.221 402.349 669.605V669.499C402.349 668.161 401.953 667.125 401.16 666.391C400.367 665.657 399.224 665.29 397.733 665.29C396.159 665.29 394.91 665.634 393.987 666.32C393.075 667.007 392.46 667.818 392.14 668.753L386.138 667.901C386.612 666.243 387.393 664.858 388.482 663.746C389.571 662.621 390.903 661.781 392.477 661.224C394.052 660.656 395.792 660.372 397.697 660.372C399.011 660.372 400.319 660.526 401.621 660.834C402.924 661.142 404.113 661.651 405.19 662.361C406.268 663.059 407.132 664.012 407.783 665.219C408.446 666.427 408.777 667.936 408.777 669.747V688H402.598V684.254H402.385C401.994 685.011 401.444 685.721 400.734 686.384C400.035 687.035 399.153 687.562 398.088 687.964C397.035 688.355 395.798 688.55 394.377 688.55ZM396.046 683.827C397.336 683.827 398.455 683.573 399.402 683.064C400.349 682.543 401.077 681.857 401.586 681.004C402.107 680.152 402.367 679.223 402.367 678.217V675.003C402.166 675.169 401.823 675.322 401.337 675.464C400.864 675.607 400.331 675.731 399.739 675.837C399.147 675.944 398.562 676.039 397.982 676.121C397.402 676.204 396.898 676.275 396.472 676.335C395.513 676.465 394.655 676.678 393.898 676.974C393.14 677.27 392.542 677.684 392.104 678.217C391.666 678.737 391.447 679.412 391.447 680.241C391.447 681.424 391.879 682.318 392.744 682.922C393.608 683.526 394.709 683.827 396.046 683.827ZM421.668 672.02V688H415.24V660.727H421.384V665.362H421.703C422.33 663.835 423.331 662.621 424.704 661.722C426.089 660.822 427.799 660.372 429.835 660.372C431.717 660.372 433.357 660.775 434.754 661.58C436.162 662.384 437.251 663.55 438.021 665.077C438.802 666.604 439.187 668.457 439.175 670.635V688H432.747V671.629C432.747 669.806 432.274 668.38 431.327 667.35C430.392 666.32 429.095 665.805 427.438 665.805C426.314 665.805 425.313 666.054 424.438 666.551C423.573 667.036 422.893 667.741 422.396 668.664C421.91 669.587 421.668 670.706 421.668 672.02ZM464.539 672.02V688H458.111V660.727H464.255V665.362H464.574C465.202 663.835 466.202 662.621 467.575 661.722C468.96 660.822 470.67 660.372 472.706 660.372C474.588 660.372 476.228 660.775 477.625 661.58C479.033 662.384 480.122 663.55 480.892 665.077C481.673 666.604 482.058 668.457 482.046 670.635V688H475.618V671.629C475.618 669.806 475.145 668.38 474.198 667.35C473.263 666.32 471.967 665.805 470.309 665.805C469.185 665.805 468.185 666.054 467.309 666.551C466.444 667.036 465.764 667.741 465.267 668.664C464.781 669.587 464.539 670.706 464.539 672.02ZM500.476 688.533C497.813 688.533 495.505 687.947 493.551 686.775C491.598 685.603 490.083 683.964 489.006 681.857C487.941 679.75 487.408 677.287 487.408 674.47C487.408 671.653 487.941 669.185 489.006 667.066C490.083 664.947 491.598 663.302 493.551 662.13C495.505 660.958 497.813 660.372 500.476 660.372C503.14 660.372 505.448 660.958 507.401 662.13C509.354 663.302 510.863 664.947 511.929 667.066C513.006 669.185 513.544 671.653 513.544 674.47C513.544 677.287 513.006 679.75 511.929 681.857C510.863 683.964 509.354 685.603 507.401 686.775C505.448 687.947 503.14 688.533 500.476 688.533ZM500.512 683.384C501.956 683.384 503.163 682.987 504.134 682.194C505.105 681.389 505.827 680.312 506.3 678.962C506.785 677.613 507.028 676.11 507.028 674.452C507.028 672.783 506.785 671.274 506.3 669.925C505.827 668.563 505.105 667.48 504.134 666.675C503.163 665.871 501.956 665.468 500.512 665.468C499.032 665.468 497.801 665.871 496.819 666.675C495.848 667.48 495.12 668.563 494.635 669.925C494.161 671.274 493.924 672.783 493.924 674.452C493.924 676.11 494.161 677.613 494.635 678.962C495.12 680.312 495.848 681.389 496.819 682.194C497.801 682.987 499.032 683.384 500.512 683.384ZM523.847 688L516.141 660.727H522.693L527.487 679.903H527.736L532.636 660.727H539.117L544.018 679.797H544.284L549.007 660.727H555.577L547.853 688H541.159L536.045 669.57H535.672L530.559 688H523.847ZM578.894 651.636V688H572.467V651.636H578.894ZM597.578 688.533C594.843 688.533 592.482 687.964 590.493 686.828C588.516 685.68 586.995 684.058 585.93 681.963C584.865 679.856 584.332 677.376 584.332 674.523C584.332 671.718 584.865 669.256 585.93 667.137C587.007 665.006 588.51 663.349 590.44 662.165C592.369 660.97 594.636 660.372 597.24 660.372C598.921 660.372 600.507 660.644 601.999 661.189C603.502 661.722 604.828 662.55 605.976 663.675C607.136 664.799 608.048 666.232 608.71 667.972C609.373 669.7 609.705 671.759 609.705 674.151V676.121H587.35V671.789H603.544C603.532 670.558 603.265 669.463 602.744 668.504C602.224 667.534 601.496 666.77 600.561 666.214C599.637 665.657 598.56 665.379 597.329 665.379C596.015 665.379 594.861 665.699 593.867 666.338C592.872 666.965 592.097 667.794 591.541 668.824C590.996 669.842 590.718 670.96 590.706 672.18V675.962C590.706 677.548 590.996 678.909 591.576 680.045C592.156 681.17 592.967 682.034 594.009 682.638C595.05 683.23 596.27 683.526 597.666 683.526C598.602 683.526 599.448 683.395 600.205 683.135C600.963 682.863 601.62 682.466 602.176 681.945C602.733 681.424 603.153 680.779 603.437 680.01L609.438 680.685C609.06 682.271 608.338 683.656 607.272 684.839C606.219 686.011 604.869 686.923 603.224 687.574C601.579 688.213 599.696 688.533 597.578 688.533ZM622.99 688.55C621.262 688.55 619.706 688.243 618.321 687.627C616.948 687 615.859 686.076 615.054 684.857C614.261 683.638 613.864 682.135 613.864 680.347C613.864 678.808 614.148 677.536 614.716 676.53C615.284 675.524 616.06 674.719 617.042 674.115C618.025 673.511 619.132 673.056 620.363 672.748C621.605 672.428 622.89 672.197 624.216 672.055C625.814 671.89 627.11 671.742 628.104 671.612C629.098 671.469 629.82 671.256 630.27 670.972C630.732 670.676 630.963 670.221 630.963 669.605V669.499C630.963 668.161 630.566 667.125 629.773 666.391C628.98 665.657 627.838 665.29 626.346 665.29C624.772 665.29 623.523 665.634 622.6 666.32C621.688 667.007 621.073 667.818 620.753 668.753L614.752 667.901C615.225 666.243 616.007 664.858 617.096 663.746C618.185 662.621 619.516 661.781 621.091 661.224C622.665 660.656 624.405 660.372 626.311 660.372C627.625 660.372 628.933 660.526 630.235 660.834C631.537 661.142 632.726 661.651 633.804 662.361C634.881 663.059 635.745 664.012 636.396 665.219C637.059 666.427 637.39 667.936 637.39 669.747V688H631.211V684.254H630.998C630.608 685.011 630.057 685.721 629.347 686.384C628.649 687.035 627.767 687.562 626.701 687.964C625.648 688.355 624.411 688.55 622.99 688.55ZM624.659 683.827C625.95 683.827 627.068 683.573 628.015 683.064C628.962 682.543 629.69 681.857 630.199 681.004C630.72 680.152 630.98 679.223 630.98 678.217V675.003C630.779 675.169 630.436 675.322 629.951 675.464C629.477 675.607 628.944 675.731 628.353 675.837C627.761 675.944 627.175 676.039 626.595 676.121C626.015 676.204 625.512 676.275 625.086 676.335C624.127 676.465 623.269 676.678 622.511 676.974C621.753 677.27 621.156 677.684 620.718 678.217C620.28 678.737 620.061 679.412 620.061 680.241C620.061 681.424 620.493 682.318 621.357 682.922C622.221 683.526 623.322 683.827 624.659 683.827ZM667.238 660.727L657.525 688H650.423L640.711 660.727H647.564L653.832 680.987H654.116L660.402 660.727H667.238ZM682.831 688.533C680.097 688.533 677.736 687.964 675.747 686.828C673.77 685.68 672.249 684.058 671.184 681.963C670.118 679.856 669.586 677.376 669.586 674.523C669.586 671.718 670.118 669.256 671.184 667.137C672.261 665.006 673.764 663.349 675.694 662.165C677.623 660.97 679.89 660.372 682.494 660.372C684.175 660.372 685.761 660.644 687.253 661.189C688.756 661.722 690.082 662.55 691.23 663.675C692.39 664.799 693.301 666.232 693.964 667.972C694.627 669.7 694.959 671.759 694.959 674.151V676.121H672.604V671.789H688.797C688.786 670.558 688.519 669.463 687.998 668.504C687.478 667.534 686.75 666.77 685.814 666.214C684.891 665.657 683.814 665.379 682.583 665.379C681.269 665.379 680.115 665.699 679.121 666.338C678.126 666.965 677.351 667.794 676.795 668.824C676.25 669.842 675.972 670.96 675.96 672.18V675.962C675.96 677.548 676.25 678.909 676.83 680.045C677.41 681.17 678.221 682.034 679.263 682.638C680.304 683.23 681.523 683.526 682.92 683.526C683.855 683.526 684.702 683.395 685.459 683.135C686.217 682.863 686.874 682.466 687.43 681.945C687.987 681.424 688.407 680.779 688.691 680.01L694.692 680.685C694.314 682.271 693.591 683.656 692.526 684.839C691.473 686.011 690.123 686.923 688.478 687.574C686.832 688.213 684.95 688.533 682.831 688.533ZM704.356 688.391C703.279 688.391 702.355 688.012 701.586 687.254C700.817 686.497 700.438 685.573 700.45 684.484C700.438 683.419 700.817 682.508 701.586 681.75C702.355 680.992 703.279 680.614 704.356 680.614C705.397 680.614 706.303 680.992 707.072 681.75C707.854 682.508 708.25 683.419 708.262 684.484C708.25 685.206 708.061 685.863 707.694 686.455C707.339 687.047 706.865 687.521 706.273 687.876C705.693 688.219 705.054 688.391 704.356 688.391Z" fill="black"/>
    <circle cx="472" cy="240" r="240" fill="black"/>
    <path d="M439.159 384.9L340.65 247.531L365.277 213.189L439.159 316.216L597.723 95.1001L622.35 129.442L439.159 384.9Z" fill="white"/>
</svg>
