<svg width="83" height="83" viewBox="0 0 83 83" fill="none" xmlns="http://www.w3.org/2000/svg">
<ellipse cx="41.5" cy="41.6945" rx="39.5" ry="38.6945" fill="#AEC4E3"/>
<ellipse cx="41.5" cy="41.6945" rx="39.5" ry="38.6945" fill="url(#paint0_linear_925_32)"/>
<g filter="url(#filter0_d_925_32)">
<ellipse cx="41.4209" cy="41.6172" rx="16.985" ry="16.6386" fill="#E38B4C"/>
<ellipse cx="41.4209" cy="41.6172" rx="16.985" ry="16.6386" fill="url(#paint1_linear_925_32)"/>
</g>
<path fill-rule="evenodd" clip-rule="evenodd" d="M12.428 67.9424L30.8796 43.3971H52.5087L70.5384 67.8738C63.3189 75.5674 52.9597 80.389 41.4509 80.389C29.9764 80.389 19.6446 75.5961 12.428 67.9424Z" fill="#7473A5"/>
<path fill-rule="evenodd" clip-rule="evenodd" d="M12.428 67.9424L30.8796 43.3971H52.5087L70.5384 67.8738C63.3189 75.5674 52.9597 80.389 41.4509 80.389C29.9764 80.389 19.6446 75.5961 12.428 67.9424Z" fill="url(#paint2_linear_925_32)"/>
<path fill-rule="evenodd" clip-rule="evenodd" d="M57.0278 49.4448L52.573 43.3971H30.9439L26.8484 48.8451L29.571 48.5821L31.23 52.6838L36.76 49.1239L40.631 54.1348L44.581 49.1239L50.9743 54.1348L53.4194 49.1239L57.0278 49.4448Z" fill="white"/>
<mask id="mask0_925_32" style="mask-type:alpha" maskUnits="userSpaceOnUse" x="2" y="3" width="79" height="78">
<ellipse cx="41.5" cy="41.6945" rx="39.5" ry="38.6945" fill="#AEC4E3"/>
<ellipse cx="41.5" cy="41.6945" rx="39.5" ry="38.6945" fill="url(#paint3_linear_925_32)"/>
</mask>
<g mask="url(#mask0_925_32)">
<path d="M24.8433 53.1722C25.272 44.7817 12.0467 43.2857 10.1668 51.351C1.88867 49.2371 0.767329 54.7007 3.01002 57.1723H29.7574C30.1795 54.4926 27.9105 51.0583 24.8433 53.1722Z" fill="white"/>
<path d="M24.8433 53.1722C25.272 44.7817 12.0467 43.2857 10.1668 51.351C1.88867 49.2371 0.767329 54.7007 3.01002 57.1723H29.7574C30.1795 54.4926 27.9105 51.0583 24.8433 53.1722Z" fill="url(#paint4_linear_925_32)"/>
<path d="M74.5779 63.3325C75.9482 57.2284 66.7842 54.9067 63.7822 59.8596C59.1212 55.4484 53.3542 59.4727 54.3022 63.3325C49.4832 62.1813 49.2088 65.9147 50.6124 67.4437H79.6875C80.1265 64.6895 77.7671 61.1599 74.5779 63.3325Z" fill="white"/>
<path d="M74.5779 63.3325C75.9482 57.2284 66.7842 54.9067 63.7822 59.8596C59.1212 55.4484 53.3542 59.4727 54.3022 63.3325C49.4832 62.1813 49.2088 65.9147 50.6124 67.4437H79.6875C80.1265 64.6895 77.7671 61.1599 74.5779 63.3325Z" fill="url(#paint5_linear_925_32)"/>
</g>
<defs>
<filter id="filter0_d_925_32" x="0.435913" y="0.978516" width="81.97" height="81.2773" filterUnits="userSpaceOnUse" color-interpolation-filters="sRGB">
<feFlood flood-opacity="0" result="BackgroundImageFix"/>
<feColorMatrix in="SourceAlpha" type="matrix" values="0 0 0 0 0 0 0 0 0 0 0 0 0 0 0 0 0 0 127 0" result="hardAlpha"/>
<feOffset/>
<feGaussianBlur stdDeviation="12"/>
<feColorMatrix type="matrix" values="0 0 0 0 1 0 0 0 0 1 0 0 0 0 1 0 0 0 1 0"/>
<feBlend mode="normal" in2="BackgroundImageFix" result="effect1_dropShadow_925_32"/>
<feBlend mode="normal" in="SourceGraphic" in2="effect1_dropShadow_925_32" result="shape"/>
</filter>
<linearGradient id="paint0_linear_925_32" x1="41.5" y1="3" x2="41.5" y2="80.389" gradientUnits="userSpaceOnUse">
<stop stop-color="white" stop-opacity="0"/>
<stop offset="1" stop-color="#F792A4"/>
</linearGradient>
<linearGradient id="paint1_linear_925_32" x1="41.4209" y1="24.9785" x2="41.4209" y2="58.2558" gradientUnits="userSpaceOnUse">
<stop stop-color="#F8A3B7"/>
<stop offset="1" stop-color="white" stop-opacity="0"/>
</linearGradient>
<linearGradient id="paint2_linear_925_32" x1="5.44166" y1="40.7659" x2="40.4765" y2="85.7357" gradientUnits="userSpaceOnUse">
<stop stop-color="#E9E9E9"/>
<stop offset="1" stop-color="white" stop-opacity="0"/>
</linearGradient>
<linearGradient id="paint3_linear_925_32" x1="41.5" y1="3" x2="41.5" y2="80.389" gradientUnits="userSpaceOnUse">
<stop stop-color="white" stop-opacity="0"/>
<stop offset="1" stop-color="#F792A4"/>
</linearGradient>
<linearGradient id="paint4_linear_925_32" x1="15.904" y1="46.0283" x2="15.904" y2="57.1723" gradientUnits="userSpaceOnUse">
<stop offset="0.514355" stop-color="white" stop-opacity="0"/>
<stop offset="1" stop-color="#DBDBDB"/>
</linearGradient>
<linearGradient id="paint5_linear_925_32" x1="65.2832" y1="55.9901" x2="65.2832" y2="67.4437" gradientUnits="userSpaceOnUse">
<stop offset="0.514355" stop-color="white" stop-opacity="0"/>
<stop offset="1" stop-color="#DBDBDB"/>
</linearGradient>
</defs>
</svg>
